<svg width="201" height="53" viewBox="0 0 201 53" fill="none" xmlns="http://www.w3.org/2000/svg">
<path d="M68.034 25.11V22.25L80.684 22.272C81.3293 22.272 81.8207 22.1253 82.158 21.832C82.51 21.524 82.686 21.0327 82.686 20.358C82.686 19.6833 82.51 19.1993 82.158 18.906C81.8207 18.598 81.3293 18.444 80.684 18.444H72.808C71.18 18.444 69.9113 18.0553 69.002 17.278C68.1073 16.486 67.66 15.3273 67.66 13.802C67.66 12.2767 68.1073 11.1253 69.002 10.348C69.9113 9.556 71.18 9.16 72.808 9.16H85.172V12.02L73.182 11.998C72.5513 11.998 72.06 12.1447 71.708 12.438C71.356 12.7167 71.18 13.1713 71.18 13.802C71.18 14.4327 71.356 14.8947 71.708 15.188C72.06 15.4667 72.5513 15.606 73.182 15.606H81.058C82.686 15.606 83.9473 16.0093 84.842 16.816C85.7513 17.608 86.206 18.7887 86.206 20.358C86.206 21.9127 85.7513 23.0933 84.842 23.9C83.9473 24.7067 82.686 25.11 81.058 25.11H68.034ZM88.413 25V9.27H91.933V15.716H103.021V9.27H106.541V25H103.021V18.576H91.933V25H88.413ZM108.298 25L115.382 9.27H120.816L127.9 25H124.072L122.576 21.678H113.622L112.126 25H108.298ZM114.898 18.818H121.3L118.242 12.02H117.956L114.898 18.818ZM128.343 25L135.427 9.27H140.861L147.945 25H144.117L142.621 21.678H133.667L132.171 25H128.343ZM134.943 18.818H141.345L138.287 12.02H138.001L134.943 18.818ZM149.708 25V9.27H152.304L159.344 9.248C162.189 9.248 164.397 9.91533 165.966 11.25C167.535 12.5847 168.32 14.5427 168.32 17.124C168.32 19.7053 167.535 21.6633 165.966 22.998C164.397 24.3327 162.189 25 159.344 25H149.708ZM159.102 12.108H153.228V22.14H159.102C160.95 22.14 162.351 21.7367 163.304 20.93C164.257 20.1233 164.734 18.8547 164.734 17.124C164.734 15.3787 164.257 14.11 163.304 13.318C162.351 12.5113 160.95 12.108 159.102 12.108ZM170.526 25V9.27H174.046V25H170.526Z" fill="#C5002F"/>
<path d="M68.54 46V30.27H81.718C83.346 30.27 84.6073 30.6807 85.502 31.502C86.4113 32.3233 86.866 33.57 86.866 35.242C86.866 36.914 86.4113 38.1607 85.502 38.982C84.6073 39.8033 83.346 40.214 81.718 40.214H72.06V46H68.54ZM81.3 33.13H72.06V37.332L81.3 37.354C81.9453 37.354 82.4367 37.1927 82.774 36.87C83.126 36.5473 83.302 36.0047 83.302 35.242C83.302 34.4647 83.126 33.922 82.774 33.614C82.4367 33.2913 81.9453 33.13 81.3 33.13ZM85.761 46L92.845 30.27H98.279L105.363 46H101.535L100.039 42.678H91.085L89.589 46H85.761ZM92.361 39.818H98.763L95.705 33.02H95.419L92.361 39.818ZM107.126 46V30.27H120.304C121.932 30.27 123.193 30.6807 124.088 31.502C124.997 32.3233 125.452 33.57 125.452 35.242C125.452 36.6647 125.122 37.7793 124.462 38.586C123.802 39.3927 122.863 39.8987 121.646 40.104L125.276 46H121.272L117.906 40.214H110.646V46H107.126ZM119.886 33.13H110.646V37.332L119.886 37.354C120.531 37.354 121.023 37.1927 121.36 36.87C121.712 36.5473 121.888 36.0047 121.888 35.242C121.888 34.4647 121.712 33.922 121.36 33.614C121.023 33.2913 120.531 33.13 119.886 33.13ZM128.095 46V30.27H131.615V46H128.095ZM134.69 46V30.27H138.254L149.386 41.578V30.27H152.906V46H149.342L138.21 34.67V46H134.69ZM154.661 46L161.745 30.27H167.179L174.263 46H170.435L168.939 42.678H159.985L158.489 46H154.661ZM161.261 39.818H167.663L164.605 33.02H164.319L161.261 39.818ZM179.193 46V40.39L170.855 30.27H175.211L180.953 37.398L186.673 30.27H191.029L182.735 40.368V46H179.193Z" fill="black"/>
<path d="M35.3333 18.8065C44.7753 18.8065 52.4301 26.4613 52.4301 35.9032C52.4301 45.3452 44.7753 53 35.3333 53C31.9812 53 28.8536 52.0346 26.215 50.3671C27.8005 49.3664 29.2104 48.1115 30.3855 46.6582C31.8911 47.3524 33.5666 47.7399 35.3333 47.7399C41.87 47.7399 47.17 42.4399 47.17 35.9032C47.17 27.2221 38.1528 21.5674 30.3855 25.1482C23.3771 28.3742 21.2316 37.4395 26.215 43.4497C25.09 44.8084 23.6665 45.9117 22.0445 46.6582C16.9832 40.4176 16.9474 31.433 22.0445 25.1482C25.1671 21.2866 29.9642 18.8065 35.3333 18.8065V18.8065Z" fill="#FCBE00"/>
<path d="M30.3855 25.1482C35.4469 31.3889 35.4825 40.3735 30.3855 46.6583C27.2629 50.5199 22.4657 53 17.0968 53C7.6548 53 0 45.3452 0 35.9033C0 25.5859 9.08146 17.6121 19.3091 18.949C21.8235 19.2738 24.1669 20.1446 26.2151 21.4394C24.6296 22.4401 23.2197 23.695 22.0446 25.1482C14.2791 21.5682 5.26011 27.2208 5.26011 35.9033C5.26011 42.4399 10.5601 47.7399 17.0968 47.7399C20.7222 47.7399 24.0193 46.1016 26.2151 43.4498C29.8406 39.0772 29.8422 32.7311 26.2151 28.3567C27.34 26.9981 28.7636 25.8948 30.3855 25.1482V25.1482Z" fill="#FFD92E"/>
<path d="M24.4962 11.8561C24.4962 13.1075 24.0301 14.2542 23.0282 15.4623C22.0781 16.6083 20.5269 17.9185 19.3091 18.9489C17.8555 18.7589 16.3388 18.7588 14.8844 18.9489C13.6596 17.9283 12.0704 16.554 11.1653 15.4623C10.1634 14.2542 9.69727 13.1075 9.69727 11.8561C9.69727 7.56921 14.635 5.77952 17.0967 9.19352C17.887 8.10206 19.0036 7.40861 20.3622 7.40861C22.7314 7.40861 24.4962 9.35035 24.4962 11.8561V11.8561Z" fill="#EC6385"/>
<path d="M51.9525 11.2246C52.9413 12.2134 52.3779 14.0935 50.4184 14.2781C49.6676 14.3482 48.7269 14.2293 47.4982 14.1459C47.3207 14.134 47.184 13.9939 47.1723 13.821C47.033 11.7618 46.7504 10.3539 47.6498 9.45453C48.858 8.24237 50.7814 9.1143 50.5152 10.8029C51.0495 10.7187 51.564 10.8361 51.9525 11.2246V11.2246Z" fill="#EC6385"/>
<path d="M43.3826 7.58073C43.3662 7.82761 43.1703 8.02696 42.9198 8.04349C40.0276 8.23919 37.9987 8.64632 36.7149 7.36531C34.9782 5.62862 36.256 2.90864 38.632 3.29286C38.2476 0.915954 40.969 -0.359693 42.7044 1.37574C43.9812 2.64968 43.581 4.65582 43.3826 7.58073Z" fill="#FF6E6A"/>
<path d="M24.6722 4.39218C24.4496 4.16969 24.4496 3.80884 24.6722 3.58635L26.9518 1.30678C27.1741 1.08418 27.5352 1.08418 27.7576 1.30678C27.9802 1.52927 27.9802 1.89012 27.7576 2.11261L25.4781 4.39218C25.2555 4.61489 24.8948 4.61489 24.6722 4.39218Z" fill="#FCBE00"/>
<path d="M30.7741 9.1183H28.4946C28.1798 9.1183 27.9247 8.86322 27.9247 8.54841C27.9247 8.2336 28.1798 7.97852 28.4946 7.97852H30.7741C31.089 7.97852 31.344 8.2336 31.344 8.54841C31.344 8.86322 31.089 9.1183 30.7741 9.1183Z" fill="#FCBE00"/>
<path d="M8.71507 4.39218L6.4355 2.11261C6.2129 1.89012 6.2129 1.52927 6.4355 1.30678C6.6581 1.08418 7.01885 1.08418 7.24145 1.30678L9.52102 3.58635C9.74362 3.80884 9.74362 4.16969 9.52102 4.39218C9.29842 4.61489 8.93767 4.61489 8.71507 4.39218Z" fill="#FCBE00"/>
<path d="M5.69873 9.1183H3.85114C3.53645 9.1183 3.28125 8.86322 3.28125 8.54841C3.28125 8.2336 3.53645 7.97852 3.85114 7.97852H5.69873C6.01343 7.97852 6.26863 8.2336 6.26863 8.54841C6.26863 8.86322 6.01343 9.1183 5.69873 9.1183Z" fill="#FCBE00"/>
<path d="M17.0965 3.41935C16.7818 3.41935 16.5266 3.16427 16.5266 2.84946V0.569892C16.5266 0.255084 16.7818 0 17.0965 0C17.4112 0 17.6664 0.255084 17.6664 0.569892V2.84946C17.6664 3.16427 17.4112 3.41935 17.0965 3.41935Z" fill="#FCBE00"/>
</svg>
