<svg width="51" height="51" viewBox="0 0 51 51" fill="none" xmlns="http://www.w3.org/2000/svg">
<path d="M23.375 10.625H12.75C11.577 10.625 10.625 9.673 10.625 8.5C10.625 7.327 11.577 6.375 12.75 6.375H38.25C39.423 6.375 40.375 7.327 40.375 8.5C40.375 9.673 39.423 10.625 38.25 10.625H31.875C32.8036 11.8596 33.4688 13.3046 33.7875 14.875H38.25C39.423 14.875 40.375 15.827 40.375 17C40.375 18.173 39.423 19.125 38.25 19.125H33.7875C32.8036 23.9743 28.5154 27.625 23.375 27.625H22.1298L35.5024 40.9976C36.3311 41.8264 36.3311 43.1736 35.5024 44.0024C34.6736 44.8311 33.3264 44.8311 32.4976 44.0024L15.4976 27.0024C14.8899 26.3946 14.7071 25.4809 15.0365 24.6861C15.3659 23.8935 16.1415 23.375 17 23.375H23.375C26.1503 23.375 28.5133 21.6006 29.3866 19.125H12.75C11.577 19.125 10.625 18.173 10.625 17C10.625 15.827 11.577 14.875 12.75 14.875H29.3866C28.5133 12.3994 26.1503 10.625 23.375 10.625V10.625Z" fill="#C62F2F"/>
</svg>
