<svg width="167" height="150" viewBox="0 0 167 150" fill="none" xmlns="http://www.w3.org/2000/svg">
<path d="M165.914 57.7772C165.854 57.7772 165.796 57.7588 165.747 57.7243L84.4454 0.85395C84.198 0.681689 83.904 0.589629 83.6029 0.590145C83.3019 0.590661 83.0082 0.683726 82.7614 0.856834L2.04582 57.7237C1.98198 57.7687 1.90296 57.7863 1.82616 57.7728C1.74935 57.7593 1.68104 57.7156 1.63626 57.6515C1.59148 57.5874 1.57389 57.508 1.58737 57.4309C1.60085 57.3537 1.64429 57.2851 1.70814 57.2401L82.4238 0.373269C82.7694 0.130954 83.1805 0.000698501 83.602 2.80141e-06C84.0235 -0.000692898 84.435 0.128204 84.7814 0.369376L166.083 57.2396C166.134 57.2755 166.173 57.327 166.193 57.3865C166.213 57.446 166.214 57.5104 166.195 57.5704C166.176 57.6304 166.139 57.6828 166.088 57.72C166.038 57.7572 165.977 57.7772 165.914 57.7772L165.914 57.7772Z" fill="#3F3D56"/>
<path d="M6.33176 59.2806L83.2083 2.3744L160.668 63.3297L87.1694 106.848L47.2658 97.7636L6.33176 59.2806Z" fill="#E6E6E6"/>
<path d="M51.234 133.758H12.875C12.6394 133.759 12.4062 133.708 12.1885 133.608C11.9708 133.509 11.7729 133.363 11.6063 133.18C11.4396 132.996 11.3074 132.778 11.2172 132.537C11.127 132.297 11.0806 132.04 11.0806 131.78C11.0806 131.52 11.127 131.262 11.2172 131.022C11.3074 130.782 11.4396 130.563 11.6063 130.38C11.7729 130.196 11.9708 130.05 12.1885 129.951C12.4062 129.852 12.6394 129.801 12.875 129.801H51.234C51.4696 129.801 51.7028 129.852 51.9205 129.951C52.1382 130.05 52.3361 130.196 52.5027 130.38C52.6694 130.563 52.8016 130.782 52.8918 131.022C52.982 131.262 53.0284 131.52 53.0284 131.78C53.0284 132.04 52.982 132.297 52.8918 132.537C52.8016 132.778 52.6694 132.996 52.5027 133.18C52.3361 133.363 52.1382 133.509 51.9205 133.608C51.7028 133.708 51.4696 133.759 51.234 133.758Z" fill="#2BA500"/>
<path d="M26.6922 125.844H12.8813C12.6449 125.844 12.4108 125.803 12.1924 125.724C11.9739 125.644 11.7754 125.528 11.6081 125.381C11.4409 125.234 11.3082 125.059 11.2177 124.867C11.1272 124.675 11.0806 124.469 11.0806 124.261C11.0806 124.053 11.1272 123.847 11.2177 123.654C11.3082 123.462 11.4409 123.288 11.6081 123.141C11.7754 122.994 11.9739 122.877 12.1924 122.798C12.4108 122.718 12.6449 122.677 12.8813 122.678H26.6922C26.9285 122.677 27.1626 122.718 27.3811 122.798C27.5996 122.877 27.7981 122.994 27.9653 123.141C28.1326 123.288 28.2653 123.462 28.3558 123.654C28.4463 123.847 28.4929 124.053 28.4929 124.261C28.4929 124.469 28.4463 124.675 28.3558 124.867C28.2653 125.059 28.1326 125.234 27.9653 125.381C27.7981 125.528 27.5996 125.644 27.3811 125.724C27.1626 125.803 26.9285 125.844 26.6922 125.844Z" fill="#2BA500"/>
<path d="M85.0066 91.019C84.7206 91.0193 84.4373 90.9635 84.1725 90.8548L37.1991 71.2683V9.95954C37.1997 9.41741 37.4143 8.89766 37.7957 8.51431C38.1772 8.13096 38.6944 7.91532 39.2339 7.91469H129.349C129.889 7.91532 130.406 8.13096 130.787 8.51431C131.169 8.89766 131.383 9.41741 131.384 9.95954V71.3111L131.296 71.3491L85.8659 90.8452C85.5938 90.9601 85.3017 91.0192 85.0066 91.019Z" fill="white"/>
<path d="M84.2249 91.019C83.9157 91.0193 83.6095 90.9595 83.3233 90.843L35.6161 71.1014V9.32726C35.6168 8.74292 35.8498 8.18269 36.2642 7.7695C36.6785 7.35631 37.2402 7.12388 37.8261 7.12322H129.174C129.76 7.12388 130.322 7.35631 130.736 7.7695C131.15 8.18269 131.383 8.74292 131.384 9.32726V71.1433L85.1538 90.8324C84.8597 90.9558 84.5439 91.0192 84.2249 91.019ZM36.2054 70.7088L83.5481 90.2996C83.9896 90.4783 84.4842 90.4754 84.9236 90.2914L130.795 70.7553V9.32726C130.794 8.89875 130.623 8.48793 130.319 8.18493C130.015 7.88192 129.604 7.71147 129.174 7.71097H37.8262C37.3965 7.71147 36.9845 7.88192 36.6807 8.18493C36.3769 8.48793 36.206 8.89875 36.2055 9.32726L36.2054 70.7088Z" fill="#3F3D56"/>
<path d="M164.949 56.9858H164.89L131.256 71.2605L85.2374 90.7913C85.0576 90.8665 84.8647 90.9057 84.6696 90.9067C84.4745 90.9077 84.2811 90.8705 84.1006 90.7971L36.6228 71.2197L2.16218 57.0091L2.10953 56.9858H2.05088C1.50714 56.9864 0.985836 57.2013 0.601353 57.5835C0.216869 57.9656 0.000603324 58.4838 0 59.0242V147.549C0.000604098 148.09 0.216869 148.608 0.601353 148.99C0.985836 149.372 1.50714 149.587 2.05088 149.588H164.949C165.493 149.587 166.014 149.372 166.399 148.99C166.783 148.608 166.999 148.09 167 147.549V59.0242C166.999 58.4838 166.783 57.9656 166.399 57.5835C166.014 57.2013 165.493 56.9864 164.949 56.9858ZM166.414 147.549C166.414 147.935 166.26 148.306 165.985 148.579C165.71 148.852 165.338 149.005 164.949 149.005H2.05088C1.66241 149.005 1.28989 148.852 1.0152 148.579C0.74051 148.306 0.58612 147.935 0.585965 147.549V59.0242C0.586496 58.6477 0.733441 58.2859 0.996076 58.0146C1.25871 57.7432 1.61671 57.5833 1.99523 57.5682L36.6228 71.8487L83.8751 91.3358C84.3866 91.5427 84.9597 91.5396 85.4689 91.3271L131.256 71.8924L165.008 57.5682C165.386 57.5844 165.743 57.7448 166.005 58.016C166.267 58.2872 166.413 58.6483 166.414 59.0242V147.549Z" fill="#3F3D56"/>
<path d="M78.569 67.2749C77.2958 67.2773 76.0563 66.8533 75.0375 66.0668L74.9744 66.018L61.6752 55.5321C61.0592 55.0462 60.5423 54.44 60.1539 53.7483C59.7654 53.0566 59.5131 52.2928 59.4113 51.5007C59.3095 50.7086 59.3602 49.9035 59.5605 49.1316C59.7607 48.3596 60.1067 47.6358 60.5786 47.0015C61.0506 46.3673 61.6392 45.8349 62.3109 45.4349C62.9825 45.0349 63.7242 44.775 64.4934 44.6702C65.2626 44.5653 66.0443 44.6175 66.7939 44.8238C67.5436 45.03 68.2464 45.3863 68.8623 45.8723L77.4766 52.6745L97.8334 25.3349C98.3055 24.7008 98.8943 24.1686 99.5661 23.7689C100.238 23.3691 100.98 23.1095 101.749 23.0049C102.518 22.9004 103.3 22.9529 104.049 23.1594C104.799 23.366 105.502 23.7225 106.117 24.2088L105.991 24.3857L106.121 24.2113C107.363 25.1944 108.175 26.6447 108.38 28.244C108.585 29.8433 108.166 31.4611 107.214 32.7423L83.2697 64.9003C82.7159 65.6413 82.0038 66.241 81.1886 66.6528C80.3734 67.0646 79.477 67.2775 78.569 67.2749Z" fill="#2BA500"/>
</svg>
