<svg width="15" height="15" viewBox="0 0 15 15" fill="none" xmlns="http://www.w3.org/2000/svg">
<path d="M7.5 14.0748C7.3967 14.0748 7.2934 14.0385 7.21055 13.966L7.19136 13.9492C6.5523 13.3901 5.95204 12.8786 5.37158 12.3839C3.81384 11.0565 2.46861 9.91016 1.53354 8.79805C0.487295 7.55372 0 6.39286 0 5.14473C0 3.99811 0.388682 2.92561 1.09438 2.1248C1.83425 1.2853 2.86061 0.822998 3.98438 0.822998C5.56488 0.822998 6.56552 1.76694 7.12661 2.55884C7.27222 2.76433 7.39603 2.97037 7.5 3.16426C7.60397 2.97037 7.72781 2.76433 7.87339 2.55884C8.43448 1.76697 9.43512 0.822998 11.0156 0.822998C12.1394 0.822998 13.1658 1.28533 13.9056 2.1248C14.6113 2.92561 15 3.99811 15 5.14473C15 6.39286 14.5127 7.55375 13.4665 8.79805C12.5314 9.91016 11.1862 11.0565 9.62851 12.3838C9.04796 12.8786 8.4477 13.3901 7.80864 13.9492L7.78945 13.966C7.7066 14.0386 7.6033 14.0748 7.5 14.0748ZM3.98438 1.7019C3.11657 1.7019 2.32441 2.05848 1.75377 2.70594C1.1896 3.34607 0.878906 4.21221 0.878906 5.14473C0.878906 7.40079 2.89292 9.11703 5.94152 11.7149C6.442 12.1413 6.95701 12.5802 7.5 13.0522C8.04302 12.5802 8.558 12.1413 9.05839 11.7149C12.1071 9.11703 14.1211 7.40079 14.1211 5.14473C14.1211 4.21221 13.8104 3.34607 13.2462 2.70591C12.6756 2.05848 11.8834 1.7019 11.0156 1.7019C9.81067 1.7019 9.03176 2.44423 8.59055 3.06696C8.19478 3.62551 7.98826 4.18851 7.91783 4.40466C7.85892 4.58557 7.69025 4.708 7.5 4.708C7.30975 4.708 7.14108 4.58557 7.08217 4.40466C7.01174 4.18854 6.80522 3.62551 6.40945 3.06699C5.96824 2.44423 5.18933 1.7019 3.98438 1.7019Z" fill="#C5002F"/>
</svg>
