<svg width="19" height="19" viewBox="0 0 19 19" fill="none" xmlns="http://www.w3.org/2000/svg">
<path d="M17.3036 7.80357H11.5357C11.3483 7.80357 11.1964 7.65165 11.1964 7.46429V1.69643C11.1964 0.759583 10.4368 0 9.5 0C8.56315 0 7.80357 0.759583 7.80357 1.69643V7.46429C7.80357 7.65165 7.65165 7.80357 7.46429 7.80357H1.69643C0.759583 7.80357 0 8.56315 0 9.5C0 10.4368 0.759583 11.1964 1.69643 11.1964H7.46429C7.65165 11.1964 7.80357 11.3483 7.80357 11.5357V17.3036C7.80357 18.2404 8.56315 19 9.5 19C10.4368 19 11.1964 18.2404 11.1964 17.3036V11.5357C11.1964 11.3483 11.3483 11.1964 11.5357 11.1964H17.3036C18.2404 11.1964 19 10.4368 19 9.5C19 8.56315 18.2404 7.80357 17.3036 7.80357Z" fill="#1ACC41"/>
</svg>
