<svg width="18" height="18" viewBox="0 0 18 18" fill="none" xmlns="http://www.w3.org/2000/svg">
<g clip-path="url(#clip0_473_192)">
<path d="M8.99987 0C5.33338 0 2.35059 2.98279 2.35059 6.64928C2.35059 7.85632 2.89192 9.15449 2.9146 9.20925C3.08944 9.62425 3.43442 10.2688 3.68318 10.6467L8.24224 17.5545C8.42881 17.8377 8.70495 18 8.99987 18C9.29478 18 9.57093 17.8377 9.7575 17.5549L14.3169 10.6467C14.5661 10.2688 14.9107 9.62425 15.0855 9.20925C15.1082 9.15488 15.6492 7.85671 15.6492 6.64928C15.6492 2.98279 12.6664 0 8.99987 0ZM14.3643 8.90573C14.2082 9.2777 13.8871 9.87731 13.6638 10.216L9.1043 17.1242C9.01434 17.2607 8.98579 17.2607 8.89583 17.1242L4.33637 10.216C4.11304 9.87731 3.79192 9.27731 3.63585 8.90534C3.6292 8.8893 3.13285 7.69439 3.13285 6.64928C3.13285 3.41421 5.7648 0.782268 8.99987 0.782268C12.2349 0.782268 14.8669 3.41421 14.8669 6.64928C14.8669 7.69595 14.3694 8.894 14.3643 8.90573Z" fill="#9C9C9C"/>
<path d="M8.99969 3.12939C7.0585 3.12939 5.47949 4.7088 5.47949 6.64961C5.47949 8.59042 7.0585 10.1698 8.99969 10.1698C10.9409 10.1698 12.5199 8.59042 12.5199 6.64961C12.5199 4.7088 10.9409 3.12939 8.99969 3.12939ZM8.99969 9.38755C7.49031 9.38755 6.26176 8.15939 6.26176 6.64961C6.26176 5.13983 7.49031 3.91166 8.99969 3.91166C10.5091 3.91166 11.7376 5.13983 11.7376 6.64961C11.7376 8.15939 10.5091 9.38755 8.99969 9.38755Z" fill="#9C9C9C"/>
</g>
<defs>
<clipPath id="clip0_473_192">
<rect width="18" height="18" fill="white"/>
</clipPath>
</defs>
</svg>
