<svg width="16" height="18" viewBox="0 0 16 18" fill="none" xmlns="http://www.w3.org/2000/svg">
<path d="M14.6777 18C14.9971 18 15.2584 17.7387 15.2584 17.4193C15.2584 17.1 14.9971 16.8387 14.6777 16.8387H13.5164V13.7264C13.5164 13.1371 13.2609 12.5768 12.8197 12.1906L9.92805 9.66189C9.73353 9.49348 9.62904 9.25834 9.62904 8.99995C9.62904 8.74155 9.73648 8.50642 9.92805 8.33801L12.8197 5.80928C13.2639 5.42314 13.5164 4.86284 13.5164 4.27347V1.16123H14.6777C14.9971 1.16123 15.2584 0.899934 15.2584 0.580568C15.2584 0.261202 14.997 0 14.6777 0H13.5164H2.48413H1.32285C1.00348 0 0.742188 0.261295 0.742188 0.580662C0.742188 0.900028 1.00348 1.16132 1.32285 1.16132H2.48413V4.55812C2.48413 5.15038 2.73962 5.71359 3.18963 6.09973L5.76768 8.3352C5.9622 8.50361 6.07254 8.74165 6.07254 9.00004C6.07254 9.25844 5.9651 9.49648 5.76768 9.66489L3.18963 11.8975C2.73962 12.2865 2.48413 12.8497 2.48413 13.442V16.8388H1.32285C1.00348 16.8388 0.742188 17.1001 0.742188 17.4194C0.742188 17.7388 1.00348 18.0001 1.32285 18.0001H2.48413H13.5164H14.6777V18ZM12.3551 16.8387H3.6454V13.4419C3.6454 13.1864 3.75574 12.9455 3.94736 12.7771L6.52541 10.5445C6.97252 10.1555 7.23092 9.59516 7.23092 9.0029C7.23092 8.41063 6.97542 7.84742 6.52541 7.46128L3.94736 5.22581C3.75574 5.0574 3.6454 4.81356 3.6454 4.55807V1.16128H12.3551V4.27352C12.3551 4.52611 12.2448 4.76705 12.0531 4.93546L9.16153 7.46418C8.72022 7.85032 8.46477 8.41063 8.46477 9C8.46477 9.58936 8.72026 10.1497 9.16153 10.5358L12.056 13.0645C12.2477 13.2329 12.3551 13.4739 12.3551 13.7265V16.8387H12.3551Z" fill="#9C9C9C"/>
<path d="M8.72849 10.7942C8.41782 10.5213 8.16238 10.1845 8.02298 9.79549C7.933 9.5458 7.89523 9.29326 7.88943 9.04356C7.88943 9.02906 7.88943 9 7.88943 9H7.80525V9.04066C7.79364 9.70261 7.50624 10.3268 7.00686 10.7623L4.42881 12.9978C4.30106 13.111 4.22559 13.2707 4.22559 13.442V15.9997C4.22559 16.142 4.34173 16.2581 4.48398 16.2581H11.5156C11.6579 16.2581 11.774 16.142 11.774 15.9997V13.7265C11.774 13.5552 11.7014 13.3955 11.5737 13.2823L8.72849 10.7942Z" fill="#9C9C9C"/>
</svg>
