<svg width="18" height="18" viewBox="0 0 18 18" fill="none" xmlns="http://www.w3.org/2000/svg">
<path d="M8.9857 4.57661C8.02202 4.57661 7.07999 4.44241 6.27873 4.19097C5.47746 3.93952 4.85295 3.58214 4.48417 3.164C4.11539 2.74587 4.0189 2.28577 4.20691 1.84188C4.39491 1.39799 4.85896 0.990256 5.54038 0.670231C6.2218 0.350205 7.08998 0.132265 8.03513 0.0439702C8.98029 -0.0443246 9.95997 0.00099149 10.8503 0.174188C11.7406 0.347385 12.5016 0.640683 13.037 1.01699C13.5723 1.3933 13.8581 1.83572 13.8581 2.28831C13.8572 2.89508 13.3436 3.47688 12.43 3.90593C11.5165 4.33499 10.2777 4.57621 8.9857 4.57661V4.57661ZM8.9857 0.516284C8.23858 0.516284 7.50824 0.620332 6.88704 0.815271C6.26583 1.01021 5.78166 1.28728 5.49575 1.61145C5.20984 1.93562 5.13504 2.29233 5.28079 2.63647C5.42655 2.98061 5.78632 3.29672 6.31461 3.54483C6.8429 3.79294 7.51598 3.9619 8.24874 4.03036C8.9815 4.09881 9.74103 4.06368 10.4313 3.9294C11.1215 3.79513 11.7115 3.56774 12.1266 3.27599C12.5416 2.98425 12.7632 2.64124 12.7632 2.29036C12.7632 1.81985 12.3652 1.3686 11.6568 1.0359C10.9484 0.703196 9.98755 0.516284 8.9857 0.516284V0.516284Z" fill="#9C9C9C"/>
<path d="M14.7864 12.4463H13.7123C13.5671 12.4463 13.4278 12.4192 13.3252 12.371C13.2225 12.3227 13.1648 12.2574 13.1648 12.1892C13.1648 12.121 13.2225 12.0556 13.3252 12.0074C13.4278 11.9591 13.5671 11.932 13.7123 11.932H14.7858C15.3471 11.9318 15.8853 11.8269 16.2822 11.6405C16.6791 11.4541 16.9023 11.2014 16.9029 10.9378V6.89263C16.902 6.59012 16.6459 6.30011 16.1906 6.08613C15.7353 5.87215 15.1179 5.75166 14.4738 5.75104H3.52456C2.88006 5.75138 2.26216 5.87176 1.80638 6.08576C1.3506 6.29977 1.09415 6.58994 1.09328 6.89263V10.9391C1.09459 11.2026 1.31836 11.4551 1.71553 11.6413C2.1127 11.8274 2.65085 11.932 3.21196 11.932H4.24666C4.39186 11.932 4.53111 11.9591 4.63378 12.0074C4.73644 12.0556 4.79412 12.121 4.79412 12.1892C4.79412 12.2574 4.73644 12.3227 4.63378 12.371C4.53111 12.4192 4.39186 12.4463 4.24666 12.4463H3.21196C2.36036 12.4459 1.54389 12.2868 0.941721 12.004C0.33955 11.7212 0.000869569 11.3377 0 10.9378V6.89263C0.00115833 6.45373 0.372832 6.03297 1.03353 5.72257C1.69423 5.41218 2.59004 5.2375 3.52456 5.23682H14.4738C15.4086 5.23729 16.3048 5.41189 16.9659 5.7223C17.6269 6.03272 17.9988 6.4536 18 6.89263V10.9391C17.9984 11.3389 17.6592 11.7222 17.0567 12.0047C16.4543 12.2873 15.6378 12.4461 14.7864 12.4463Z" fill="#9C9C9C"/>
<path d="M11.3466 18.0001C10.5792 17.9997 9.84348 17.8564 9.30086 17.6015C8.75824 17.3467 8.45302 17.0012 8.45215 16.6408V12.3565C8.45215 12.2883 8.50983 12.2229 8.61249 12.1747C8.71516 12.1265 8.85441 12.0994 8.99961 12.0994C9.1448 12.0994 9.28405 12.1265 9.38672 12.1747C9.48939 12.2229 9.54707 12.2883 9.54707 12.3565V16.6408C9.54707 16.8649 9.73666 17.0799 10.0741 17.2384C10.4116 17.3968 10.8693 17.4859 11.3466 17.4859C11.8238 17.4859 12.2815 17.3968 12.619 17.2384C12.9565 17.0799 13.1461 16.8649 13.1461 16.6408V8.51932C13.1461 8.45113 13.2037 8.38573 13.3064 8.33751C13.4091 8.2893 13.5483 8.26221 13.6935 8.26221C13.8387 8.26221 13.978 8.2893 14.0806 8.33751C14.1833 8.38573 14.241 8.45113 14.241 8.51932V16.6408C14.2401 17.0012 13.9349 17.3467 13.3923 17.6015C12.8496 17.8564 12.1139 17.9997 11.3466 18.0001Z" fill="#9C9C9C"/>
<path d="M6.65224 18.0001C5.88486 17.9997 5.14915 17.8564 4.60653 17.6015C4.06391 17.3467 3.75868 17.0012 3.75781 16.6408V8.51932C3.75781 8.45113 3.81549 8.38573 3.91816 8.33751C4.02083 8.2893 4.16008 8.26221 4.30527 8.26221C4.45047 8.26221 4.58972 8.2893 4.69239 8.33751C4.79506 8.38573 4.85274 8.45113 4.85274 8.51932V16.6408C4.85274 16.8649 5.04233 17.0799 5.3798 17.2384C5.71727 17.3968 6.17499 17.4859 6.65224 17.4859C7.1295 17.4859 7.58721 17.3968 7.92469 17.2384C8.26216 17.0799 8.45175 16.8649 8.45175 16.6408V12.3565C8.45175 12.2883 8.50943 12.2229 8.6121 12.1747C8.71477 12.1265 8.85402 12.0994 8.99921 12.0994C9.14441 12.0994 9.28366 12.1265 9.38633 12.1747C9.489 12.2229 9.54667 12.2883 9.54667 12.3565V16.6408C9.54581 17.0012 9.24058 17.3467 8.69795 17.6015C8.15533 17.8564 7.41963 17.9997 6.65224 18.0001V18.0001Z" fill="#9C9C9C"/>
</svg>
