<svg width="18" height="18" viewBox="0 0 18 18" fill="none" xmlns="http://www.w3.org/2000/svg">
<g clip-path="url(#clip0_471_69)">
<path d="M8.27148 14.9424C8.12587 14.9424 8.00781 15.0604 8.00781 15.2061V17.7365C8.00781 17.8821 8.12587 18.0002 8.27148 18.0002C8.4171 18.0002 8.53516 17.8821 8.53516 17.7365V15.2061C8.53516 15.0604 8.4171 14.9424 8.27148 14.9424Z" fill="#9C9C9C"/>
<path d="M9 13.2539C9.14562 13.2539 9.26367 13.1359 9.26367 12.9902C9.26367 12.8446 9.14562 12.7266 9 12.7266C8.85438 12.7266 8.73633 12.8446 8.73633 12.9902C8.73633 13.1359 8.85438 13.2539 9 13.2539Z" fill="#9C9C9C"/>
<path d="M9 14.8359C9.14562 14.8359 9.26367 14.7179 9.26367 14.5723C9.26367 14.4266 9.14562 14.3086 9 14.3086C8.85438 14.3086 8.73633 14.4266 8.73633 14.5723C8.73633 14.7179 8.85438 14.8359 9 14.8359Z" fill="#9C9C9C"/>
<path d="M9 16.418C9.14562 16.418 9.26367 16.2999 9.26367 16.1543C9.26367 16.0087 9.14562 15.8906 9 15.8906C8.85438 15.8906 8.73633 16.0087 8.73633 16.1543C8.73633 16.2999 8.85438 16.418 9 16.418Z" fill="#9C9C9C"/>
<path d="M9 18C9.14562 18 9.26367 17.882 9.26367 17.7363C9.26367 17.5907 9.14562 17.4727 9 17.4727C8.85438 17.4727 8.73633 17.5907 8.73633 17.7363C8.73633 17.882 8.85438 18 9 18Z" fill="#9C9C9C"/>
<path d="M7.50879 5.87175C7.36317 5.87175 7.24512 5.75369 7.24512 5.60807V5.01172C7.24512 4.8661 7.36317 4.74805 7.50879 4.74805C7.65441 4.74805 7.77246 4.8661 7.77246 5.01172V5.60807C7.77246 5.75373 7.65441 5.87175 7.50879 5.87175Z" fill="#9C9C9C"/>
<path d="M10.4902 5.87175C10.3446 5.87175 10.2266 5.75369 10.2266 5.60807V5.01172C10.2266 4.8661 10.3446 4.74805 10.4902 4.74805C10.6359 4.74805 10.7539 4.8661 10.7539 5.01172V5.60807C10.7539 5.75373 10.6359 5.87175 10.4902 5.87175Z" fill="#9C9C9C"/>
<path d="M8.9997 8.07395C8.99446 8.07395 8.98926 8.07391 8.98398 8.07387C8.67271 8.07061 8.4275 7.97125 8.27657 7.88846C8.14888 7.81843 8.10216 7.65819 8.17219 7.5305C8.24219 7.40281 8.40243 7.35606 8.53015 7.42612C8.6282 7.47988 8.7875 7.54446 8.9895 7.54657C9.20157 7.54889 9.36684 7.48227 9.46925 7.42612C9.59693 7.35602 9.75718 7.40285 9.82721 7.5305C9.89724 7.65819 9.85052 7.81843 9.72283 7.88846C9.56775 7.9735 9.3173 8.07395 8.9997 8.07395Z" fill="#9C9C9C"/>
<path d="M14.9978 11.3009C14.6602 10.8809 14.1843 10.5858 13.6579 10.4701L11.0677 9.90084C10.8678 9.85704 10.7227 9.67662 10.7227 9.4718V8.9602C11.699 8.37327 12.3537 7.30364 12.3537 6.08386V5.83608H12.4696C13.0171 5.83608 13.4626 5.39061 13.4626 4.84309C13.4626 4.29553 13.0171 3.85007 12.4696 3.85007H12.3537V1.96414C12.3523 0.882633 11.4577 -0.000421724 10.3895 1.51099e-07H7.61048C6.52746 1.51099e-07 5.64634 0.881121 5.64634 1.96414V3.85007H5.53047C4.98294 3.85007 4.53748 4.29553 4.53748 4.84309C4.53748 5.39061 4.98294 5.83608 5.53047 5.83608H5.64634V6.08386C5.64634 7.30364 6.30102 8.37327 7.27734 8.9602V9.4718C7.27734 9.67662 7.13225 9.85704 6.93211 9.90088L4.34215 10.4701C3.81572 10.5858 3.33984 10.8809 3.00217 11.3009C2.66449 11.7209 2.47852 12.249 2.47852 12.7881V17.7363C2.47852 17.8819 2.59657 18 2.74219 18C2.8878 18 3.00586 17.8819 3.00586 17.7363V16.418H5.22267V17.7363C5.22267 17.8819 5.34073 18 5.48634 18C5.63196 18 5.75002 17.8819 5.75002 17.7363V15.5611C5.75002 15.4155 5.63196 15.2974 5.48634 15.2974C5.34073 15.2974 5.22267 15.4155 5.22267 15.5611V15.8906H3.00586V12.7881C3.00586 11.928 3.61547 11.1697 4.45535 10.9851L6.16581 10.6092L7.52593 12.3877C7.63752 12.5341 7.82522 12.6098 8.00786 12.5814V13.9754C8.00786 14.121 8.12591 14.2391 8.27153 14.2391C8.41714 14.2391 8.5352 14.121 8.5352 13.9754V12.1946L8.99993 11.7299L9.46473 12.1947V17.7363C9.46473 17.8819 9.58278 18 9.7284 18C9.87402 18 9.99207 17.8819 9.99207 17.7363V12.5814C10.1736 12.6095 10.3621 12.5347 10.4739 12.3877L11.8341 10.6092L13.5446 10.9851C14.3845 11.1697 14.9941 11.928 14.9941 12.7881V15.8906H12.7773V15.5611C12.7773 15.4155 12.6592 15.2974 12.5136 15.2974C12.368 15.2974 12.2499 15.4155 12.2499 15.5611V17.7363C12.2499 17.8819 12.368 18 12.5136 18C12.6592 18 12.7773 17.8819 12.7773 17.7363V16.418H14.9941V17.7363C14.9941 17.8819 15.1122 18 15.2578 18C15.4034 18 15.5215 17.8819 15.5215 17.7363V12.7881C15.5215 12.249 15.3355 11.7209 14.9978 11.3009V11.3009ZM12.9352 4.84309C12.9352 5.09983 12.7263 5.30873 12.4695 5.30873H12.3537V4.37741H12.4695C12.7263 4.37741 12.9352 4.58631 12.9352 4.84309ZM11.8263 1.96414V3.74091C11.5718 3.63382 11.3339 3.49281 11.1168 3.31808C10.8384 3.09403 10.5992 2.81556 10.4169 2.50601C10.6446 2.24652 10.8615 1.97466 11.063 1.69552C11.2144 1.48591 11.3587 1.26889 11.4954 1.04794C11.7019 1.29684 11.8263 1.61624 11.8263 1.96414V1.96414ZM5.53047 5.30873C5.27372 5.30873 5.06482 5.09983 5.06482 4.84309C5.06482 4.58631 5.27372 4.37741 5.53047 4.37741H5.64634V5.30873H5.53047ZM6.17368 6.08386V4.36897C6.74209 4.34 7.29854 4.24157 7.83137 4.07549C7.97041 4.03218 8.04797 3.88434 8.00466 3.7453C7.96131 3.60626 7.81341 3.5287 7.67447 3.57202C7.1923 3.72227 6.68862 3.8122 6.17368 3.84061V1.96414C6.17368 1.1719 6.81824 0.527344 7.61048 0.527344H10.3895C10.642 0.527344 10.8794 0.593051 11.0858 0.707906C10.9446 0.939937 10.7938 1.16757 10.6355 1.38688C10.1178 2.10396 9.51128 2.70236 8.73158 3.12581C8.60361 3.19532 8.55622 3.35538 8.62569 3.48335C8.69516 3.61132 8.8553 3.65875 8.98323 3.58924C9.3522 3.38889 9.70225 3.15119 10.0274 2.88039C10.2326 3.20182 10.4908 3.49123 10.7862 3.72892C11.0994 3.98095 11.4485 4.17477 11.8263 4.30657V6.08386C11.8263 7.6423 10.5584 8.91017 9 8.91017C7.44156 8.91017 6.17368 7.6423 6.17368 6.08386V6.08386ZM9 9.43752C9.42089 9.43752 9.82382 9.35937 10.1953 9.21716V9.4718C10.1953 9.56686 10.2103 9.65925 10.2368 9.74724L8.99996 10.9841L7.76313 9.74731C7.78971 9.65932 7.80469 9.56693 7.80469 9.47183V9.21719C8.17618 9.35937 8.57911 9.43752 9 9.43752V9.43752ZM8.08632 11.8978C8.08555 11.8985 8.08478 11.8993 8.084 11.9001L7.93266 12.0514L6.73418 10.4843L7.0451 10.416C7.2065 10.3806 7.35142 10.3045 7.47056 10.2005L8.62706 11.357L8.08632 11.8978ZM10.0673 12.0514L9.9167 11.9008C9.91547 11.8996 9.9142 11.8983 9.91294 11.8971L9.37287 11.357L10.5294 10.2005C10.6485 10.3045 10.7934 10.3806 10.9547 10.416L11.2657 10.4843L10.0673 12.0514Z" fill="#9C9C9C"/>
</g>
<defs>
<clipPath id="clip0_471_69">
<rect width="18" height="18" fill="white"/>
</clipPath>
</defs>
</svg>
