<svg width="119" height="238" viewBox="0 0 119 238" fill="none" xmlns="http://www.w3.org/2000/svg">
<g clip-path="url(#clip0_39_1152)">
<path d="M172.826 95.2784C176.761 102.778 185.3 171.949 182.293 221.116C182.028 225.602 179.433 229.62 175.453 231.707C171.473 233.793 166.692 233.642 162.851 231.309C120.702 205.818 68.6693 159.45 64.7349 151.95L172.826 95.2784Z" fill="#F0C419"/>
<path d="M172.811 95.3018C168.693 87.448 141.162 93.7658 111.318 109.413C81.4735 125.06 60.618 144.111 64.7357 151.965C68.8534 159.819 96.3849 153.501 126.229 137.854C156.073 122.207 176.929 103.155 172.811 95.3018Z" fill="#D25627"/>
<path d="M101.937 135.012C101.551 136.254 100.454 137.14 99.1589 137.256C97.8639 137.373 96.6262 136.698 96.0239 135.545L82.6046 109.946C75.3821 96.1748 67.7757 92.334 57.941 97.4877C53.2773 99.4842 49.9535 103.721 49.1245 108.726C48.785 112.332 49.497 115.96 51.1744 119.17C51.9609 120.736 51.3475 122.643 49.7957 123.456C48.244 124.27 46.3266 123.69 45.4862 122.152C43.1876 117.777 42.2364 112.82 42.7526 107.905C43.7968 100.801 48.4018 94.7251 54.9587 91.7996C68.1695 84.8732 79.386 89.9752 88.2928 106.963L101.717 132.558C102.114 133.314 102.193 134.197 101.937 135.012Z" fill="#955BA5"/>
<path d="M159.488 64.9462C159.1 66.186 158.005 67.0705 156.711 67.1875C155.418 67.3044 154.181 66.6307 153.578 65.4805C151.811 61.5074 148.42 58.4873 144.269 57.1919C140.118 55.8966 135.611 56.4515 131.898 58.7148C127.087 60.6763 123.818 65.212 123.479 70.3965C123.644 75.9377 125.241 81.3418 128.115 86.0822L140.046 108.839C140.87 110.41 140.264 112.35 138.693 113.174C137.123 113.997 135.182 113.392 134.358 111.821L122.427 89.0645C119.005 83.3259 117.155 76.7874 117.062 70.1066C117.45 62.6243 122.042 56.0074 128.916 53.0267C144.63 44.7854 155.39 55.1014 159.269 62.4992C159.666 63.2527 159.745 64.1341 159.488 64.9462Z" fill="#FF5364"/>
<path d="M90.9431 86.3751C90.5564 87.6133 89.4628 88.4974 88.171 88.616C86.8793 88.7346 85.643 88.0646 85.0373 86.9175C84.4785 85.8616 71.0826 61.1573 47.0406 70.5442C45.958 71.0316 44.6949 70.8821 43.756 70.1553C42.8172 69.4286 42.3559 68.2432 42.5565 67.073C42.757 65.9028 43.5868 64.9387 44.7141 64.5661C74.1441 53.0723 90.5803 83.6241 90.7325 83.9341C91.1253 84.6872 91.2011 85.5659 90.9431 86.3751Z" fill="#F0C419"/>
<path d="M109.266 56.8567C110.852 51.7769 108.019 46.3738 102.939 44.7885C97.8592 43.2032 92.456 46.036 90.8707 51.1158C89.2854 56.1956 92.1182 61.5988 97.198 63.1841C102.278 64.7694 107.681 61.9365 109.266 56.8567Z" fill="#FF5364"/>
<path d="M42.882 86.6075C43.9388 83.221 42.0503 79.6189 38.6637 78.562C35.2772 77.5052 31.6751 79.3937 30.6182 82.7803C29.5614 86.1668 31.4499 89.7689 34.8365 90.8258C38.223 91.8826 41.8251 89.9941 42.882 86.6075Z" fill="#3B97D3"/>
<path d="M63.3663 42.5322C62.8378 44.2255 61.0368 45.1697 59.3435 44.6413L56.2776 43.6845C54.5843 43.156 53.6401 41.355 54.1685 39.6617C54.6969 37.9685 56.498 37.0242 58.1912 37.5526L61.2572 38.5095C62.9504 39.0379 63.8947 40.8389 63.3663 42.5322Z" fill="#955BA5"/>
<path d="M72.3685 35.248L71.4117 38.3139C70.8832 40.0072 69.0822 40.9514 67.3889 40.423C65.6957 39.8946 64.7514 38.0935 65.2798 36.4003L66.2366 33.3343C66.7651 31.6411 68.5661 30.6968 70.2594 31.2252C71.9527 31.7537 72.8969 33.5547 72.3685 35.248Z" fill="#955BA5"/>
<path d="M78.6959 47.3163C78.1674 49.0095 76.3664 49.9538 74.6731 49.4254L71.6072 48.4685C69.9139 47.9401 68.9696 46.1391 69.4981 44.4458C70.0265 42.7525 71.8276 41.8082 73.5208 42.3367L76.5868 43.2935C78.28 43.8219 79.2243 45.623 78.6959 47.3163Z" fill="#955BA5"/>
<path d="M67.5846 50.5777L66.6277 53.6436C66.0993 55.3369 64.2983 56.2812 62.605 55.7527C60.9117 55.2243 59.9674 53.4232 60.4959 51.73L61.4527 48.664C61.9811 46.9708 63.7822 46.0265 65.4755 46.5549C67.1687 47.0834 68.113 48.8844 67.5846 50.5777Z" fill="#955BA5"/>
<path d="M123.142 34.2706C122.613 35.9639 120.812 36.9081 119.119 36.3797L116.053 35.4229C114.36 34.8944 113.415 33.0934 113.944 31.4001C114.472 29.7069 116.273 28.7626 117.967 29.291L121.033 30.2479C122.726 30.7763 123.67 32.5773 123.142 34.2706Z" fill="#3B97D3"/>
<path d="M178.134 123.703C179.273 132.773 180.331 143.398 181.178 154.698C179.79 155.914 178.25 157.183 176.599 158.484C170.576 163.31 164.249 167.741 157.655 171.75C154.35 173.713 150.864 175.721 147.123 177.682C142.829 179.942 138.689 181.925 134.702 183.63C126.344 187.302 117.71 190.312 108.88 192.63C100.068 185.506 91.9297 178.592 85.1276 172.466C92.4526 171.186 99.6707 169.356 106.72 166.991C115.222 164.188 123.509 160.77 131.513 156.762C132.732 156.2 133.938 155.567 135.185 154.913C141.438 151.642 147.501 148.019 153.343 144.06C162.264 138.117 170.569 131.297 178.134 123.703Z" fill="#FF5364"/>
<path d="M131.513 156.762C139.161 163.423 148.043 168.515 157.655 171.75C154.35 173.713 150.864 175.721 147.123 177.682C142.829 179.942 138.689 181.925 134.702 183.63C124.339 180.048 114.817 174.385 106.72 166.991C115.222 164.188 123.509 160.77 131.513 156.762Z" fill="#B49ACA"/>
</g>
<defs>
<clipPath id="clip0_39_1152">
<rect width="189.494" height="189.494" fill="white" transform="translate(0 180.89) rotate(-72.6678)"/>
</clipPath>
</defs>
</svg>
