<svg width="87" height="89" viewBox="0 0 87 89" fill="none" xmlns="http://www.w3.org/2000/svg">
<path d="M44.1134 36.7686C32.684 25.3407 20.1516 19.3436 16.1201 23.3736C15.6777 23.837 15.3522 24.399 15.1704 25.0133L15.1056 24.9484L11.2554 40.7264L7.42154 56.4572L2.8769 75.084L0 86.8806L17.0328 80.4353L38.6973 72.2381L55.9808 65.6983L55.9602 65.6777C56.5388 65.4932 57.0681 65.1802 57.5085 64.762C61.54 60.7305 55.5429 48.1981 44.1134 36.7686Z" fill="#DD1C4B"/>
<path d="M44.1133 36.7639C32.6843 25.3349 20.1515 19.3376 16.1206 23.3686C12.0896 27.3996 18.0869 39.9323 29.5159 51.3614C40.9449 62.7904 53.4777 68.7877 57.5087 64.7567C61.5396 60.7257 55.5423 48.193 44.1133 36.7639Z" fill="#D1E3EE"/>
<path d="M54.4119 66.2086C52.3482 66.2447 50.3008 65.8384 48.4074 65.0171L34.2809 70.3624L12.6091 78.5522L0.987966 82.9494L0 87.0001L17.0328 80.5547L38.6973 72.3575L54.5593 66.356L54.4119 66.2086Z" fill="#B21D48"/>
<path d="M72.2543 54.5594C72.0777 54.5588 71.9026 54.5273 71.7367 54.4665C64.2508 51.662 56.1589 50.8757 48.2733 52.1868L43.0061 53.0642C42.1998 53.1792 41.453 52.6188 41.3379 51.8126C41.2268 51.0337 41.7468 50.3047 42.5194 50.1563L47.7881 49.2716C56.1847 47.8764 64.8005 48.7131 72.7719 51.6972C73.5383 51.9726 73.9362 52.8172 73.6608 53.5836C73.4481 54.1756 72.8834 54.5675 72.2543 54.5594Z" fill="#FFBF41"/>
<path d="M45.7118 45.7118C44.8975 45.707 44.2411 45.0429 44.2459 44.2286C44.2492 43.6664 44.5718 43.1551 45.0777 42.9101L76.0438 28.1644C76.7793 27.8142 77.6592 28.1264 78.0094 28.8619C78.3596 29.5973 78.0474 30.4773 77.312 30.8275L46.3459 45.5732C46.1475 45.6659 45.9309 45.7133 45.7118 45.7118Z" fill="#FFBF41"/>
<path d="M28.4681 42.7627C28.2736 42.7631 28.081 42.7246 27.9019 42.6492C27.1502 42.3357 26.795 41.4723 27.1085 40.7206V40.7204L29.2526 35.5756C32.5514 27.6931 33.3206 18.9806 31.4541 10.642C31.2628 9.85037 31.7496 9.05373 32.5411 8.8624C33.3327 8.67108 34.1294 9.15787 34.3207 9.94935C34.3249 9.96686 34.3288 9.98437 34.3325 10.0021C36.332 18.9345 35.5075 28.2675 31.9732 36.7111L29.8277 41.8559C29.5987 42.4046 29.0627 42.7622 28.4681 42.7627Z" fill="#FFBF41"/>
<path d="M79.6271 60.4576C81.2559 60.4576 82.5763 59.1373 82.5763 57.5085C82.5763 55.8797 81.2559 54.5593 79.6271 54.5593C77.9984 54.5593 76.678 55.8797 76.678 57.5085C76.678 59.1373 77.9984 60.4576 79.6271 60.4576Z" fill="#D5557E"/>
<path d="M44.2372 19.1695C45.866 19.1695 47.1864 17.8492 47.1864 16.2204C47.1864 14.5916 45.866 13.2712 44.2372 13.2712C42.6085 13.2712 41.2881 14.5916 41.2881 16.2204C41.2881 17.8492 42.6085 19.1695 44.2372 19.1695Z" fill="#DD95C1"/>
<path d="M30.9661 5.89831C29.3373 5.89831 28.017 4.57801 28.017 2.94915C28.017 1.3203 29.3373 0 30.9661 0C32.595 0 33.9153 1.3203 33.9153 2.94915C33.9153 4.57801 32.595 5.89831 30.9661 5.89831Z" fill="#7FCCCB"/>
<path d="M72.2541 11.7967C71.4398 11.7967 70.7795 11.1364 70.7795 10.3221V8.8475C70.7795 8.03317 71.4398 7.37292 72.2541 7.37292C73.0685 7.37292 73.7287 8.03317 73.7287 8.8475V10.3221C73.7287 11.1364 73.0686 11.7967 72.2541 11.7967Z" fill="#2276BB"/>
<path d="M72.2541 4.42373C71.4398 4.42373 70.7795 3.76349 70.7795 2.94915V1.47458C70.7795 0.660242 71.4398 0 72.2541 0C73.0685 0 73.7287 0.660242 73.7287 1.47458V2.94915C73.7287 3.76349 73.0686 4.42373 72.2541 4.42373Z" fill="#2276BB"/>
<path d="M76.6779 7.37298H75.2033C74.389 7.37298 73.7288 6.71274 73.7288 5.8984C73.7288 5.08407 74.389 4.42383 75.2033 4.42383H76.6779C77.4922 4.42383 78.1525 5.08407 78.1525 5.8984C78.1525 6.71274 77.4924 7.37298 76.6779 7.37298Z" fill="#2276BB"/>
<path d="M69.305 7.37298H67.8304C67.0161 7.37298 66.3558 6.71274 66.3558 5.8984C66.3558 5.08407 67.0161 4.42383 67.8304 4.42383H69.305C70.1193 4.42383 70.7796 5.08407 70.7796 5.8984C70.7796 6.71274 70.1195 7.37298 69.305 7.37298Z" fill="#2276BB"/>
<path d="M11.7052 42.7627C11.54 42.1315 11.3925 41.4945 11.2554 40.8457L7.42151 56.5765L7.71642 60.173C8.35916 67.8406 11.653 75.0446 17.0313 80.5472L38.6973 72.3574C38.5793 72.3205 38.4569 72.294 38.339 72.2542C25.2014 67.3282 15.2714 56.3326 11.7052 42.7627Z" fill="white"/>
<path d="M38.6973 72.3575C38.5794 72.3206 38.457 72.2941 38.339 72.2543C36.9197 71.717 35.5296 71.1052 34.1748 70.4214L14.6603 77.8046C15.4001 78.7642 16.1922 79.6823 17.0329 80.5547L38.6973 72.3575Z" fill="#F6F6E7"/>
<path d="M61.9322 17.6639V25.0678H54.5283V17.6639H61.9322Z" fill="#C9DA53"/>
<path d="M35.3899 44.2373C34.5755 44.2371 33.9155 43.5766 33.9156 42.7623C33.9158 42.3446 34.093 41.9467 34.4034 41.6671L49.1491 28.3959C49.7649 27.863 50.6961 27.9303 51.229 28.5461C51.7471 29.1448 51.7 30.0457 51.1221 30.5871L36.3763 43.8583C36.1058 44.1021 35.7543 44.2371 35.3899 44.2373Z" fill="#FFBF41"/>
<path d="M78.1526 38.339C77.3382 38.339 76.678 37.6788 76.678 36.8644V35.3899C76.678 34.5755 77.3382 33.9153 78.1526 33.9153C78.9669 33.9153 79.6271 34.5755 79.6271 35.3899V36.8644C79.6271 37.6788 78.9671 38.339 78.1526 38.339Z" fill="#FFDB43"/>
<path d="M83.3667 36.1787C82.9754 36.1798 82.5999 36.0243 82.3242 35.7467L81.2816 34.7041C80.7159 34.1184 80.732 33.1848 81.3178 32.6191C81.8892 32.0672 82.7951 32.0672 83.3667 32.6191L84.4092 33.6616C84.985 34.2376 84.9848 35.1712 84.4088 35.747C84.1325 36.0233 83.7576 36.1787 83.3667 36.1787Z" fill="#FFDB43"/>
<path d="M85.5254 30.9661H84.0509C83.2365 30.9661 82.5763 30.3059 82.5763 29.4915C82.5763 28.6772 83.2365 28.017 84.0509 28.017H85.5254C86.3398 28.017 87 28.6772 87 29.4915C87 30.3059 86.34 30.9661 85.5254 30.9661Z" fill="#FFDB43"/>
<path d="M82.3242 26.796C81.5099 26.7959 80.8498 26.1356 80.85 25.3211C80.85 24.9301 81.0054 24.5552 81.2817 24.2789L82.3242 23.2364C82.91 22.6705 83.8434 22.6868 84.4092 23.2725C84.9611 23.8439 84.9611 24.7499 84.4092 25.3215L83.3667 26.364C83.0902 26.6405 82.7153 26.796 82.3242 26.796Z" fill="#FFDB43"/>
<path d="M78.1526 25.0679C77.3382 25.0679 76.678 24.4077 76.678 23.5933V22.1187C76.678 21.3044 77.3382 20.6442 78.1526 20.6442C78.9669 20.6442 79.6271 21.3044 79.6271 22.1187V23.5933C79.6271 24.4077 78.9671 25.0679 78.1526 25.0679Z" fill="#FFDB43"/>
<path d="M73.9809 26.796C73.5898 26.796 73.2149 26.6405 72.9384 26.364L71.8959 25.3215C71.3302 24.7357 71.3462 23.8021 71.932 23.2364C72.5034 22.6845 73.4094 22.6845 73.9809 23.2364L75.0235 24.2789C75.5993 24.8549 75.5991 25.7885 75.0231 26.3643C74.7468 26.6406 74.3719 26.796 73.9809 26.796Z" fill="#FFDB43"/>
<path d="M7.37288 1.47461L9.6511 6.09151L14.7458 6.83174L11.0593 10.4253L11.9293 15.4993L7.37288 13.1031L2.81644 15.4993L3.68644 10.4253L0 6.83174L5.09466 6.09151L7.37288 1.47461Z" fill="#FFDB43"/>
<path d="M86.534 79.8719C85.8327 77.3863 84.2178 75.258 82.0129 73.9132L81.4054 73.0019C77.999 67.9078 72.6424 64.444 66.5992 63.4274C65.793 63.3124 65.0461 63.8728 64.9311 64.679C64.8199 65.4579 65.3399 66.1869 66.1126 66.3353C70.4714 67.0752 74.4438 69.2896 77.3651 72.6082C74.909 73.05 72.7609 74.5251 71.4668 76.6588C69.8787 79.5031 70.897 83.0961 73.7413 84.6842C76.5856 86.2723 80.1786 85.2539 81.7667 82.4097C82.3733 81.2387 82.7008 79.9431 82.7237 78.6244C84.2926 80.9032 84.4182 83.8791 83.0466 86.2819C82.6312 86.9823 82.8621 87.887 83.5625 88.3024C84.263 88.7179 85.1676 88.4869 85.5831 87.7865C85.5964 87.764 85.6091 87.7414 85.6212 87.7181C86.9609 85.3295 87.2895 82.5042 86.534 79.8719ZM79.195 80.9705C78.408 82.3966 76.614 82.9145 75.1881 82.1275C73.762 81.3404 73.244 79.5464 74.0311 78.1205C74.0355 78.1126 74.0399 78.1045 74.0443 78.0965C74.9145 76.6717 76.3823 75.7166 78.0375 75.4983C78.2939 75.4913 78.5477 75.5503 78.7748 75.6694C80.0193 76.3639 80.0857 79.375 79.195 80.9705Z" fill="#2BB3CE"/>
</svg>
