<svg width="52" height="52" viewBox="0 0 52 52" fill="none" xmlns="http://www.w3.org/2000/svg">
<path d="M4.1514 12.2717C4.1515 12.2714 3.36672 10.0412 3.36672 10.0412C3.0469 9.13055 2.05583 8.6564 1.15457 8.97876C0.252453 9.301 -0.219811 10.2987 0.100111 11.2077L2.22001 17.2327C2.49752 18.018 3.32186 18.4885 4.12928 18.3735C4.12928 18.3736 10.7133 17.3043 10.7133 17.3043C11.6585 17.1508 12.3008 16.2538 12.1485 15.3022C11.9963 14.3506 11.1025 13.6975 10.1615 13.856L6.92447 14.3813C10.9324 7.64172 18.1647 3.43462 26.1332 3.43462C38.482 3.43462 48.529 13.5577 48.529 26C48.529 26.9653 49.3042 27.7463 50.2621 27.7463C51.2201 27.7463 51.9954 26.9653 51.9954 26C51.7757 -0.202212 17.8923 -9.8037 4.1514 12.2717V12.2717Z" fill="#C5002F"/>
<path d="M49.7745 34.7675C49.4999 33.9979 48.6705 33.5032 47.8653 33.6266L41.2829 34.6959C40.3385 34.8494 39.6954 35.7464 39.8477 36.698C40 37.6495 40.8853 38.2994 41.8348 38.1441L45.0692 37.6188C41.063 44.3585 33.8307 48.5657 25.8622 48.5657C13.5133 48.5657 3.46635 38.4426 3.46635 26.0003C3.46635 25.0349 2.69036 24.2539 1.73323 24.2539C0.7761 24.2539 0 25.0349 0 26.0003C0.218781 52.2024 34.1044 61.8039 47.8438 39.7286C48.3286 40.8663 48.5912 43.2063 50.2619 43.122C51.4286 43.1404 52.3111 41.9018 51.8953 40.7925L49.7745 34.7675Z" fill="#C5002F"/>
<path d="M25.9974 12.9351C21.9361 12.9351 18.6315 16.2639 18.6315 20.3552V22.1031H16.3592C15.402 22.1031 14.626 22.8841 14.626 23.8495V37.3185C14.626 38.2837 15.402 39.0647 16.3592 39.0647H35.6364C36.5945 39.0647 37.3696 38.2837 37.3696 37.3185V23.8495C37.3696 22.8842 36.5945 22.1031 35.6364 22.1031H33.3633V20.3552C33.3633 16.2639 30.0594 12.9351 25.9974 12.9351ZM22.0977 20.3552C22.0977 18.1894 23.847 16.4277 25.9974 16.4277C28.1469 16.4277 29.8971 18.1894 29.8971 20.3552V22.1031H22.0977V20.3552ZM33.9033 25.5957V35.5721H18.0923V25.5957H33.9033Z" fill="#C5002F"/>
</svg>
