<svg width="18" height="18" viewBox="0 0 18 18" fill="none" xmlns="http://www.w3.org/2000/svg">
<g clip-path="url(#clip0_473_138)">
<path d="M9.57839 10.8898H12.797C12.9213 10.8898 13.0219 10.7892 13.0219 10.6647C13.0219 10.5405 12.9213 10.4397 12.797 10.4397H9.57839C9.45411 10.4397 9.35352 10.5405 9.35352 10.6647C9.35352 10.7892 9.45411 10.8898 9.57839 10.8898Z" fill="#A6A6A6"/>
<path d="M5.31294 8.7749C5.18866 8.7749 5.08789 8.8755 5.08789 8.99995V9.58549C5.08789 9.70977 5.18866 9.81053 5.31294 9.81053C5.43722 9.81053 5.53782 9.70977 5.53782 9.58549V8.99995C5.53782 8.8755 5.43722 8.7749 5.31294 8.7749Z" fill="#A6A6A6"/>
<path d="M6.64009 8.7749C6.5158 8.7749 6.41504 8.8755 6.41504 8.99995V9.58549C6.41504 9.70977 6.5158 9.81053 6.64009 9.81053C6.76437 9.81053 6.86514 9.70977 6.86514 9.58549V8.99995C6.86514 8.8755 6.76437 8.7749 6.64009 8.7749Z" fill="#A6A6A6"/>
<path d="M5.31294 10.4397C5.18866 10.4397 5.08789 10.5405 5.08789 10.6647V11.2506C5.08789 11.3749 5.18866 11.4755 5.31294 11.4755C5.43722 11.4755 5.53782 11.3749 5.53782 11.2506V10.6647C5.53782 10.5405 5.43722 10.4397 5.31294 10.4397V10.4397Z" fill="#A6A6A6"/>
<path d="M6.64009 10.4397C6.5158 10.4397 6.41504 10.5405 6.41504 10.6647V11.2506C6.41504 11.3749 6.5158 11.4755 6.64009 11.4755C6.76437 11.4755 6.86514 11.3749 6.86514 11.2506V10.6647C6.86514 10.5405 6.76437 10.4397 6.64009 10.4397V10.4397Z" fill="#A6A6A6"/>
<path d="M5.31294 12.1045C5.18866 12.1045 5.08789 12.2051 5.08789 12.3295V12.9151C5.08789 13.0394 5.18866 13.1401 5.31294 13.1401C5.43722 13.1401 5.53782 13.0394 5.53782 12.9151V12.3295C5.53782 12.2051 5.43722 12.1045 5.31294 12.1045Z" fill="#A6A6A6"/>
<path d="M6.64009 12.1045C6.5158 12.1045 6.41504 12.2051 6.41504 12.3295V12.9151C6.41504 13.0394 6.5158 13.1401 6.64009 13.1401C6.76437 13.1401 6.86514 13.0394 6.86514 12.9151V12.3295C6.86514 12.2051 6.76437 12.1045 6.64009 12.1045Z" fill="#A6A6A6"/>
<path d="M5.31294 13.7693C5.18866 13.7693 5.08789 13.8701 5.08789 13.9943V14.5799C5.08789 14.7043 5.18866 14.8049 5.31294 14.8049C5.43722 14.8049 5.53782 14.7043 5.53782 14.5799V13.9943C5.53782 13.8701 5.43722 13.7693 5.31294 13.7693V13.7693Z" fill="#A6A6A6"/>
<path d="M6.64009 13.7693C6.5158 13.7693 6.41504 13.8701 6.41504 13.9943V14.5799C6.41504 14.7043 6.5158 14.8049 6.64009 14.8049C6.76437 14.8049 6.86514 14.7043 6.86514 14.5799V13.9943C6.86514 13.8701 6.76437 13.7693 6.64009 13.7693V13.7693Z" fill="#A6A6A6"/>
<path d="M5.31294 15.4341C5.18866 15.4341 5.08789 15.5347 5.08789 15.659V16.2448C5.08789 16.3691 5.18866 16.4699 5.31294 16.4699C5.43722 16.4699 5.53782 16.3691 5.53782 16.2448V15.659C5.53782 15.5347 5.43722 15.4341 5.31294 15.4341Z" fill="#A6A6A6"/>
<path d="M6.64009 15.4341C6.5158 15.4341 6.41504 15.5347 6.41504 15.659V16.2448C6.41504 16.3691 6.5158 16.4699 6.64009 16.4699C6.76437 16.4699 6.86514 16.3691 6.86514 16.2448V15.659C6.86514 15.5347 6.76437 15.4341 6.64009 15.4341Z" fill="#A6A6A6"/>
<path d="M9.57839 12.2397H12.797C12.9213 12.2397 13.0219 12.1391 13.0219 12.0147C13.0219 11.8904 12.9213 11.7898 12.797 11.7898H9.57839C9.45411 11.7898 9.35352 11.8904 9.35352 12.0147C9.35352 12.1391 9.45411 12.2397 9.57839 12.2397Z" fill="#A6A6A6"/>
<path d="M9.57839 13.5896H12.797C12.9213 13.5896 13.0219 13.489 13.0219 13.3647C13.0219 13.2402 12.9213 13.1396 12.797 13.1396H9.57839C9.45411 13.1396 9.35352 13.2402 9.35352 13.3647C9.35352 13.489 9.45411 13.5896 9.57839 13.5896Z" fill="#A6A6A6"/>
<path d="M9.57839 8.1677H12.797C12.9213 8.1677 13.0219 8.0671 13.0219 7.94265C13.0219 7.81837 12.9213 7.71777 12.797 7.71777H9.57839C9.45411 7.71777 9.35352 7.81837 9.35352 7.94265C9.35352 8.0671 9.45411 8.1677 9.57839 8.1677Z" fill="#A6A6A6"/>
<path d="M9.57839 9.51755H12.797C12.9213 9.51755 13.0219 9.41696 13.0219 9.29268C13.0219 9.16822 12.9213 9.06763 12.797 9.06763H9.57839C9.45411 9.06763 9.35352 9.16822 9.35352 9.29268C9.35352 9.41696 9.45411 9.51755 9.57839 9.51755Z" fill="#A6A6A6"/>
<path d="M18.0001 12.7057C18.0001 11.9875 17.4157 11.4031 16.6977 11.4031C15.9796 11.4031 15.3953 11.9875 15.3953 12.7057C15.3953 13.1984 15.6706 13.628 16.0752 13.8493C15.6706 14.0704 15.3953 14.5001 15.3953 14.9929C15.3953 15.6341 15.8617 16.1672 16.4726 16.2744V17.55H14.4395V3.23444C14.4395 3.15874 14.4015 3.08853 14.3385 3.04665C14.2755 3.00476 14.1955 2.99772 14.1264 3.02742L10.919 4.39093V2.39056C10.919 2.26627 10.8183 2.16568 10.6942 2.16568H8.57449V0.225048C8.57449 0.100594 8.47372 0 8.34944 0C8.22533 0 8.12456 0.100594 8.12456 0.225048V2.16568H5.93159C5.8073 2.16568 5.70671 2.26627 5.70671 2.39056V7.24222H3.78548C3.66137 7.24222 3.5606 7.34282 3.5606 7.46727V17.55H1.52727V16.2744C2.13839 16.1672 2.60462 15.6341 2.60462 14.9929C2.60462 14.5001 2.32944 14.0704 1.92467 13.8493C2.32944 13.628 2.60462 13.1984 2.60462 12.7057C2.60462 11.9875 2.02045 11.4031 1.30239 11.4031C0.584335 11.4031 0 11.9875 0 12.7057C0 13.1984 0.275173 13.628 0.679951 13.8493C0.275173 14.0704 0 14.5001 0 14.9929C0 15.6341 0.466232 16.1672 1.07735 16.2744V17.55H0.225048C0.100765 17.55 0 17.6506 0 17.775C0 17.8993 0.100765 18.0001 0.225048 18.0001H17.775C17.8993 18.0001 18.0001 17.8993 18.0001 17.775C18.0001 17.6506 17.8993 17.55 17.775 17.55H16.9227V16.2744C17.5337 16.1672 18.0001 15.6341 18.0001 14.9929C18.0001 14.5001 17.7247 14.0704 17.3201 13.8493C17.7247 13.628 18.0001 13.1984 18.0001 12.7057V12.7057ZM1.30239 11.8532C1.77223 11.8532 2.15469 12.2357 2.15469 12.7057C2.15469 13.1757 1.77223 13.558 1.30239 13.558C0.832386 13.558 0.449924 13.1757 0.449924 12.7057C0.449924 12.2357 0.832386 11.8532 1.30239 11.8532ZM0.449924 14.9929C0.449924 14.5229 0.832386 14.1404 1.30239 14.1404C1.77223 14.1404 2.15469 14.5229 2.15469 14.9929C2.15469 15.4627 1.77223 15.8452 1.30239 15.8452C0.832386 15.8452 0.449924 15.4627 0.449924 14.9929ZM13.9894 17.55H12.7196V15.2892C12.7196 15.1649 12.6188 15.0643 12.4945 15.0643H9.88169C9.7574 15.0643 9.65664 15.1649 9.65664 15.2892V17.55H8.38669V5.95631L13.9894 3.5745V17.55ZM12.2695 17.55H10.1067V15.5142H12.2695V17.55ZM10.4691 2.6156V4.33119H6.15664V2.6156H10.4691ZM6.15664 4.78128H10.001L8.07358 5.60062C7.99049 5.63581 7.93659 5.71735 7.93659 5.80765V7.24222H6.15664V4.78128ZM4.01052 7.69215H7.93659V17.55H4.01052V7.69215ZM16.6977 15.8452C16.2277 15.8452 15.8454 15.4627 15.8454 14.9929C15.8454 14.5229 16.2277 14.1404 16.6977 14.1404C17.1677 14.1404 17.55 14.5229 17.55 14.9929C17.55 15.4627 17.1677 15.8452 16.6977 15.8452V15.8452ZM16.6977 13.558C16.2277 13.558 15.8454 13.1757 15.8454 12.7057C15.8454 12.2357 16.2277 11.8532 16.6977 11.8532C17.1677 11.8532 17.55 12.2357 17.55 12.7057C17.55 13.1757 17.1677 13.558 16.6977 13.558V13.558Z" fill="#A6A6A6"/>
</g>
<defs>
<clipPath id="clip0_473_138">
<rect width="18" height="18" fill="white"/>
</clipPath>
</defs>
</svg>
