<svg width="52" height="52" viewBox="0 0 52 52" fill="none" xmlns="http://www.w3.org/2000/svg">
<path d="M30.764 25.9999L51.0118 5.75148C52.3294 4.4344 52.3294 2.30488 51.0118 0.987805C49.6947 -0.329268 47.5652 -0.329268 46.2481 0.987805L25.9997 21.2362L5.75194 0.987805C4.43425 -0.329268 2.30534 -0.329268 0.988268 0.987805C-0.329423 2.30488 -0.329423 4.4344 0.988268 5.75148L21.236 25.9999L0.988268 46.2482C-0.329423 47.5653 -0.329423 49.6948 0.988268 51.0119C1.64464 51.6689 2.50768 51.9989 3.3701 51.9989C4.23252 51.9989 5.09494 51.6689 5.75194 51.0119L25.9997 30.7635L46.2481 51.0119C46.9051 51.6689 47.7675 51.9989 48.6299 51.9989C49.4923 51.9989 50.3548 51.6689 51.0118 51.0119C52.3294 49.6948 52.3294 47.5653 51.0118 46.2482L30.764 25.9999Z" fill="white"/>
</svg>
