<svg width="52" height="52" viewBox="0 0 52 52" fill="none" xmlns="http://www.w3.org/2000/svg">
<path d="M47.4297 6.19531H4.57031C2.05339 6.19531 0 8.24647 0 10.7656V41.2344C0 43.745 2.04425 45.8047 4.57031 45.8047H47.4297C49.9403 45.8047 52 43.7604 52 41.2344V10.7656C52 8.255 49.9557 6.19531 47.4297 6.19531ZM46.7986 9.24219L26.0969 29.944L5.21615 9.24219H46.7986ZM3.04688 40.6035V11.382L17.7205 25.9298L3.04688 40.6035ZM5.20132 42.7578L19.8842 28.0749L25.0291 33.1756C25.6246 33.7661 26.5857 33.7641 27.1788 33.1709L32.1953 28.1544L46.7987 42.7578H5.20132ZM48.9531 40.6034L34.3498 26L48.9531 11.3965V40.6034Z" fill="#C5002F"/>
</svg>
