<svg width="52" height="52" viewBox="0 0 52 52" fill="none" xmlns="http://www.w3.org/2000/svg">
<g clip-path="url(#clip0_55_40)">
<path d="M51.447 21.1316L26.7982 3.08421C26.3229 2.73625 25.6772 2.73625 25.2021 3.08421L0.553066 21.1316C-0.0489959 21.5724 -0.179808 22.4178 0.261074 23.0199C0.701957 23.622 1.54746 23.7526 2.14943 23.3119L26.0001 5.84884L49.8507 23.3118C50.0912 23.488 50.3707 23.5728 50.6477 23.5728C51.0637 23.5728 51.4743 23.3814 51.7389 23.0198C52.1799 22.4178 52.0491 21.5724 51.447 21.1316Z" fill="#C60E39"/>
<path d="M44.9156 23.6177C44.1695 23.6177 43.5645 24.2226 43.5645 24.9688V46.4745H32.756V34.7353C32.756 31.01 29.7252 27.9794 26.0001 27.9794C22.275 27.9794 19.2442 31.0102 19.2442 34.7353V46.4746H8.43557V24.9689C8.43557 24.2227 7.83056 23.6178 7.08448 23.6178C6.33841 23.6178 5.7334 24.2227 5.7334 24.9689V47.8258C5.7334 48.572 6.33841 49.1769 7.08448 49.1769H20.5952C21.3058 49.1769 21.8872 48.6279 21.941 47.931C21.9443 47.8994 21.9463 47.8649 21.9463 47.8258V34.7354C21.9463 32.5001 23.7648 30.6817 26.0001 30.6817C28.2354 30.6817 30.0539 32.5002 30.0539 34.7354V47.8258C30.0539 47.8647 30.0559 47.8986 30.0591 47.9298C30.1124 48.6272 30.694 49.1769 31.4049 49.1769H44.9157C45.6619 49.1769 46.2668 48.572 46.2668 47.8258V24.9689C46.2667 24.2226 45.6618 23.6177 44.9156 23.6177Z" fill="#C60E39"/>
</g>
<defs>
<clipPath id="clip0_55_40">
<rect width="52" height="52" fill="white"/>
</clipPath>
</defs>
</svg>
