<svg width="52" height="52" viewBox="0 0 52 52" fill="none" xmlns="http://www.w3.org/2000/svg">
<path d="M47.6665 23.8332H30.3332C29.7585 23.8332 29.2074 23.6049 28.8011 23.1986C28.3948 22.7922 28.1665 22.2411 28.1665 21.6665V4.33317C28.1665 3.75853 28.3948 3.20743 28.8011 2.80111C29.2074 2.39478 29.7585 2.1665 30.3332 2.1665H47.6665C48.2411 2.1665 48.7922 2.39478 49.1986 2.80111C49.6049 3.20743 49.8332 3.75853 49.8332 4.33317V21.6665C49.8332 22.2411 49.6049 22.7922 49.1986 23.1986C48.7922 23.6049 48.2411 23.8332 47.6665 23.8332ZM32.4998 19.4998H45.4998V6.49984H32.4998V19.4998Z" fill="#C5002F"/>
<path d="M38.9998 49.8332C36.8572 49.8332 34.7627 49.1978 32.9812 48.0074C31.1996 46.8171 29.8111 45.1251 28.9911 43.1456C28.1712 41.1661 27.9567 38.9878 28.3747 36.8864C28.7927 34.7849 29.8245 32.8546 31.3395 31.3395C32.8546 29.8245 34.7849 28.7927 36.8864 28.3747C38.9878 27.9567 41.1661 28.1712 43.1456 28.9911C45.1251 29.8111 46.8171 31.1996 48.0074 32.9812C49.1978 34.7627 49.8332 36.8572 49.8332 38.9998C49.8297 41.872 48.6873 44.6255 46.6564 46.6564C44.6255 48.6873 41.872 49.8297 38.9998 49.8332V49.8332ZM38.9998 32.4998C37.7143 32.4998 36.4576 32.8811 35.3886 33.5953C34.3197 34.3095 33.4866 35.3247 32.9946 36.5124C32.5027 37.7001 32.3739 39.0071 32.6247 40.2679C32.8755 41.5288 33.4946 42.687 34.4036 43.596C35.3127 44.5051 36.4709 45.1241 37.7318 45.375C38.9926 45.6258 40.2996 45.497 41.4873 45.0051C42.675 44.5131 43.6902 43.68 44.4044 42.6111C45.1186 41.5421 45.4998 40.2854 45.4998 38.9998C45.4998 37.2759 44.815 35.6226 43.596 34.4036C42.3771 33.1847 40.7238 32.4998 38.9998 32.4998Z" fill="#C5002F"/>
<path d="M21.6665 28.1665H4.33317C3.75853 28.1665 3.20743 28.3948 2.80111 28.8011C2.39478 29.2074 2.1665 29.7585 2.1665 30.3332V47.6665C2.1665 48.2411 2.39478 48.7922 2.80111 49.1986C3.20743 49.6049 3.75853 49.8332 4.33317 49.8332H21.6665C22.2411 49.8332 22.7922 49.6049 23.1986 49.1986C23.6049 48.7922 23.8332 48.2411 23.8332 47.6665V30.3332C23.8332 29.7585 23.6049 29.2074 23.1986 28.8011C22.7922 28.3948 22.2411 28.1665 21.6665 28.1665ZM19.4998 45.4998H6.49984V32.4998H19.4998V45.4998Z" fill="#C5002F"/>
<path d="M21.6665 23.8332H4.33317C3.75853 23.8332 3.20743 23.6049 2.80111 23.1986C2.39478 22.7922 2.1665 22.2411 2.1665 21.6665V4.33317C2.1665 3.75853 2.39478 3.20743 2.80111 2.80111C3.20743 2.39478 3.75853 2.1665 4.33317 2.1665H21.6665C22.2411 2.1665 22.7922 2.39478 23.1986 2.80111C23.6049 3.20743 23.8332 3.75853 23.8332 4.33317V21.6665C23.8332 22.2411 23.6049 22.7922 23.1986 23.1986C22.7922 23.6049 22.2411 23.8332 21.6665 23.8332ZM6.49984 19.4998H19.4998V6.49984H6.49984V19.4998Z" fill="#C5002F"/>
</svg>
