<svg width="21" height="21" viewBox="0 0 21 21" fill="none" xmlns="http://www.w3.org/2000/svg">
<path d="M10.5 0C4.71007 0 0 4.71007 0 10.5C0 16.2899 4.71007 21 10.5 21C16.2899 21 21 16.2899 21 10.5C21 4.71007 16.2899 0 10.5 0Z" fill="#F44336"/>
<path d="M14.3669 13.1293C14.7089 13.4716 14.7089 14.0245 14.3669 14.3667C14.1962 14.5373 13.9723 14.623 13.7481 14.623C13.5241 14.623 13.3001 14.5373 13.1295 14.3667L10.5002 11.7372L7.87086 14.3667C7.70023 14.5373 7.47624 14.623 7.25226 14.623C7.02812 14.623 6.80413 14.5373 6.6335 14.3667C6.29144 14.0245 6.29144 13.4716 6.6335 13.1293L9.26299 10.5L6.6335 7.87068C6.29144 7.52845 6.29144 6.97554 6.6335 6.63332C6.97573 6.29125 7.52864 6.29125 7.87086 6.63332L10.5002 9.2628L13.1295 6.63332C13.4717 6.29125 14.0246 6.29125 14.3669 6.63332C14.7089 6.97554 14.7089 7.52845 14.3669 7.87068L11.7374 10.5L14.3669 13.1293Z" fill="#FAFAFA"/>
</svg>
