<svg width="18" height="18" viewBox="0 0 18 18" fill="none" xmlns="http://www.w3.org/2000/svg">
<g clip-path="url(#clip0_473_189)">
<path d="M17.6493 5.50674C17.8597 5.43193 18.0002 5.23263 18 5.00925C17.9997 4.78586 17.8587 4.58692 17.6481 4.5126L9.17546 1.52322C9.06194 1.48314 8.93808 1.48314 8.82457 1.52322L0.351914 4.5126C0.141258 4.58688 0.000281671 4.78586 4.21419e-07 5.00925C-0.000280828 5.23263 0.140239 5.43193 0.350719 5.50674L3.70705 6.69995V10.1399C3.70705 10.7076 4.29933 11.1878 5.46743 11.5669C6.48559 11.8973 7.74017 12.0793 9.00003 12.0793C10.2599 12.0793 11.5144 11.8973 12.5326 11.5669C13.7007 11.1878 14.293 10.7077 14.293 10.1399V6.69995L15.6788 6.2073V10.9739C15.0625 11.1918 14.6197 11.78 14.6197 12.4699C14.6197 13.1598 15.0625 13.748 15.6788 13.9659V15.9798C15.6788 16.271 15.9149 16.5071 16.2061 16.5071C16.4973 16.5071 16.7335 16.271 16.7335 15.9798V13.9659C17.3497 13.748 17.7925 13.1598 17.7925 12.4699C17.7925 11.78 17.3497 11.1918 16.7335 10.9739V5.83233L17.6493 5.50674ZM16.2061 13.0016C15.9129 13.0016 15.6743 12.7631 15.6743 12.4699C15.6743 12.1767 15.9129 11.9381 16.2061 11.9381C16.4993 11.9381 16.7378 12.1767 16.7378 12.4699C16.7378 12.7631 16.4993 13.0016 16.2061 13.0016ZM8.99999 2.5797L15.893 5.01178L8.99999 7.46228L2.10695 5.01174L8.99999 2.5797ZM13.2383 10.0604C13.1372 10.1623 12.7754 10.4063 11.9587 10.6393C11.0875 10.8878 10.0368 11.0247 8.99999 11.0247C7.96324 11.0247 6.91249 10.8878 6.04125 10.6393C5.2246 10.4063 4.86277 10.1623 4.7617 10.0604V7.07489L8.82333 8.51883C8.88046 8.53915 8.94023 8.54931 8.99996 8.54931C9.05972 8.54931 9.11946 8.53915 9.17658 8.51883L13.2382 7.07489V10.0604H13.2383Z" fill="#B7B7B7"/>
</g>
<defs>
<clipPath id="clip0_473_189">
<rect width="18" height="18" fill="white"/>
</clipPath>
</defs>
</svg>
