<svg width="52" height="52" viewBox="0 0 52 52" fill="none" xmlns="http://www.w3.org/2000/svg">
<path d="M52 26C52 38.9777 42.4917 49.7341 30.0625 51.6841V33.5156H36.1207L37.2734 26H30.0625V21.123C30.0625 19.0663 31.07 17.0625 34.2997 17.0625H37.5781V10.6641C37.5781 10.6641 34.6023 10.1562 31.7576 10.1562C25.8192 10.1562 21.9375 13.7556 21.9375 20.2719V26H15.3359V33.5156H21.9375V51.6841C9.50828 49.7341 0 38.9777 0 26C0 11.6411 11.6411 0 26 0C40.3589 0 52 11.6411 52 26Z" fill="#1877F2"/>
<path d="M36.1207 33.5156L37.2734 26H30.0625V21.1229C30.0625 19.0667 31.0698 17.0625 34.2996 17.0625H37.5781V10.6641C37.5781 10.6641 34.6028 10.1562 31.7581 10.1562C25.8191 10.1562 21.9375 13.7556 21.9375 20.2719V26H15.3359V33.5156H21.9375V51.684C23.2613 51.8917 24.6179 52 26 52C27.3821 52 28.7387 51.8917 30.0625 51.684V33.5156H36.1207Z" fill="white"/>
</svg>
