<svg width="13" height="19" viewBox="0 0 13 19" fill="none" xmlns="http://www.w3.org/2000/svg">
<path d="M10.7715 10.7682C13.2324 8.30807 13.2324 4.30519 10.7715 1.8451C8.31067 -0.615033 4.30657 -0.615033 1.84566 1.8451C-0.615218 4.30519 -0.615218 8.30807 1.84566 10.7682C2.63589 11.5581 3.58526 12.0944 4.59153 12.377C5.13742 12.5303 5.56602 12.9971 5.56602 13.5641V13.5641C5.56602 14.1815 5.06548 14.6821 4.44802 14.6821H4.08098C3.67088 14.6821 3.33846 15.0144 3.33846 15.4244C3.33846 15.8343 3.67088 16.1667 4.08098 16.1667V16.1667C4.90115 16.1667 5.56602 16.8315 5.56602 17.6517V18.2577C5.56606 18.6676 5.89849 19 6.30862 19C6.71871 19 7.05114 18.6676 7.05114 18.2577V17.6517C7.05114 16.8316 7.71604 16.1667 8.53622 16.1667V16.1667C8.94632 16.1667 9.27874 15.8343 9.27874 15.4244C9.27874 15.0144 8.94632 14.6821 8.53622 14.6821H8.16914C7.55168 14.6821 7.05114 14.1815 7.05114 13.5641V13.5641C7.05114 12.9971 7.47972 12.5303 8.0256 12.377C9.03191 12.0944 9.9813 11.5582 10.7715 10.7682ZM2.89578 9.71838C1.01392 7.83712 1.01392 4.77611 2.89578 2.89485C4.7776 1.01366 7.83953 1.01355 9.72146 2.89485C11.6033 4.77611 11.6033 7.83712 9.72146 9.71838C7.8396 11.5996 4.77763 11.5996 2.89578 9.71838Z" fill="#7E7E7E"/>
</svg>
