<svg width="48" height="62" viewBox="0 0 48 62" fill="none" xmlns="http://www.w3.org/2000/svg">
<g opacity="0.18">
<path d="M63.9317 3.00128C60.8227 0.860895 50.055 -4.71299 36.5 8.55503C22.9451 -4.71217 12.1774 0.860895 9.06846 3.00128C0.0674859 9.1985 -2.66929 22.7698 2.83761 33.897C12.787 54.0008 34.5462 61.5215 35.4678 61.8317C36.134 62.0561 36.8661 62.0561 37.5323 61.8317C38.4539 61.5215 60.2131 54.0004 70.1625 33.897C75.6694 22.7698 72.9322 9.1985 63.9317 3.00128Z" fill="#FF97A4"/>
<path d="M12.6777 33.4749C7.15325 22.3479 9.89876 8.77639 18.9285 2.57865C19.7882 1.98859 21.2338 1.1372 23.16 0.49207C16.1948 -1.12198 11.0849 1.63603 9.09743 3.00025C0.0677015 9.19758 -2.67782 22.7691 2.84667 33.8965C12.8279 54.0006 34.6566 61.5215 35.5811 61.8317C36.2495 62.0561 36.9839 62.0561 37.6522 61.8317C37.8913 61.7512 39.5307 61.1874 42 60.0496C35.2841 57.0894 20.4186 49.0673 12.6777 33.4749Z" fill="#FF7D8D"/>
</g>
</svg>
