<svg width="42" height="36" viewBox="0 0 42 36" fill="none" xmlns="http://www.w3.org/2000/svg">
<g opacity="0.5">
<path d="M36.1626 1.80963C32.5349 -0.662494 26.789 -1.17498 20.7977 3.97719C14.8059 -1.17498 9.05959 -0.661705 5.43267 1.80963C0.0753428 5.46101 -1.58563 13.3915 1.6507 19.8645C7.19306 30.95 19.2842 35.0863 19.7963 35.2571C20.4426 35.4725 21.1527 35.4725 21.799 35.2571C22.3111 35.0863 34.4015 30.9496 39.9446 19.8645C43.1805 13.3911 41.5196 5.46022 36.1626 1.80963Z" fill="#FE5578"/>
<path d="M25.6811 32.6845C25.169 32.5136 13.0786 28.377 7.53542 17.2919C4.52279 11.2666 5.7553 3.9804 10.2601 0.0563965C8.42233 0.243404 6.78069 0.890828 5.43218 1.80969C0.0748545 5.46107 -1.58612 13.3915 1.65021 19.8646C7.19258 30.9501 19.2837 35.0864 19.7958 35.2572C20.4421 35.4726 21.1522 35.4726 21.7985 35.2572C22.0096 35.1866 24.1878 34.4409 27.0615 32.8158C26.5987 32.8707 26.1249 32.8324 25.6811 32.6845Z" fill="#FE3F67"/>
</g>
</svg>
