<svg width="18" height="18" viewBox="0 0 18 18" fill="none" xmlns="http://www.w3.org/2000/svg">
<g clip-path="url(#clip0_459_21)">
<path d="M5.4845 4.50017H5.40294C5.81073 4.17153 6.10654 3.72448 6.24959 3.22066C6.39263 2.71683 6.37588 2.18104 6.20163 1.68714C6.02738 1.19324 5.70422 0.765551 5.27669 0.463028C4.84916 0.160505 4.33832 -0.00195312 3.81458 -0.00195312C3.29084 -0.00195312 2.78 0.160505 2.35247 0.463028C1.92494 0.765551 1.60178 1.19324 1.42753 1.68714C1.25328 2.18104 1.23652 2.71683 1.37957 3.22066C1.52262 3.72448 1.81843 4.17153 2.22622 4.50017H2.1095C1.83166 4.49716 1.55601 4.54966 1.29873 4.6546C1.04144 4.75954 0.807709 4.9148 0.611232 5.11128C0.414755 5.30776 0.259493 5.54149 0.154554 5.79877C0.0496142 6.05605 -0.00288949 6.3317 0.000122633 6.60955V11.672C0.000122633 11.7466 0.0297543 11.8182 0.0824989 11.8709C0.135244 11.9237 0.206781 11.9533 0.281373 11.9533C0.355965 11.9533 0.427502 11.9237 0.480247 11.8709C0.532991 11.8182 0.562623 11.7466 0.562623 11.672V6.60955C0.560363 6.40578 0.598831 6.20362 0.675768 6.01492C0.752706 5.82622 0.866563 5.6548 1.01066 5.5107C1.15475 5.36661 1.32618 5.25275 1.51487 5.17582C1.70357 5.09888 1.90573 5.06041 2.1095 5.06267H5.4845C5.68827 5.06041 5.89043 5.09888 6.07913 5.17582C6.26783 5.25275 6.43925 5.36661 6.58335 5.5107C6.72744 5.6548 6.8413 5.82622 6.91823 6.01492C6.99517 6.20362 7.03364 6.40578 7.03138 6.60955V11.672C7.03138 11.7466 7.06101 11.8182 7.11375 11.8709C7.1665 11.9237 7.23804 11.9533 7.31263 11.9533C7.38722 11.9533 7.45876 11.9237 7.5115 11.8709C7.56425 11.8182 7.59388 11.7466 7.59388 11.672V6.60955C7.59689 6.3317 7.54439 6.05605 7.43945 5.79877C7.33451 5.54149 7.17925 5.30776 6.98277 5.11128C6.78629 4.9148 6.55256 4.75954 6.29528 4.6546C6.03799 4.54966 5.76235 4.49716 5.4845 4.50017V4.50017ZM1.84512 2.53142C1.84512 2.14204 1.96059 1.7614 2.17692 1.43764C2.39325 1.11388 2.70072 0.861542 3.06047 0.712532C3.42021 0.563522 3.81606 0.524534 4.19796 0.600499C4.57986 0.676464 4.93066 0.863969 5.20599 1.1393C5.48133 1.41464 5.66883 1.76544 5.7448 2.14734C5.82076 2.52924 5.78178 2.92509 5.63276 3.28483C5.48375 3.64457 5.23141 3.95205 4.90766 4.16838C4.5839 4.38471 4.20326 4.50017 3.81388 4.50017H3.80403C3.28359 4.49757 2.78536 4.289 2.41827 3.92007C2.05119 3.55114 1.84512 3.05186 1.84512 2.53142V2.53142Z" fill="#9C9C9C"/>
<path d="M1.82812 7.03125C1.75353 7.03125 1.682 7.06088 1.62925 7.11363C1.57651 7.16637 1.54688 7.23791 1.54688 7.3125V17.7188C1.54688 17.7933 1.57651 17.8649 1.62925 17.9176C1.682 17.9704 1.75353 18 1.82812 18C1.90272 18 1.97425 17.9704 2.027 17.9176C2.07974 17.8649 2.10938 17.7933 2.10938 17.7188V7.3125C2.10938 7.23791 2.07974 7.16637 2.027 7.11363C1.97425 7.06088 1.90272 7.03125 1.82812 7.03125Z" fill="#9C9C9C"/>
<path d="M5.76562 7.03125C5.69103 7.03125 5.6195 7.06088 5.56675 7.11363C5.51401 7.16637 5.48438 7.23791 5.48438 7.3125V17.7188C5.48438 17.7933 5.51401 17.8649 5.56675 17.9176C5.6195 17.9704 5.69103 18 5.76562 18C5.84022 18 5.91175 17.9704 5.9645 17.9176C6.01724 17.8649 6.04688 17.7933 6.04688 17.7188V7.3125C6.04688 7.23791 6.01724 7.16637 5.9645 7.11363C5.91175 7.06088 5.84022 7.03125 5.76562 7.03125Z" fill="#9C9C9C"/>
<path d="M3.79687 10.6875C3.72228 10.6875 3.65075 10.7171 3.598 10.7699C3.54526 10.8226 3.51562 10.8942 3.51562 10.9688V17.7188C3.51562 17.7933 3.54526 17.8649 3.598 17.9176C3.65075 17.9704 3.72228 18 3.79687 18C3.87147 18 3.943 17.9704 3.99575 17.9176C4.04849 17.8649 4.07812 17.7933 4.07812 17.7188V10.9688C4.07812 10.8942 4.04849 10.8226 3.99575 10.7699C3.943 10.7171 3.87147 10.6875 3.79687 10.6875Z" fill="#9C9C9C"/>
<path d="M13.3486 0H9.97363C9.89904 0 9.8275 0.0296316 9.77476 0.0823762C9.72201 0.135121 9.69238 0.206658 9.69238 0.28125V17.7188C9.69238 17.7933 9.72201 17.8649 9.77476 17.9176C9.8275 17.9704 9.89904 18 9.97363 18H13.3486C13.4232 18 13.4948 17.9704 13.5475 17.9176C13.6003 17.8649 13.6299 17.7933 13.6299 17.7188V0.28125C13.6299 0.206658 13.6003 0.135121 13.5475 0.0823762C13.4948 0.0296316 13.4232 0 13.3486 0V0ZM13.0674 17.4375H10.2549V15.4688H11.0986C11.1732 15.4688 11.2448 15.4391 11.2975 15.3864C11.3503 15.3336 11.3799 15.2621 11.3799 15.1875C11.3799 15.1129 11.3503 15.0414 11.2975 14.9886C11.2448 14.9359 11.1732 14.9062 11.0986 14.9062H10.2549V12.9375H11.0986C11.1732 12.9375 11.2448 12.9079 11.2975 12.8551C11.3503 12.8024 11.3799 12.7308 11.3799 12.6562C11.3799 12.5817 11.3503 12.5101 11.2975 12.4574C11.2448 12.4046 11.1732 12.375 11.0986 12.375H10.2549V10.5469H11.0986C11.1732 10.5469 11.2448 10.5172 11.2975 10.4645C11.3503 10.4118 11.3799 10.3402 11.3799 10.2656C11.3799 10.191 11.3503 10.1195 11.2975 10.0668C11.2448 10.014 11.1732 9.98438 11.0986 9.98438H10.2549V8.01562H11.0986C11.1732 8.01562 11.2448 7.98599 11.2975 7.93325C11.3503 7.8805 11.3799 7.80897 11.3799 7.73438C11.3799 7.65978 11.3503 7.58825 11.2975 7.5355C11.2448 7.48276 11.1732 7.45312 11.0986 7.45312H10.2549V5.625H11.0986C11.1732 5.625 11.2448 5.59537 11.2975 5.54262C11.3503 5.48988 11.3799 5.41834 11.3799 5.34375C11.3799 5.26916 11.3503 5.19762 11.2975 5.14488C11.2448 5.09213 11.1732 5.0625 11.0986 5.0625H10.2549V3.09375H11.0986C11.1732 3.09375 11.2448 3.06412 11.2975 3.01137C11.3503 2.95863 11.3799 2.88709 11.3799 2.8125C11.3799 2.73791 11.3503 2.66637 11.2975 2.61363C11.2448 2.56088 11.1732 2.53125 11.0986 2.53125H10.2549V0.5625H13.0674V17.4375Z" fill="#9C9C9C"/>
</g>
<defs>
<clipPath id="clip0_459_21">
<rect width="18" height="18" fill="white"/>
</clipPath>
</defs>
</svg>
