<svg width="19" height="18" viewBox="0 0 19 18" fill="none" xmlns="http://www.w3.org/2000/svg">
<path d="M17.6182 7.82913C17.6176 7.82872 17.6172 7.82817 17.6168 7.82776L10.2735 0.485458C9.96047 0.172348 9.54432 0 9.10167 0C8.65901 0 8.24286 0.172348 7.92972 0.485458L0.590247 7.82405C0.587775 7.82652 0.585166 7.82913 0.582831 7.8316C-0.0599344 8.47801 -0.0588356 9.52679 0.58599 10.1716C0.88059 10.4663 1.26955 10.6368 1.68556 10.6548C1.70259 10.6565 1.71962 10.6573 1.73679 10.6573H2.02933V16.0606C2.02933 17.13 2.89953 18 3.96902 18H6.84196C7.13327 18 7.36936 17.7638 7.36936 17.4727V13.2363C7.36936 12.7484 7.76642 12.3515 8.2544 12.3515H9.94894C10.4369 12.3515 10.8338 12.7484 10.8338 13.2363V17.4727C10.8338 17.7638 11.0699 18 11.3612 18H14.2342C15.3038 18 16.1739 17.13 16.1739 16.0606V10.6573H16.4453C16.8878 10.6573 17.3039 10.4849 17.6172 10.1717C18.2627 9.52597 18.263 8.47527 17.6182 7.82913V7.82913ZM16.8713 9.42599C16.7574 9.53984 16.6061 9.6026 16.4453 9.6026H15.6465C15.3552 9.6026 15.1191 9.83867 15.1191 10.1299V16.0606C15.1191 16.5484 14.7222 16.9453 14.2342 16.9453H11.8886V13.2363C11.8886 12.1669 11.0186 11.2968 9.94894 11.2968H8.2544C7.18477 11.2968 6.31457 12.1669 6.31457 13.2363V16.9453H3.96902C3.48118 16.9453 3.08412 16.5484 3.08412 16.0606V10.1299C3.08412 9.83867 2.84803 9.6026 2.55672 9.6026H1.77167C1.76343 9.60205 1.75533 9.60164 1.74695 9.6015C1.58983 9.59875 1.44246 9.53641 1.33204 9.42586C1.09718 9.19102 1.09718 8.80884 1.33204 8.57387C1.33217 8.57387 1.33217 8.57373 1.33231 8.57359L1.33272 8.57318L8.67577 1.23116C8.78949 1.11731 8.9407 1.05469 9.10167 1.05469C9.2625 1.05469 9.41371 1.11731 9.52757 1.23116L16.869 8.57167C16.8701 8.57277 16.8713 8.57387 16.8724 8.57497C17.106 8.81021 17.1056 9.19157 16.8713 9.42599V9.42599Z" fill="#9C9C9C"/>
</svg>
