<svg width="18" height="18" viewBox="0 0 18 18" fill="none" xmlns="http://www.w3.org/2000/svg">
<g clip-path="url(#clip0_473_176)">
<path d="M16.2401 13.9959C16.5957 13.507 16.7884 12.9186 16.7909 12.3141C16.7948 12.2346 16.7669 12.1568 16.7134 12.0979C16.6599 12.039 16.5851 12.0038 16.5056 12C16.3408 11.9938 16.2012 12.1206 16.1915 12.2853C16.1938 12.7644 16.0462 13.2322 15.7694 13.6233C15.1841 14.3625 14.0735 14.4 13.8566 14.4C13.691 14.4 13.5566 14.5343 13.5566 14.7C13.5566 14.8657 13.691 15 13.8566 15C14.1218 15 15.4829 14.9517 16.2401 13.9959V13.9959Z" fill="#9C9C9C"/>
<path d="M10.1996 10.2001C10.1996 10.0344 10.0653 9.9001 9.89961 9.9001C9.73392 9.9001 9.59961 10.0344 9.59961 10.2001C9.59961 10.8628 10.1369 11.4001 10.7996 11.4001V11.7001C10.7996 11.8658 10.9339 12.0001 11.0996 12.0001C11.2653 12.0001 11.3996 11.8658 11.3996 11.7001V11.4001C12.0624 11.4001 12.5996 10.8628 12.5996 10.2001C12.5996 9.53736 12.0624 9.0001 11.3996 9.0001V7.8001C11.731 7.8001 11.9996 8.06873 11.9996 8.4001C11.9996 8.56578 12.1339 8.7001 12.2996 8.7001C12.4653 8.7001 12.5996 8.56578 12.5996 8.4001C12.5996 7.73736 12.0624 7.2001 11.3996 7.2001V6.9001C11.3996 6.73441 11.2653 6.6001 11.0996 6.6001C10.9339 6.6001 10.7996 6.73441 10.7996 6.9001V7.2001C10.1369 7.2001 9.59961 7.73736 9.59961 8.4001C9.59961 9.06284 10.1369 9.6001 10.7996 9.6001V10.8001C10.4682 10.8001 10.1996 10.5315 10.1996 10.2001ZM10.1996 8.4001C10.1996 8.06873 10.4682 7.8001 10.7996 7.8001V9.0001C10.4682 9.0001 10.1996 8.73147 10.1996 8.4001ZM11.3996 9.6001C11.731 9.6001 11.9996 9.86873 11.9996 10.2001C11.9996 10.5315 11.731 10.8001 11.3996 10.8001V9.6001Z" fill="#9C9C9C"/>
<path d="M17.7492 10.1313C17.01 6.98997 15.3666 5.16987 14.1798 4.21917C15.6681 4.33137 16.1472 4.95057 16.1613 4.96917C16.2553 5.10334 16.4395 5.13731 16.5752 5.04548C16.7108 4.95365 16.7477 4.76998 16.6581 4.63287C16.6365 4.60047 16.2198 4.00527 15.0081 3.73287C15.3179 3.47817 15.5012 3.10097 15.51 2.69998C15.4699 2.03516 15.0071 1.47141 14.3628 1.30258C14.3892 1.08587 14.4026 0.867785 14.403 0.649479C14.4027 0.448359 14.3016 0.260778 14.1338 0.149885C13.966 0.0389933 13.7538 0.0195418 13.5687 0.0980795C13.4172 0.166652 13.2766 0.256897 13.1511 0.365979C13.0039 0.517275 12.8012 0.601813 12.5901 0.599979C12.3793 0.601462 12.1771 0.51696 12.03 0.365979C11.5013 -0.122319 10.6861 -0.122319 10.1574 0.365979C10.0101 0.517604 9.80714 0.602189 9.59579 0.599979C9.38506 0.60173 9.18279 0.517179 9.03599 0.365979C8.91085 0.257131 8.77059 0.166995 8.61959 0.0983794C8.43457 0.0203682 8.22278 0.0400854 8.05534 0.150912C7.88789 0.261738 7.78699 0.44898 7.78649 0.649779C7.78649 1.39618 7.93409 2.72758 8.86859 3.62157C8.37747 3.92021 7.9188 4.26919 7.5 4.66287V2.39998C7.5 1.71598 6.5325 1.19998 5.25 1.19998C3.9675 1.19998 3 1.71598 3 2.39998V5.42247C1.9479 5.52747 1.2 5.99997 1.2 6.59997V14.2305C0.4752 14.4252 0 14.82 0 15.3V16.8C0 17.484 0.967499 18 2.25 18C3.3969 18 4.29 17.5869 4.4661 17.01C4.98394 17.2841 5.56434 17.4186 6.15 17.4C7.4325 17.4 8.39999 16.884 8.39999 16.2V12.3C8.39999 11.616 7.4325 11.1 6.15 11.1C5.99971 11.0999 5.84952 11.1074 5.7 11.1225V6.59997C5.7 5.94297 4.8069 5.44257 3.6 5.40387V3.23067C4.11037 3.49008 4.67774 3.61707 5.25 3.59997C5.82225 3.61707 6.38963 3.49008 6.9 3.23067V5.27667C6.7023 5.49777 6.5037 5.73867 6.3078 6.00567C6.21809 6.13926 6.24975 6.31982 6.37955 6.41492C6.50935 6.51002 6.69107 6.48577 6.7914 6.35997C6.98408 6.09912 7.19057 5.84876 7.41 5.60997C7.4124 5.60727 7.4145 5.60457 7.4169 5.60217C7.98958 4.96572 8.66208 4.42677 9.40799 4.00647C9.55506 4.07741 9.71063 4.12914 9.87089 4.16037L9.09749 4.88217C8.97638 4.99534 8.96993 5.18526 9.08309 5.30637C9.19626 5.42749 9.38618 5.43393 9.50729 5.32077L10.7073 4.20147H10.803V5.10147C10.803 5.26716 10.9373 5.40147 11.103 5.40147C11.2687 5.40147 11.403 5.26716 11.403 5.10147V4.19997H11.4987L12.6987 5.31927C12.777 5.39248 12.8885 5.41832 12.9911 5.38707C13.0936 5.35582 13.1717 5.27222 13.196 5.16777C13.2202 5.06332 13.1868 4.95388 13.1085 4.88067L12.33 4.15587C12.4893 4.12434 12.6439 4.07242 12.7899 4.00137C13.5828 4.43037 16.1892 6.12537 17.1654 10.2687C17.5899 12.0723 17.4369 13.452 16.7109 14.3685C15.7821 15.54 14.1705 15.6 13.857 15.6H9.59999C9.43431 15.6 9.29999 15.7343 9.29999 15.9C9.29999 16.0656 9.43431 16.2 9.59999 16.2H13.857C14.367 16.2 16.1085 16.0947 17.181 14.7411C18.0264 13.6734 18.2178 12.1224 17.7492 10.1313V10.1313ZM2.25 14.7C3.2421 14.7 3.9 15.06 3.9 15.3C3.9 15.54 3.2421 15.9 2.25 15.9C1.2579 15.9 0.6 15.54 0.6 15.3C0.6 15.06 1.2579 14.7 2.25 14.7ZM2.25 17.4C1.2579 17.4 0.6 17.04 0.6 16.8V16.1307C1.11037 16.3901 1.67774 16.5171 2.25 16.5C2.82225 16.5171 3.38963 16.3901 3.9 16.1307V16.8C3.9 17.04 3.2421 17.4 2.25 17.4ZM6.15 16.8C5.1579 16.8 4.5 16.44 4.5 16.2V13.1307C5.01037 13.3901 5.57774 13.5171 6.15 13.5C6.72225 13.5171 7.28963 13.3901 7.79999 13.1307V16.2C7.79999 16.44 7.1421 16.8 6.15 16.8ZM7.79999 12.3C7.79999 12.54 7.1421 12.9 6.15 12.9C5.1579 12.9 4.5 12.54 4.5 12.3C4.5 12.06 5.1579 11.7 6.15 11.7C7.1421 11.7 7.79999 12.06 7.79999 12.3ZM3.9 12.3V14.4693C3.38963 14.2099 2.82225 14.0829 2.25 14.1C2.09971 14.0999 1.94952 14.1074 1.8 14.1225V7.43067C2.31037 7.69007 2.87774 7.81706 3.45 7.79997C4.02225 7.81706 4.58963 7.69007 5.1 7.43067V11.2305C4.3752 11.4252 3.9 11.82 3.9 12.3ZM5.1 6.59997C5.1 6.83997 4.4421 7.19997 3.45 7.19997C2.4579 7.19997 1.8 6.83997 1.8 6.59997C1.8 6.35997 2.4579 5.99997 3.45 5.99997C4.4421 5.99997 5.1 6.35997 5.1 6.59997ZM5.25 2.99998C4.2579 2.99998 3.6 2.63998 3.6 2.39998C3.6 2.15998 4.2579 1.79998 5.25 1.79998C6.2421 1.79998 6.9 2.15998 6.9 2.39998C6.9 2.63998 6.2421 2.99998 5.25 2.99998ZM14.91 2.69998C14.91 3.19167 14.3775 3.59517 13.71 3.59997C13.5983 3.59927 13.4871 3.58649 13.3782 3.56187C13.8136 3.09734 14.1162 2.52438 14.2545 1.90288C14.6156 2.00928 14.8753 2.32511 14.91 2.69998ZM8.66039 0.833978C8.91375 1.07138 9.2486 1.2024 9.59579 1.19998C9.9432 1.20259 10.2783 1.07155 10.5318 0.833978C10.6801 0.684261 10.8821 0.600029 11.0928 0.600029C11.3035 0.600029 11.5055 0.684261 11.6538 0.833978C11.9073 1.07173 12.2426 1.20279 12.5901 1.19998C12.9376 1.20266 13.2728 1.07162 13.5264 0.833978C13.6095 0.760502 13.702 0.698361 13.8015 0.649179C13.8015 1.20628 13.698 2.58358 12.7314 3.33867C12.5139 3.50199 12.2503 3.59221 11.9784 3.59637C12.2381 3.15031 12.4437 2.67485 12.5907 2.18008C12.6194 2.07676 12.5908 1.96596 12.5157 1.88942C12.4406 1.81289 12.3304 1.78224 12.2265 1.80902C12.1227 1.83581 12.041 1.91596 12.0123 2.01928C11.8461 2.5832 11.5907 3.11687 11.2557 3.59997H10.9473C10.6129 3.11644 10.3575 2.5829 10.1904 2.01928C10.1459 1.85964 9.98043 1.76629 9.82079 1.81078C9.66116 1.85526 9.56781 2.02074 9.61229 2.18038C9.75948 2.67557 9.96523 3.15144 10.2252 3.59787C9.94782 3.59645 9.6783 3.50566 9.45659 3.33897C8.48999 2.58418 8.38649 1.20688 8.38649 0.651579C8.48591 0.69921 8.57812 0.760613 8.66039 0.833978V0.833978Z" fill="#9C9C9C"/>
<path d="M16.2401 13.9959C16.5957 13.507 16.7884 12.9186 16.7909 12.3141C16.7948 12.2346 16.7669 12.1568 16.7134 12.0979C16.6599 12.039 16.5851 12.0038 16.5056 11.9999C16.3409 11.9941 16.2015 12.1207 16.1915 12.2852C16.1938 12.7644 16.0462 13.2322 15.7694 13.6233C15.1841 14.3625 14.0735 14.4 13.8566 14.4C13.691 14.4 13.5566 14.5343 13.5566 14.7C13.5566 14.8656 13.691 15 13.8566 15C14.1218 15 15.4829 14.9517 16.2401 13.9959V13.9959Z" fill="#9C9C9C"/>
</g>
<defs>
<clipPath id="clip0_473_176">
<rect width="18" height="18" fill="white"/>
</clipPath>
</defs>
</svg>
