<svg width="52" height="52" viewBox="0 0 52 52" fill="none" xmlns="http://www.w3.org/2000/svg">
<g clip-path="url(#clip0_118_391)">
<path d="M3.24986 3.53831C-0.836471 7.78281 -0.00013793 12.2916 -0.00013793 25.9893C-0.00013793 37.3643 -1.9848 48.7675 8.4022 51.452C11.6457 52.2861 40.3844 52.2861 43.6235 51.4476C47.9482 50.3318 51.4669 46.824 51.9479 40.7075C52.015 39.8538 52.015 12.14 51.9457 11.269C51.4344 4.75381 47.4239 0.998975 42.1394 0.238475C40.9282 0.0629746 40.6855 0.0109745 34.4715 0.000141215C12.43 0.0109745 7.59836 -0.970526 3.24986 3.53831V3.53831Z" fill="url(#paint0_linear_118_391)"/>
<path d="M25.9956 6.80124C18.1284 6.80124 10.6578 6.10141 7.80426 13.4247C6.62559 16.4494 6.79676 20.3776 6.79676 26.0022C6.79676 30.9379 6.63859 35.5767 7.80426 38.5776C10.6513 45.9052 18.1826 45.2032 25.9913 45.2032C33.5248 45.2032 41.2923 45.9876 44.1804 38.5776C45.3613 35.5226 45.1879 31.6529 45.1879 26.0022C45.1879 18.5012 45.6018 13.6587 41.9639 10.0231C38.2806 6.33974 33.2994 6.80124 25.9869 6.80124H25.9956ZM24.2753 10.2614C40.6856 10.2354 42.7743 8.41108 41.6216 33.7546C41.2121 42.7181 34.3871 41.7344 25.9978 41.7344C10.7011 41.7344 10.2613 41.2967 10.2613 25.9936C10.2613 10.5127 11.4746 10.2701 24.2753 10.2571V10.2614ZM36.2439 13.4486C34.9721 13.4486 33.9408 14.4799 33.9408 15.7517C33.9408 17.0236 34.9721 18.0549 36.2439 18.0549C37.5158 18.0549 38.5471 17.0236 38.5471 15.7517C38.5471 14.4799 37.5158 13.4486 36.2439 13.4486V13.4486ZM25.9956 16.1417C20.5508 16.1417 16.1373 20.5574 16.1373 26.0022C16.1373 31.4471 20.5508 35.8606 25.9956 35.8606C31.4404 35.8606 35.8518 31.4471 35.8518 26.0022C35.8518 20.5574 31.4404 16.1417 25.9956 16.1417V16.1417ZM25.9956 19.6019C34.4564 19.6019 34.4673 32.4026 25.9956 32.4026C17.5369 32.4026 17.5239 19.6019 25.9956 19.6019Z" fill="white"/>
</g>
<defs>
<linearGradient id="paint0_linear_118_391" x1="3.34957" y1="48.6788" x2="51.6781" y2="6.85109" gradientUnits="userSpaceOnUse">
<stop stop-color="#FFDD55"/>
<stop offset="0.5" stop-color="#FF543E"/>
<stop offset="1" stop-color="#C837AB"/>
</linearGradient>
<clipPath id="clip0_118_391">
<rect width="52" height="52" fill="white"/>
</clipPath>
</defs>
</svg>
