<svg width="52" height="52" viewBox="0 0 52 52" fill="none" xmlns="http://www.w3.org/2000/svg">
<path d="M40.7318 33.2484C46.9451 33.2484 52 28.1935 52 21.9802C52 19.2518 51.0085 16.6174 49.2082 14.5624C47.6617 12.7969 45.6143 11.5635 43.3611 11.0222C41.7889 5.31795 36.5638 1.27881 30.5613 1.27881C27.1008 1.27881 23.8118 2.62065 21.3486 5.00016C19.8329 4.14165 18.1273 3.69325 16.3455 3.69325C11.16 3.69325 6.83566 7.63419 6.24234 12.6778C4.60007 13.3709 3.13991 14.5004 2.05796 15.9299C0.711649 17.7086 0 19.8281 0 22.0592C0 27.6683 4.56341 32.2316 10.1724 32.2316C11.5999 32.2316 13.007 31.9286 14.307 31.347C17.0876 34.5253 21.1459 36.3886 25.4067 36.3886C29.3109 36.3886 33.0302 34.839 35.791 32.0991C37.3296 32.8539 39.015 33.2484 40.7318 33.2484ZM34.3293 29.197C32.0894 31.8311 28.8373 33.3417 25.4067 33.3417C21.6731 33.3417 18.1357 31.5385 15.944 28.5181C15.6473 28.1094 15.1829 27.8893 14.7099 27.8893C14.4359 27.8893 14.1588 27.9631 13.91 28.117C12.7798 28.8156 11.4873 29.1848 10.1724 29.1848C6.24345 29.1847 3.04688 25.9883 3.04688 22.0592C3.04688 18.9346 5.13855 16.1266 8.13353 15.2307C8.77266 15.0394 9.21304 14.4545 9.22015 13.7875C9.26189 9.90147 12.4583 6.74003 16.3454 6.74003C17.9246 6.74003 19.4166 7.24094 20.6601 8.18841C21.3059 8.68058 22.2241 8.57983 22.7478 7.95919C24.6963 5.65006 27.5443 4.32568 30.5612 4.32568C35.4582 4.32568 39.6833 7.81375 40.6077 12.6195C40.7306 13.2586 41.246 13.7491 41.8904 13.8403C45.9168 14.4097 48.9531 17.9092 48.9531 21.9802C48.9531 26.5134 45.2651 30.2015 40.7318 30.2015C39.1699 30.2015 37.6411 29.7517 36.3108 28.9007C35.6691 28.4902 34.8227 28.6167 34.3293 29.197Z" fill="#C5002F"/>
<path d="M35.9531 35.4863C32.873 35.4863 30.3672 37.9922 30.3672 41.0723C30.3672 44.1524 32.873 46.6582 35.9531 46.6582C39.0332 46.6582 41.5391 44.1524 41.5391 41.0723C41.5391 37.9922 39.0332 35.4863 35.9531 35.4863ZM35.9531 43.6113C34.5531 43.6113 33.4141 42.4723 33.4141 41.0723C33.4141 39.6722 34.5531 38.5332 35.9531 38.5332C37.3532 38.5332 38.4922 39.6722 38.4922 41.0723C38.4922 42.4723 37.3532 43.6113 35.9531 43.6113Z" fill="#C5002F"/>
<path d="M47.4297 41.5801C44.9096 41.5801 42.8594 43.6303 42.8594 46.1504C42.8594 48.6705 44.9096 50.7207 47.4297 50.7207C49.9498 50.7207 52 48.6705 52 46.1504C52 43.6303 49.9498 41.5801 47.4297 41.5801ZM47.4297 47.6738C46.5897 47.6738 45.9062 46.9904 45.9062 46.1504C45.9062 45.3104 46.5897 44.627 47.4297 44.627C48.2697 44.627 48.9531 45.3104 48.9531 46.1504C48.9531 46.9904 48.2697 47.6738 47.4297 47.6738Z" fill="#C5002F"/>
</svg>
