<svg width="52" height="36" viewBox="0 0 52 36" fill="none" xmlns="http://www.w3.org/2000/svg">
<path d="M45.5021 0H13.0135C11.2192 0 9.76465 1.45457 9.76465 3.24885C9.76465 5.04314 11.2192 6.49771 13.0135 6.49771H45.5021C47.2964 6.49771 48.751 5.04314 48.751 3.24885C48.751 1.45457 47.2964 0 45.5021 0Z" fill="#C5002F"/>
<path d="M6.51591 3.24885C6.51226 2.38861 6.16758 1.56493 5.5575 0.958404C4.29034 -0.301239 2.24377 -0.301239 0.976612 0.958404C0.366436 1.56493 0.0217521 2.38861 0.0181987 3.24885C-0.00606623 3.45931 -0.00606623 3.67191 0.0181987 3.88238C0.0549514 4.09406 0.114852 4.30107 0.196886 4.49966C0.284097 4.69205 0.38735 4.87683 0.505527 5.05196C0.622182 5.2341 0.758329 5.40294 0.911634 5.55554C1.05946 5.70275 1.22281 5.83352 1.39896 5.9454C1.57004 6.06997 1.75553 6.17363 1.95127 6.25404C2.16661 6.36572 2.39616 6.44775 2.63353 6.49771C2.84399 6.52126 3.05659 6.52126 3.26706 6.49771C4.12496 6.49842 4.94834 6.15972 5.5575 5.55554C5.71081 5.40294 5.84695 5.2341 5.96361 5.05196C6.08179 4.87683 6.18504 4.69205 6.27225 4.49966C6.37591 4.30351 6.45764 4.0965 6.51591 3.88238C6.54018 3.67191 6.54018 3.45931 6.51591 3.24885Z" fill="#C5002F"/>
<path d="M6.51578 17.8685C6.53995 17.658 6.53995 17.4454 6.51578 17.235C6.45964 17.0253 6.37781 16.8235 6.27212 16.6339C6.18846 16.4346 6.08501 16.2442 5.96348 16.0654C5.85089 15.8853 5.71423 15.7213 5.55737 15.578C4.29021 14.3184 2.24364 14.3184 0.97648 15.578C0.366303 16.1846 0.0216198 17.0082 0.0180664 17.8685C0.0243611 18.2966 0.106902 18.7201 0.261731 19.1193C0.343155 19.3115 0.441027 19.4963 0.554128 19.6716C0.677686 19.8482 0.819215 20.0115 0.97648 20.1589C1.12004 20.3155 1.2839 20.4521 1.46381 20.565C1.63488 20.6897 1.82027 20.7934 2.01611 20.8737C2.21419 20.957 2.42141 21.017 2.6334 21.0524C2.84122 21.099 3.05392 21.1208 3.26693 21.1173C3.47739 21.1416 3.68999 21.1416 3.90045 21.1173C4.10716 21.0819 4.309 21.0219 4.50149 20.9387C4.70262 20.8589 4.89349 20.7552 5.07004 20.63C5.24995 20.5171 5.41381 20.3805 5.55737 20.2239C5.71393 20.0804 5.85058 19.9165 5.96348 19.7366C6.08836 19.5656 6.19202 19.3802 6.27212 19.1843C6.38309 18.9686 6.46502 18.7392 6.51578 18.502C6.54076 18.2915 6.54076 18.0789 6.51578 17.8685Z" fill="#C5002F"/>
<path d="M6.51598 32.4886C6.54004 32.2781 6.54004 32.0655 6.51598 31.8551C6.45984 31.6402 6.37801 31.433 6.27232 31.2378C6.18511 31.0454 6.08185 30.8606 5.96368 30.6855C5.85078 30.5056 5.71412 30.3417 5.55757 30.1982C4.29041 28.9385 2.24384 28.9385 0.976679 30.1982C0.820124 30.3417 0.683469 30.5056 0.570572 30.6855C0.452394 30.8606 0.349142 31.0454 0.26193 31.2378C0.177663 31.4356 0.11766 31.6429 0.0832427 31.8551C0.0374541 32.0631 0.0157274 32.2756 0.0182656 32.4886C0.0219205 33.3488 0.366604 34.1725 0.976679 34.7791C1.12024 34.9356 1.2841 35.0723 1.46401 35.1852C1.63508 35.3098 1.82047 35.4135 2.01631 35.4938C2.21439 35.5772 2.42161 35.6372 2.6336 35.6725C2.84142 35.7191 3.05412 35.7409 3.26712 35.7375C3.47759 35.7617 3.69019 35.7617 3.90065 35.7375C4.10736 35.702 4.3092 35.642 4.50169 35.5588C4.70282 35.479 4.89369 35.3753 5.07024 35.2501C5.25015 35.1372 5.41401 35.0006 5.55757 34.844C5.71412 34.7005 5.85078 34.5366 5.96368 34.3567C6.08866 34.1858 6.19232 34.0003 6.27232 33.8044C6.38319 33.5886 6.46512 33.3593 6.51598 33.1221C6.54096 32.9117 6.54096 32.6991 6.51598 32.4886Z" fill="#C5002F"/>
<path d="M48.751 14.6196H13.0135C11.2192 14.6196 9.76465 16.0742 9.76465 17.8685C9.76465 19.6628 11.2192 21.1173 13.0135 21.1173H48.751C50.5452 21.1173 51.9998 19.6628 51.9998 17.8685C51.9998 16.0742 50.5452 14.6196 48.751 14.6196Z" fill="#C5002F"/>
<path d="M34.1311 29.2397H13.0135C11.2192 29.2397 9.76465 30.6943 9.76465 32.4886C9.76465 34.2829 11.2192 35.7375 13.0135 35.7375H34.1311C35.9254 35.7375 37.38 34.2829 37.38 32.4886C37.38 30.6943 35.9254 29.2397 34.1311 29.2397Z" fill="#C5002F"/>
</svg>
