<svg width="13" height="19" viewBox="0 0 13 19" fill="none" xmlns="http://www.w3.org/2000/svg">
<path d="M6.0493 18.2477C6.14976 18.3984 6.3189 18.4889 6.5 18.4889C6.6811 18.4889 6.85024 18.3984 6.9507 18.2477C8.23261 16.3249 10.1208 13.9502 11.4365 11.535C12.4886 9.60393 13 7.95694 13 6.5C13 2.9159 10.0841 0 6.5 0C2.9159 0 0 2.9159 0 6.5C0 7.95694 0.511442 9.60393 1.5635 11.535C2.87827 13.9483 4.77003 16.3288 6.0493 18.2477ZM6.5 1.08333C9.48675 1.08333 11.9167 3.51325 11.9167 6.5C11.9167 7.77126 11.4484 9.24871 10.4852 11.0167C9.35105 13.0985 7.73262 15.2103 6.5 16.9855C5.26756 15.2105 3.64903 13.0986 2.51481 11.0167C1.55159 9.24871 1.08333 7.77126 1.08333 6.5C1.08333 3.51325 3.51325 1.08333 6.5 1.08333V1.08333Z" fill="#7E7E7E"/>
<path d="M6.5 9.75C8.29205 9.75 9.75 8.29205 9.75 6.5C9.75 4.70795 8.29205 3.25 6.5 3.25C4.70795 3.25 3.25 4.70795 3.25 6.5C3.25 8.29205 4.70795 9.75 6.5 9.75ZM6.5 4.33333C7.6947 4.33333 8.66667 5.3053 8.66667 6.5C8.66667 7.6947 7.6947 8.66667 6.5 8.66667C5.3053 8.66667 4.33333 7.6947 4.33333 6.5C4.33333 5.3053 5.3053 4.33333 6.5 4.33333Z" fill="#7E7E7E"/>
</svg>
