<svg width="52" height="52" viewBox="0 0 52 52" fill="none" xmlns="http://www.w3.org/2000/svg">
<path d="M25.9774 4.33316C25.6925 4.33596 25.4109 4.39512 25.1488 4.50734C24.8867 4.61957 24.6492 4.78264 24.4499 4.98717C24.2506 5.19169 24.0934 5.43379 23.9873 5.6994C23.8812 5.96501 23.8283 6.24893 23.8317 6.53509V23.9509C23.8318 24.5286 24.0604 25.0827 24.4672 25.4911C24.8739 25.8995 25.4255 26.1289 26.0007 26.1289C26.5758 26.1289 27.1274 25.8995 27.5342 25.4911C27.9409 25.0827 28.1695 24.5286 28.1697 23.9509V6.53509C28.173 6.24499 28.1186 5.95709 28.0097 5.68841C27.9007 5.41972 27.7393 5.17557 27.5351 4.97042C27.3308 4.76527 27.0878 4.6033 26.8203 4.49385C26.5528 4.38439 26.2662 4.32977 25.9774 4.33316ZM38.6189 8.69879C38.5484 8.69675 38.4777 8.69816 38.4073 8.70304C37.9789 8.73957 37.571 8.90333 37.2355 9.17337C36.9 9.44341 36.652 9.80749 36.5231 10.2195C36.3943 10.6315 36.3903 11.0728 36.5118 11.487C36.6333 11.9013 36.8747 12.2698 37.2054 12.5459C40.9589 15.7474 43.3335 20.5126 43.3336 25.8637C43.3336 35.5258 35.6092 43.3135 26.0112 43.3135C16.4133 43.3135 8.67194 35.5258 8.67196 25.8637C8.67197 20.5436 11.0165 15.8108 14.7325 12.6096C14.949 12.424 15.1269 12.1973 15.2562 11.9426C15.3855 11.6879 15.4636 11.4102 15.486 11.1251C15.5084 10.8401 15.4747 10.5536 15.3868 10.2817C15.2989 10.0098 15.1586 9.75792 14.9738 9.54048C14.789 9.32304 14.5634 9.14428 14.3098 9.01443C14.0562 8.88458 13.7796 8.80601 13.4959 8.78351C13.2121 8.76102 12.9267 8.79494 12.656 8.88323C12.3853 8.97151 12.1345 9.11245 11.9181 9.29807C7.27933 13.2941 4.334 19.2505 4.33398 25.8637C4.33396 37.8744 14.0673 47.6664 26.0112 47.6664C37.9552 47.6664 47.6673 37.8744 47.6673 25.8637C47.6673 19.2119 44.6929 13.2311 40.0071 9.23435C39.6217 8.89697 39.13 8.70728 38.6189 8.69879Z" fill="#C5002F"/>
</svg>
