<svg width="15" height="12" viewBox="0 0 15 12" fill="none" xmlns="http://www.w3.org/2000/svg">
<path d="M13.6816 0H1.31836C0.592324 0 0 0.59168 0 1.31836V10.1074C0 10.8316 0.589688 11.4258 1.31836 11.4258H13.6816C14.4059 11.4258 15 10.8361 15 10.1074V1.31836C15 0.594141 14.4103 0 13.6816 0ZM13.4996 0.878906L7.52795 6.85058L1.50466 0.878906H13.4996ZM0.878906 9.92543V1.49616L5.11169 5.69265L0.878906 9.92543ZM1.50038 10.5469L5.73583 6.31143L7.21992 7.78277C7.39172 7.95311 7.66895 7.95255 7.84005 7.78143L9.28711 6.33437L13.4996 10.5469H1.50038ZM14.1211 9.9254L9.90858 5.71289L14.1211 1.50035V9.9254Z" fill="#7E7E7E"/>
</svg>
