<svg width="18" height="18" viewBox="0 0 18 18" fill="none" xmlns="http://www.w3.org/2000/svg">
<path d="M11.4875 4.21412L14.3444 2.11668C14.5168 2.00123 14.5168 1.8088 14.3937 1.6741L12.9899 0.134698C12.916 0.0384853 12.7682 0 12.6451 0H5.35494C5.20717 0 5.08402 0.0577279 5.01014 0.134698C4.66533 0.500307 3.82795 1.40471 3.6063 1.6741C3.48315 1.8088 3.48315 1.98198 3.65555 2.11668L6.51249 4.21412C1.73451 5.29171 -1.02392 9.17871 0.355296 12.9118C1.73451 16.6448 6.70952 18.8 11.4875 17.7224C16.2655 16.6448 19.0239 12.7578 17.6447 9.02476C16.7827 6.69641 14.4676 4.86837 11.4875 4.21412ZM12.6451 0.904401L13.2115 1.52016H12.054L12.6451 0.904401ZM10.0837 1.52016H7.91633L9 0.769703C9.02463 0.788945 10.1576 1.57789 10.0837 1.52016ZM10.5516 2.19365L9 4.77216L7.44839 2.19365H10.5516ZM6.83267 1.36622L6.19232 0.67349H7.86708L6.83267 1.36622ZM9 6.11914C12.4234 6.11914 15.1818 8.2743 15.1818 10.949C15.1818 13.6237 12.4234 15.7981 9 15.7981C5.5766 15.7981 2.81818 13.6237 2.81818 10.949C2.81818 8.29355 5.5766 6.11914 9 6.11914V6.11914ZM10.3546 4.11791L11.5121 2.19365H12.9899L10.3546 4.11791ZM11.8077 0.67349L11.1673 1.36622L10.1576 0.67349H11.8077ZM5.35494 0.904401L5.9214 1.52016H4.76385L5.35494 0.904401ZM6.51249 2.19365C7.94096 4.59897 7.62079 4.0217 7.67005 4.11791L5.03477 2.19365H6.51249ZM9 17.2991C4.51756 17.2991 0.872501 14.4704 0.872501 10.949C0.872501 7.98567 3.53241 5.38792 7.25136 4.75291L8.23651 5.48413C4.36979 5.81126 1.56211 8.52446 1.9808 11.5455C2.39949 14.5666 5.87214 16.7603 9.73886 16.4332C13.6056 16.106 16.4133 13.3928 15.9946 10.3717C15.6498 7.79324 13.0391 5.75353 9.73886 5.48413L10.724 4.75291C15.1079 5.50337 17.891 8.89007 16.9305 12.3152C16.1423 15.2401 12.8175 17.3183 9 17.2991V17.2991Z" fill="#848484"/>
</svg>
