<svg width="18" height="18" viewBox="0 0 18 18" fill="none" xmlns="http://www.w3.org/2000/svg">
<g clip-path="url(#clip0_471_43)">
<path d="M12.2787 8.45117C12.1328 8.45117 12.0146 8.5694 12.0146 8.7152V9.02021C12.0146 9.16604 12.1329 9.28423 12.2787 9.28423C12.4245 9.28423 12.5427 9.166 12.5427 9.02021V8.7152C12.5427 8.56937 12.4245 8.45117 12.2787 8.45117Z" fill="#9C9C9C"/>
<path d="M14.3382 8.45117C14.1924 8.45117 14.0742 8.5694 14.0742 8.7152V9.02021C14.0742 9.166 14.1924 9.28423 14.3382 9.28423C14.4841 9.28423 14.6023 9.166 14.6023 9.02021V8.7152C14.6023 8.56937 14.484 8.45117 14.3382 8.45117Z" fill="#9C9C9C"/>
<path d="M14.0299 9.97111C13.9115 9.88596 13.7465 9.91286 13.6613 10.0312C13.6095 10.1033 13.4801 10.176 13.3081 10.176C13.1362 10.176 13.0068 10.1033 12.955 10.0312C12.8698 9.91286 12.7048 9.88596 12.5864 9.97111C12.468 10.0563 12.4411 10.2213 12.5263 10.3397C12.6905 10.5679 12.9828 10.7041 13.3081 10.7041C13.6335 10.7041 13.9258 10.5679 14.09 10.3397C14.1752 10.2213 14.1482 10.0563 14.0299 9.97111Z" fill="#9C9C9C"/>
<path d="M3.83141 8.85107C3.68558 8.85107 3.56738 8.9693 3.56738 9.1151V9.41041C3.56738 9.55624 3.68561 9.67443 3.83141 9.67443C3.9772 9.67443 4.09543 9.55624 4.09543 9.41041V9.1151C4.09543 8.96927 3.9772 8.85107 3.83141 8.85107Z" fill="#9C9C9C"/>
<path d="M5.53183 10.3246C5.41346 10.2395 5.24847 10.2664 5.16332 10.3847C5.11435 10.4528 4.99176 10.5214 4.82818 10.5214C4.6646 10.5214 4.54201 10.4528 4.49303 10.3847C4.40785 10.2664 4.24283 10.2395 4.12449 10.3246C4.00612 10.4098 3.97922 10.5748 4.06437 10.6932C4.22493 10.9163 4.51044 11.0495 4.82814 11.0495C5.14585 11.0495 5.43139 10.9163 5.59195 10.6932C5.6771 10.5748 5.6502 10.4098 5.53183 10.3246Z" fill="#9C9C9C"/>
<path d="M10.388 14.2163C10.2422 14.2163 10.124 14.3345 10.124 14.4803V14.9953C10.124 15.1412 10.2422 15.2594 10.388 15.2594C10.5339 15.2594 10.6521 15.1411 10.6521 14.9953V14.4803C10.6521 14.3345 10.5339 14.2163 10.388 14.2163Z" fill="#9C9C9C"/>
<path d="M10.1494 0.458984C9.71843 0.458984 9.31272 0.616308 8.99909 0.898367C8.68546 0.616308 8.27976 0.458984 7.84882 0.458984C6.8983 0.458984 6.125 1.23228 6.125 2.1828C6.12496 3.01962 6.61311 3.82445 7.53659 4.51028C8.2097 5.01017 8.87485 5.27317 8.90284 5.2841C8.93377 5.2962 8.9664 5.30225 8.99906 5.30225C9.03172 5.30225 9.06434 5.2962 9.09528 5.2841C9.12327 5.27317 9.78839 5.01017 10.4615 4.51028C11.385 3.82442 11.8732 3.01962 11.8732 2.1828C11.8732 1.23228 11.0999 0.458984 10.1494 0.458984ZM8.99902 4.75138C8.54589 4.55071 6.65301 3.62575 6.65301 2.18283C6.65301 1.52348 7.18943 0.987066 7.84878 0.987066C8.21908 0.987066 8.56256 1.15459 8.79111 1.44666C8.84114 1.51061 8.91785 1.54798 8.99902 1.54798C9.0802 1.54798 9.15691 1.51061 9.20694 1.44666C9.43552 1.15459 9.779 0.987066 10.1493 0.987066C10.8086 0.987066 11.345 1.52348 11.345 2.18283C11.345 3.62596 9.45173 4.55096 8.99902 4.75138Z" fill="#9C9C9C"/>
<path d="M16.4679 12.1733L14.7989 11.6818C14.791 11.6794 14.7829 11.6774 14.7747 11.6757L14.5128 11.6231C14.4505 11.6105 14.4053 11.5553 14.4053 11.4918V11.3658C15.0907 11.0533 15.621 10.4578 15.8449 9.72905H16.0468C16.4029 9.72905 16.6926 9.43932 16.6926 9.08323V8.66016C16.6926 8.46968 16.608 8.29179 16.4677 8.17092V7.70524C16.4677 6.18744 15.2328 4.95262 13.715 4.95262H12.902C11.3842 4.95262 10.1494 6.18744 10.1494 7.70524V8.17092C10.009 8.29179 9.92446 8.46968 9.92446 8.66016V9.08323C9.92446 9.43932 10.2142 9.72905 10.5703 9.72905H10.7721C10.9909 10.441 11.5017 11.0263 12.1643 11.3444V11.5013C12.1643 11.5649 12.1191 11.6201 12.0568 11.6326L11.8465 11.6749C11.8463 11.6749 11.8461 11.675 11.8459 11.675L11.8424 11.6757C11.8341 11.6774 11.826 11.6795 11.8181 11.6819L10.1491 12.1733C9.5678 12.3444 9.0998 12.7553 8.84024 13.2773C8.72781 13.0987 8.5875 12.9382 8.42448 12.803L9.06781 12.5992C9.43628 12.4826 9.67802 12.1312 9.65573 11.7448C9.61607 11.0578 9.44894 9.66626 8.77517 8.06517C7.9381 6.07607 6.73828 5.3142 5.84584 5.02887C5.61792 4.71299 5.24702 4.50684 4.82863 4.50684C4.41023 4.50684 4.0393 4.71299 3.81138 5.02887C2.91894 5.31423 1.71913 6.0761 0.882056 8.06517C0.208215 9.66626 0.0410822 11.0578 0.00142587 11.7448C-0.0208984 12.1311 0.220871 12.4825 0.589344 12.5992L1.23263 12.8029C0.788223 13.1716 0.512036 13.7277 0.512036 14.3267V17.2765C0.512036 17.4224 0.630266 17.5405 0.776059 17.5405L17.736 17.5388C17.8818 17.5388 18 17.4206 18 17.2748V14.2215C18 13.2811 17.37 12.4389 16.4679 12.1733ZM8.28839 8.26999C8.93151 9.79823 9.0908 11.1221 9.12849 11.7752C9.13686 11.9203 9.04633 12.0521 8.90834 12.0958L7.78939 12.4502C7.76854 12.4432 7.74762 12.4367 7.7267 12.4306L6.19751 11.9802C6.19009 11.978 6.18257 11.9762 6.17494 11.9746L5.93524 11.9264C5.88863 11.9171 5.85481 11.8758 5.85481 11.8283V11.7071C5.86497 11.7027 5.87474 11.6976 5.88483 11.693C5.91246 11.6805 5.93992 11.6679 5.96702 11.6544C5.98042 11.6478 5.99364 11.6409 6.00689 11.634C6.03417 11.6199 6.06117 11.6055 6.08789 11.5905C6.09942 11.584 6.11085 11.5773 6.12227 11.5707C6.15135 11.5537 6.18007 11.5362 6.20841 11.5181C6.21667 11.5129 6.22493 11.5077 6.23309 11.5023C6.26613 11.4807 6.29862 11.4584 6.33058 11.4354C6.3337 11.4331 6.3369 11.431 6.34003 11.4287C6.78553 11.1049 7.12405 10.6425 7.29066 10.1049H7.48532C7.8347 10.1049 8.11898 9.82059 8.11898 9.47121V9.0616C8.11898 9.04216 8.11778 9.023 8.11606 9.00402C8.11564 8.99941 8.11518 8.99484 8.11469 8.99027C8.11258 8.97157 8.10991 8.95301 8.10621 8.9348C8.10597 8.9336 8.10562 8.93244 8.10537 8.93128C8.10175 8.91402 8.09725 8.89707 8.09226 8.88034C8.09099 8.87612 8.08973 8.8719 8.08839 8.86772C8.0828 8.85032 8.07665 8.8332 8.06962 8.8165C8.06884 8.81467 8.06796 8.81295 8.06719 8.81112C8.06058 8.79586 8.05334 8.78099 8.0456 8.76636C8.04364 8.76264 8.0417 8.75891 8.03963 8.75522C8.03091 8.7395 8.02166 8.72414 8.01171 8.7093C8.01027 8.70716 8.00873 8.70516 8.00725 8.70305C7.99814 8.68986 7.98855 8.67707 7.97849 8.66462C7.97596 8.66149 7.9735 8.65833 7.9709 8.65523C7.95944 8.64156 7.94752 8.62834 7.93497 8.61572C7.93286 8.61357 7.93061 8.61157 7.92846 8.60946C7.91721 8.59846 7.90558 8.58787 7.89355 8.57771C7.89064 8.57525 7.88779 8.57276 7.88483 8.57033C7.87102 8.55908 7.85675 8.54836 7.84198 8.53827C7.8392 8.53637 7.83632 8.53461 7.83354 8.53278C7.82679 8.52832 7.82011 8.52375 7.81319 8.51953C7.81312 8.47569 7.81174 8.43206 7.80974 8.3885C7.80904 8.37268 7.80802 8.357 7.80707 8.34125C7.80538 8.31415 7.80331 8.28715 7.80088 8.26018C7.79905 8.23944 7.79733 8.21866 7.79508 8.19806C7.79427 8.19093 7.79322 8.18382 7.79237 8.17669C7.70462 7.42273 7.33499 6.75402 6.79169 6.27839C6.79165 6.27836 6.79162 6.27836 6.79162 6.27832C6.74099 6.23399 6.68903 6.19117 6.63549 6.15032C6.63292 6.14835 6.63042 6.14628 6.62782 6.14431C6.6114 6.13186 6.59463 6.11984 6.57794 6.10774C6.55832 6.09347 6.5386 6.07934 6.51863 6.06552C6.50502 6.05614 6.49142 6.04682 6.47767 6.03768C6.44814 6.01799 6.41826 5.9988 6.38795 5.98009C6.38257 5.97679 6.37733 5.97331 6.37195 5.97004C6.33381 5.94687 6.295 5.92462 6.25569 5.9031C6.24965 5.8998 6.24353 5.89667 6.23748 5.8934C6.2037 5.87522 6.16953 5.85771 6.13493 5.8408C6.12688 5.83687 6.11883 5.83293 6.11074 5.82906C6.10093 5.82439 6.0913 5.81939 6.08142 5.81479C6.0822 5.79675 6.08262 5.77872 6.08262 5.76072C6.08262 5.73748 6.08188 5.71442 6.08061 5.69146C6.08054 5.69037 6.08058 5.68928 6.08051 5.68819C6.80047 6.02977 7.65031 6.7537 8.28839 8.26999ZM5.82545 9.67438C5.97128 9.67438 6.08947 9.55615 6.08947 9.41035V9.11504C6.08947 9.05528 6.06936 9.00033 6.0359 8.95607H6.87747V9.34342C6.87747 9.37994 6.87645 9.41651 6.87444 9.45314C6.8743 9.45553 6.87402 9.45789 6.87392 9.46028C6.87191 9.49487 6.86917 9.52946 6.86541 9.56406C6.8653 9.5649 6.8652 9.56571 6.86509 9.56655C6.86115 9.60227 6.8563 9.63796 6.8505 9.67353C6.85022 9.67533 6.84983 9.67708 6.84955 9.67888C6.84396 9.71256 6.83753 9.74613 6.83029 9.7796C6.82709 9.79423 6.82368 9.80878 6.82016 9.82333C6.81517 9.84404 6.80986 9.86464 6.80424 9.88514C6.80037 9.89927 6.7964 9.91337 6.79221 9.9274C6.78799 9.94149 6.78378 9.95559 6.77928 9.96955C6.77439 9.98477 6.76915 9.99982 6.76391 10.0149C6.75611 10.0372 6.74799 10.0594 6.73941 10.0815C6.73586 10.0906 6.73227 10.0998 6.72858 10.1089C6.7059 10.1648 6.68087 10.2197 6.65345 10.2732C6.65271 10.2746 6.65201 10.276 6.65127 10.2774C6.51374 10.5441 6.31859 10.7785 6.08202 10.9625C6.07952 10.9644 6.07706 10.9664 6.07457 10.9683C6.06012 10.9794 6.04546 10.9903 6.03069 11.0011C6.02247 11.0071 6.01413 11.013 6.00584 11.0188C5.9865 11.0325 5.96688 11.0458 5.94706 11.0588C5.93345 11.0677 5.91985 11.0765 5.90603 11.0851C5.89548 11.0917 5.88483 11.0981 5.87414 11.1045C5.8554 11.1157 5.83652 11.1266 5.81743 11.1372C5.8097 11.1415 5.80197 11.1457 5.7942 11.15C5.7724 11.1617 5.75036 11.1729 5.7281 11.1838C5.72026 11.1877 5.71235 11.1915 5.70444 11.1953C5.67892 11.2074 5.65318 11.2192 5.6271 11.2303C5.62411 11.2316 5.62109 11.2327 5.61806 11.2339C5.5943 11.2439 5.57025 11.2533 5.54606 11.2624C5.53713 11.2657 5.52817 11.269 5.51917 11.2723C5.5031 11.278 5.48686 11.2833 5.47062 11.2887C5.45589 11.2936 5.44119 11.2986 5.42639 11.3031C5.41131 11.3077 5.39602 11.3118 5.38079 11.3161C5.35502 11.3233 5.32911 11.3301 5.3031 11.3362C5.2857 11.3404 5.26836 11.3446 5.25082 11.3483C5.23665 11.3513 5.22241 11.3538 5.20818 11.3565C5.19106 11.3597 5.17397 11.3629 5.15671 11.3657C5.14279 11.368 5.12883 11.3699 5.11487 11.3719C5.09663 11.3745 5.07827 11.3768 5.05989 11.3789C5.04681 11.3804 5.03373 11.3818 5.02062 11.383C4.99988 11.3849 4.97899 11.3865 4.95804 11.3878C4.94707 11.3885 4.93614 11.3893 4.92513 11.3899C4.89311 11.3914 4.86094 11.3923 4.82852 11.3923C4.79523 11.3923 4.76211 11.3914 4.72921 11.3898C4.71915 11.3893 4.70913 11.3884 4.69911 11.3878C4.67605 11.3863 4.65299 11.3847 4.63014 11.3825C4.61896 11.3814 4.60781 11.3801 4.59667 11.3788C4.5748 11.3763 4.55304 11.3736 4.53138 11.3705C4.52045 11.3689 4.50955 11.3671 4.49865 11.3654C4.47657 11.3618 4.45457 11.3578 4.43273 11.3535C4.42275 11.3516 4.41277 11.3496 4.40282 11.3475C4.37961 11.3426 4.35659 11.3372 4.3337 11.3315C4.32533 11.3294 4.31696 11.3274 4.30863 11.3252C4.28279 11.3185 4.2572 11.3111 4.23178 11.3034C4.22665 11.3018 4.22145 11.3004 4.21631 11.2988C4.09119 11.2595 3.97124 11.2085 3.85768 11.1471C3.85406 11.1452 3.85048 11.1432 3.84689 11.1412C3.82151 11.1273 3.79644 11.1129 3.77176 11.098C3.76554 11.0942 3.75942 11.0903 3.75323 11.0864C3.73643 11.076 3.71984 11.0653 3.70335 11.0544C3.69048 11.0459 3.67765 11.0373 3.66499 11.0285C3.66039 11.0253 3.65589 11.022 3.65132 11.0188C3.32623 10.7885 3.0705 10.4657 2.92295 10.0946C2.922 10.0921 2.92101 10.0897 2.92006 10.0873C2.90702 10.0541 2.89496 10.0205 2.88368 9.98656C2.88178 9.98083 2.87971 9.97517 2.87788 9.96941C2.87313 9.95464 2.8687 9.93977 2.86427 9.9249C2.8603 9.91147 2.85647 9.89794 2.85274 9.88437C2.84764 9.86584 2.84279 9.84724 2.83826 9.82854C2.83425 9.81212 2.83042 9.79567 2.82683 9.77907C2.81973 9.74627 2.81344 9.71333 2.80792 9.68028C2.80753 9.67786 2.807 9.67547 2.80662 9.67304C2.80092 9.6381 2.79617 9.60305 2.79231 9.56799C2.79217 9.56655 2.79192 9.56515 2.79174 9.56371C2.78805 9.52964 2.78535 9.49554 2.78338 9.46144C2.7832 9.45859 2.78289 9.45581 2.78274 9.45296C2.78078 9.4164 2.77976 9.37984 2.77976 9.34335V8.91891C2.78222 8.91789 2.78454 8.91659 2.78696 8.91557C2.79667 8.91142 2.80619 8.90699 2.81558 8.90224C2.81934 8.90034 2.8231 8.89852 2.8268 8.89655C2.83935 8.88983 2.85165 8.88273 2.86357 8.87496C2.86378 8.87482 2.86396 8.87468 2.86417 8.87454C2.87587 8.86687 2.88712 8.85861 2.89816 8.85C2.90147 8.84743 2.90467 8.84473 2.9079 8.84205C2.91609 8.8353 2.92407 8.82831 2.93181 8.82107C2.93483 8.81822 2.93789 8.81544 2.94088 8.81252C2.96127 8.79248 2.98001 8.77062 2.99681 8.74706C2.99927 8.74362 3.00156 8.7401 3.00395 8.73662C3.00999 8.72769 3.01576 8.71855 3.02124 8.70916C3.02339 8.70547 3.0256 8.70185 3.02768 8.69809C3.03474 8.68526 3.04149 8.67218 3.04747 8.65861C3.05299 8.64609 3.05756 8.63316 3.06108 8.6199L3.25574 7.88918C3.2673 7.84576 3.29982 7.82959 3.31817 7.82382C3.33663 7.81806 3.37267 7.81268 3.40719 7.84179C4.35198 8.63973 5.1071 8.89124 5.62436 8.94422C5.58526 8.99027 5.56153 9.04979 5.56153 9.11494V9.41025C5.56143 9.55618 5.67966 9.67438 5.82545 9.67438ZM7.39486 9.57689C7.39634 9.56093 7.39701 9.54497 7.39817 9.52897C7.39964 9.50819 7.40147 9.48752 7.40246 9.4666C7.40446 9.42551 7.40558 9.38441 7.40558 9.34342V8.95607H7.41592H7.48528C7.5435 8.95607 7.59089 9.00346 7.59089 9.06167V9.47128C7.59089 9.5295 7.5435 9.57689 7.48528 9.57689H7.39486ZM4.11647 5.62051C4.12012 5.60192 4.12438 5.58357 4.12944 5.56553C4.13043 5.56194 4.13173 5.55843 4.13278 5.55484C4.13728 5.53973 4.14217 5.52478 4.14758 5.51009C4.14944 5.50506 4.15141 5.5001 4.15338 5.49511C4.15897 5.48098 4.16495 5.46706 4.17138 5.45335C4.17307 5.44969 4.17472 5.44603 4.17648 5.44241C4.29464 5.20135 4.54249 5.03485 4.82859 5.03485C5.11466 5.03485 5.36244 5.20128 5.48064 5.44231C5.48247 5.446 5.48412 5.44976 5.48588 5.45349C5.49227 5.46709 5.49818 5.48094 5.50374 5.49497C5.5057 5.5 5.50774 5.50503 5.50961 5.51012C5.51502 5.52475 5.51987 5.53962 5.52434 5.55467C5.52543 5.55829 5.52669 5.56184 5.52771 5.56549C5.53274 5.58353 5.53703 5.60188 5.54065 5.62044C5.54097 5.62203 5.54114 5.62361 5.54146 5.62519C5.5075 5.61682 5.4734 5.60926 5.43919 5.60213C5.43036 5.6003 5.4215 5.59861 5.41265 5.59685C5.37186 5.58873 5.33098 5.58128 5.28988 5.57488C5.28668 5.57439 5.28352 5.57376 5.28028 5.57326C5.23641 5.56658 5.19232 5.56117 5.14813 5.55642C5.13948 5.55551 5.13087 5.55453 5.12222 5.55368C5.07863 5.54939 5.03493 5.54605 4.99109 5.54366C4.98318 5.54324 4.97527 5.54296 4.96736 5.54261C4.92123 5.5405 4.875 5.53909 4.82859 5.53909C4.78219 5.53909 4.73599 5.5405 4.68983 5.54261C4.68192 5.54296 4.67398 5.54324 4.66607 5.54366C4.62223 5.54602 4.57849 5.54939 4.53493 5.55368C4.52625 5.55453 4.51764 5.55551 4.50899 5.55642C4.4648 5.56114 4.42075 5.56655 4.37687 5.57326C4.37364 5.57376 4.37044 5.57439 4.3672 5.57488C4.32618 5.58128 4.28532 5.5887 4.24461 5.59682C4.23568 5.59858 4.22675 5.60026 4.21786 5.60213C4.18369 5.60926 4.14962 5.61682 4.11569 5.62519C4.11598 5.62368 4.11615 5.62206 4.11647 5.62051ZM3.67266 6.35686C3.67779 6.35412 3.68289 6.35124 3.68805 6.34853C3.75278 6.31446 3.81926 6.28321 3.88721 6.25491C3.89495 6.25171 3.90275 6.24869 3.91052 6.24556C3.93432 6.23592 3.95837 6.22671 3.98256 6.21782C3.99873 6.21188 4.01494 6.20618 4.03118 6.20059C4.05055 6.19395 4.06999 6.18748 4.08954 6.18129C4.10684 6.17584 4.12417 6.17057 4.14157 6.16547C4.16094 6.15981 4.18038 6.15443 4.19996 6.14926C4.2174 6.14462 4.23487 6.14012 4.25242 6.1359C4.27256 6.13105 4.29288 6.12655 4.3132 6.12216C4.33029 6.1185 4.34737 6.11485 4.3645 6.11154C4.38591 6.10743 4.40749 6.10381 4.42911 6.10026C4.44546 6.09755 4.46181 6.09477 4.47823 6.09242C4.50129 6.08911 4.52453 6.0864 4.5478 6.08377C4.56309 6.08201 4.57832 6.08004 4.59364 6.07856C4.61963 6.0761 4.64582 6.07438 4.67204 6.07273C4.68488 6.07192 4.69764 6.07072 4.7105 6.07013C4.74963 6.06826 4.78894 6.06721 4.82852 6.06721C4.86807 6.06721 4.90738 6.06826 4.94651 6.07013C4.95941 6.07072 4.97224 6.07192 4.98515 6.07273C5.0113 6.07438 5.03742 6.07607 5.06333 6.07856C5.07873 6.08004 5.09402 6.08205 5.10935 6.0838C5.13255 6.08644 5.15572 6.08915 5.17872 6.09245C5.1952 6.09481 5.21159 6.09762 5.22804 6.10033C5.24959 6.10388 5.27111 6.1075 5.29245 6.11158C5.30967 6.11488 5.32679 6.11854 5.34395 6.12223C5.36423 6.12659 5.38445 6.13105 5.40452 6.1359C5.42214 6.14016 5.43968 6.14469 5.45719 6.14933C5.47667 6.1545 5.49604 6.15985 5.51534 6.16547C5.53281 6.17057 5.55021 6.17588 5.56761 6.18136C5.58709 6.18751 5.60646 6.19395 5.62573 6.20059C5.64208 6.20622 5.65835 6.21191 5.67459 6.21789C5.69878 6.22682 5.72286 6.23599 5.7467 6.24566C5.7544 6.24876 5.76213 6.25174 5.76976 6.25494C5.83779 6.28328 5.90427 6.31453 5.96906 6.34863C5.97416 6.35131 5.97915 6.35412 5.98422 6.35683C6.01069 6.37099 6.03685 6.38565 6.06272 6.40077C6.0707 6.40545 6.07872 6.41016 6.08663 6.4149C6.10965 6.42869 6.13236 6.44292 6.15486 6.45744C6.16337 6.46293 6.17199 6.46827 6.18042 6.4739C6.20489 6.4901 6.22897 6.50687 6.25284 6.52392C6.27193 6.5376 6.29067 6.55166 6.30931 6.56586C6.31968 6.57374 6.33012 6.58151 6.34035 6.58953C6.36011 6.60506 6.37958 6.62095 6.39885 6.63709C6.40293 6.6405 6.40701 6.64391 6.41108 6.64736C6.88443 7.04902 7.19749 7.6227 7.26897 8.24964C7.27034 8.2618 7.27192 8.27389 7.27308 8.28613C7.27477 8.30332 7.27603 8.32058 7.27733 8.33784C7.27899 8.35968 7.28043 8.38161 7.28148 8.40359C7.28187 8.41174 7.28226 8.4199 7.28257 8.42809H7.14131H5.84623C5.03974 8.42809 4.1852 7.80811 3.74764 7.43855C3.73488 7.42775 3.72166 7.41774 3.70823 7.4081C3.70444 7.4054 3.70064 7.40279 3.69681 7.40016C3.68605 7.39277 3.67512 7.38578 3.66401 7.37917C3.66074 7.3772 3.65754 7.37516 3.65423 7.37326C3.64021 7.36525 3.62597 7.35776 3.61148 7.3509C3.60821 7.34936 3.60487 7.34799 3.6016 7.34651C3.58986 7.3412 3.57798 7.33624 3.56599 7.33171C3.56163 7.33006 3.55731 7.3284 3.55291 7.32686C3.53864 7.32179 3.52426 7.31715 3.50967 7.31318C3.50872 7.31293 3.50781 7.31258 3.50686 7.31234C3.49146 7.30822 3.47585 7.30488 3.46017 7.30197C3.45567 7.30112 3.45114 7.30042 3.44664 7.29968C3.4343 7.29768 3.42192 7.29602 3.40948 7.29476C3.4055 7.29437 3.40153 7.29384 3.39756 7.29353C3.3817 7.29223 3.36581 7.29152 3.34989 7.29142C3.34901 7.29142 3.34809 7.29131 3.34721 7.29131C3.3438 7.29131 3.34043 7.29166 3.33702 7.2917C3.32686 7.29188 3.31666 7.29219 3.30647 7.29286C3.30119 7.29321 3.29592 7.2937 3.29061 7.2942C3.28112 7.29508 3.27166 7.29613 3.26217 7.29747C3.25686 7.2982 3.25155 7.29894 3.24624 7.29982C3.23623 7.30147 3.22624 7.30344 3.21629 7.30559C3.21176 7.30657 3.20722 7.30742 3.20269 7.30847C3.18827 7.31192 3.17389 7.31575 3.15958 7.32025C2.95526 7.38448 2.80036 7.54641 2.7452 7.75344L2.56544 8.42813H2.51545H2.37419C2.37451 8.41997 2.37486 8.41181 2.37528 8.40366C2.37634 8.38161 2.37781 8.35968 2.37947 8.33781C2.3808 8.32058 2.38203 8.30336 2.38372 8.2862C2.38492 8.27389 2.3865 8.2617 2.38787 8.24946C2.45938 7.62256 2.77244 7.04898 3.24575 6.64736C3.2498 6.64395 3.25387 6.64054 3.25795 6.63713C3.27725 6.62099 3.29676 6.60506 3.31656 6.58949C3.32665 6.58158 3.33695 6.57392 3.34714 6.56618C3.36609 6.55177 3.38511 6.53749 3.40452 6.52361C3.42818 6.5067 3.45209 6.49007 3.47634 6.474C3.48489 6.46834 3.4936 6.46293 3.50222 6.45737C3.52465 6.44292 3.54722 6.42876 3.57014 6.41505C3.57816 6.41023 3.58621 6.40548 3.59429 6.40077C3.62024 6.38558 3.64629 6.37099 3.67266 6.35686ZM0.748778 12.0958C0.610754 12.0521 0.520227 11.9203 0.528594 11.7752C0.566317 11.1221 0.725575 9.79823 1.36869 8.26999C2.00678 6.75374 2.85661 6.02977 3.57671 5.68826C3.57664 5.68935 3.57668 5.69044 3.57661 5.69153C3.57534 5.71445 3.5746 5.73755 3.5746 5.76079C3.5746 5.77879 3.57499 5.79679 3.5758 5.81486C3.56596 5.81943 3.55636 5.82442 3.54655 5.82906C3.53839 5.83296 3.53027 5.83697 3.52215 5.84091C3.4877 5.85775 3.4536 5.87522 3.41995 5.89333C3.41376 5.89667 3.40751 5.89987 3.40135 5.90324C3.36212 5.92472 3.32338 5.9469 3.28534 5.97004C3.27978 5.97341 3.27437 5.97703 3.26882 5.98044C3.23872 5.99901 3.20901 6.01806 3.17966 6.03764C3.16581 6.04685 3.15206 6.05628 3.13835 6.06573C3.11852 6.07944 3.09894 6.09344 3.0795 6.10764C3.06269 6.11984 3.04578 6.13197 3.02923 6.14452C3.02736 6.14592 3.02557 6.14744 3.02374 6.14884C2.39434 6.6283 1.96083 7.35168 1.86481 8.17683C1.86397 8.18396 1.86288 8.19103 1.86211 8.1982C1.85986 8.21884 1.85813 8.23958 1.85631 8.26032C1.85388 8.28729 1.85181 8.31429 1.85012 8.34139C1.84917 8.35714 1.84815 8.37286 1.84745 8.38864C1.84544 8.43217 1.84407 8.47583 1.844 8.51967C1.83708 8.52389 1.8304 8.52846 1.82365 8.53293C1.82083 8.53479 1.81799 8.53651 1.81521 8.53841C1.80044 8.5485 1.78617 8.55922 1.77235 8.57047C1.7694 8.57286 1.76655 8.57539 1.76363 8.57786C1.75161 8.58802 1.73994 8.5986 1.72872 8.6096C1.72658 8.61171 1.72433 8.61371 1.72222 8.61586C1.70967 8.62852 1.69772 8.64173 1.68629 8.65537C1.68372 8.65847 1.68123 8.6616 1.6787 8.66476C1.66868 8.67721 1.65904 8.68997 1.64994 8.70319C1.6485 8.7053 1.64692 8.70734 1.64547 8.70945C1.63549 8.72428 1.62628 8.73964 1.61756 8.75536C1.61552 8.75905 1.61359 8.76278 1.61158 8.7665C1.60385 8.78113 1.59657 8.796 1.59 8.81126C1.58922 8.81305 1.58831 8.81481 1.58757 8.81664C1.58054 8.83334 1.57439 8.85046 1.5688 8.86786C1.56746 8.87204 1.5662 8.87626 1.56493 8.88048C1.55994 8.89721 1.55544 8.91412 1.55182 8.93142C1.55157 8.93262 1.55122 8.93378 1.55097 8.93494C1.54725 8.95315 1.54461 8.97168 1.5425 8.99041C1.54197 8.99498 1.54155 8.99955 1.54113 9.00416C1.53941 9.02318 1.53821 9.0423 1.53821 9.06175V9.47135C1.53821 9.82073 1.82249 10.105 2.17187 10.105H2.36646C2.36664 10.1056 2.36685 10.1061 2.36702 10.1067C2.37215 10.1231 2.37806 10.1393 2.38351 10.1557C2.60208 10.818 3.07704 11.3595 3.70665 11.663C3.70999 11.6646 3.7133 11.6663 3.71667 11.6679C3.73084 11.6747 3.74466 11.682 3.75896 11.6885V11.8371C3.75896 11.8846 3.72514 11.9259 3.67842 11.9353L3.48214 11.9748C3.47458 11.9764 3.4671 11.9782 3.45968 11.9804L1.93042 12.4306C1.92992 12.4307 1.9294 12.4309 1.9289 12.431C1.90851 12.4371 1.88809 12.4435 1.86773 12.4502L0.748778 12.0958ZM2.2547 9.46668C2.25565 9.48707 2.25744 9.50724 2.25888 9.52749C2.26008 9.54395 2.26078 9.5604 2.26226 9.57685H2.17183C2.11362 9.57685 2.06622 9.52946 2.06622 9.47125V9.06164C2.06622 9.00342 2.11362 8.95603 2.17183 8.95603H2.24123H2.25157V9.34338C2.25157 9.38444 2.25269 9.42554 2.2547 9.46668ZM8.6171 17.0125H8.617H7.8899V14.5221C7.8899 14.3897 7.8468 14.2587 7.76857 14.1532C7.43325 13.701 6.89751 13.431 6.33546 13.431C5.80418 13.431 5.30443 13.6655 4.96433 14.0743C4.91768 14.1304 4.85925 14.1388 4.82856 14.1388C4.79787 14.1388 4.73944 14.1305 4.69275 14.0743C4.35268 13.6655 3.8529 13.431 3.32166 13.431C2.75961 13.431 2.22387 13.701 1.88854 14.1532C1.81029 14.2587 1.76722 14.3897 1.76722 14.5221V14.9953C1.76722 15.1411 1.88545 15.2593 2.03124 15.2593C2.17704 15.2593 2.29527 15.1411 2.29527 14.9953V14.5221C2.29527 14.5022 2.30146 14.4829 2.31271 14.4678C2.5524 14.1445 2.92017 13.9591 3.32166 13.9591C3.69558 13.9591 4.04735 14.1242 4.2868 14.412C4.42155 14.574 4.61899 14.6669 4.82859 14.6669C5.03816 14.6669 5.2356 14.574 5.37032 14.412C5.60977 14.1242 5.96154 13.9591 6.3355 13.9591C6.73698 13.9591 7.10475 14.1445 7.34445 14.4678C7.35566 14.4829 7.36185 14.5022 7.36185 14.5221V17.0125H2.29527V16.2238C2.29527 16.0779 2.17704 15.9597 2.03124 15.9597C1.88545 15.9597 1.76722 16.078 1.76722 16.2238V17.0125H1.04008V14.3267C1.04008 13.7129 1.43587 13.1608 2.01099 12.9594C2.01507 12.9579 2.01912 12.9564 2.02319 12.9549C2.03044 12.9525 2.03782 12.9503 2.04513 12.948C2.05663 12.9443 2.06812 12.9404 2.07962 12.937H2.07958L3.59763 12.49L3.78255 12.4529C3.80055 12.4493 3.81824 12.4449 3.8356 12.4397C3.84151 12.438 3.84717 12.4357 3.85297 12.4338C3.86426 12.4301 3.87561 12.4265 3.88662 12.4223C3.89344 12.4196 3.89998 12.4164 3.90666 12.4135C3.91632 12.4093 3.92606 12.4053 3.93545 12.4007C3.94241 12.3973 3.94905 12.3933 3.95587 12.3897C3.96459 12.385 3.97342 12.3804 3.98189 12.3753C3.98878 12.3711 3.99532 12.3665 4.002 12.3621C4.00998 12.3569 4.01803 12.3518 4.02577 12.3462C4.03241 12.3414 4.03867 12.3362 4.0451 12.3312C4.05241 12.3254 4.05983 12.3198 4.0669 12.3137C4.07319 12.3084 4.0791 12.3026 4.08514 12.297C4.09186 12.2907 4.09864 12.2846 4.10508 12.278C4.11095 12.2721 4.11643 12.2658 4.12206 12.2597C4.12818 12.253 4.13433 12.2464 4.14016 12.2394C4.14554 12.2329 4.15061 12.2262 4.15574 12.2196C4.16122 12.2124 4.16678 12.2054 4.17194 12.198C4.1768 12.1911 4.18133 12.184 4.18594 12.1768C4.19082 12.1693 4.19571 12.1618 4.20025 12.1541C4.20453 12.1467 4.20851 12.1393 4.21252 12.1317C4.21677 12.1238 4.22099 12.1159 4.22489 12.1078C4.22858 12.1001 4.23196 12.0923 4.23533 12.0844C4.23892 12.0762 4.24243 12.0679 4.24567 12.0595C4.24873 12.0515 4.25147 12.0433 4.25418 12.0352C4.25706 12.0266 4.25987 12.018 4.26237 12.0093C4.26476 12.001 4.26683 11.9927 4.26887 11.9843C4.27105 11.9754 4.27309 11.9665 4.27488 11.9575C4.27657 11.9489 4.27794 11.9404 4.27928 11.9318C4.28068 11.9227 4.28195 11.9135 4.28297 11.9042C4.28392 11.8955 4.28462 11.8869 4.28518 11.8781C4.2855 11.873 4.28624 11.8681 4.28645 11.8631C4.29098 11.864 4.29562 11.8647 4.3002 11.8656C4.31932 11.8696 4.33866 11.8729 4.35792 11.8765C4.38067 11.8807 4.40334 11.8851 4.42623 11.8887C4.44877 11.8923 4.47155 11.895 4.49429 11.8979C4.51409 11.9005 4.53381 11.9034 4.55371 11.9055C4.57944 11.9082 4.60542 11.9101 4.63137 11.912C4.64863 11.9133 4.66586 11.915 4.68315 11.916C4.71022 11.9175 4.7375 11.918 4.76475 11.9187C4.78131 11.9191 4.79783 11.9199 4.81439 11.92C4.81914 11.92 4.82381 11.9203 4.82859 11.9203C4.85201 11.9203 4.87518 11.9192 4.89845 11.9186C4.9142 11.9182 4.92995 11.9181 4.9457 11.9174C4.97481 11.9161 5.00367 11.9138 5.03254 11.9115C5.04716 11.9104 5.06179 11.9096 5.07638 11.9082C5.10598 11.9054 5.13526 11.9016 5.16455 11.8978C5.1784 11.8959 5.19229 11.8945 5.20607 11.8925C5.23704 11.8879 5.26766 11.8824 5.29825 11.8767C5.30823 11.8748 5.31832 11.8735 5.32827 11.8716C5.32841 11.8737 5.3288 11.8758 5.32897 11.8779C5.32961 11.8858 5.33066 11.8936 5.33161 11.9015C5.33277 11.9114 5.33393 11.9212 5.33555 11.931C5.33685 11.9389 5.33854 11.9466 5.34015 11.9544C5.34212 11.9639 5.34409 11.9735 5.34652 11.9828C5.34848 11.9905 5.35077 11.9982 5.35306 12.0058C5.35576 12.015 5.35857 12.0241 5.3617 12.0331C5.36434 12.0407 5.36719 12.0481 5.37011 12.0555C5.37355 12.0643 5.3771 12.0731 5.38093 12.0817C5.38417 12.089 5.38758 12.0962 5.39109 12.1033C5.39524 12.1118 5.3995 12.1201 5.404 12.1283C5.40783 12.1353 5.41177 12.1422 5.41584 12.149C5.42066 12.1571 5.42562 12.165 5.43075 12.1728C5.43511 12.1794 5.43957 12.186 5.44418 12.1924C5.44963 12.2 5.45525 12.2075 5.46102 12.2148C5.46591 12.2211 5.47083 12.2273 5.47596 12.2333C5.48201 12.2405 5.4883 12.2474 5.49466 12.2543C5.50004 12.2601 5.50539 12.2659 5.51098 12.2715C5.51762 12.2782 5.52451 12.2846 5.53147 12.2909C5.53727 12.2963 5.54304 12.3016 5.54902 12.3067C5.55626 12.3129 5.56378 12.3188 5.57131 12.3246C5.57746 12.3294 5.58358 12.3343 5.5899 12.3388C5.59778 12.3445 5.60593 12.3497 5.61409 12.355C5.62056 12.3592 5.62689 12.3635 5.6335 12.3675C5.64204 12.3726 5.65086 12.3772 5.65965 12.3819C5.6663 12.3855 5.6728 12.3892 5.67959 12.3926C5.68897 12.3972 5.69868 12.4012 5.70834 12.4053C5.71492 12.4082 5.72135 12.4113 5.72803 12.4139C5.73897 12.4181 5.75022 12.4217 5.76143 12.4253C5.7672 12.4272 5.77275 12.4294 5.77859 12.4311C5.79578 12.4361 5.81329 12.4405 5.83115 12.4441L6.05949 12.49L7.5776 12.937C7.59666 12.9426 7.6155 12.9486 7.63421 12.955C7.63635 12.9557 7.63846 12.9566 7.6406 12.9573C8.21875 13.1571 8.6171 13.7108 8.6171 14.3267V17.0125V17.0125ZM14.7959 12.6002L15.156 13.2359L14.11 14.8561L14.7959 12.6002ZM13.4542 13.4016H13.1628L13.0597 13.223L13.3085 12.9959L13.5573 13.223L13.4542 13.4016ZM13.5216 14.9758L13.405 15.3594L13.3085 15.6766L13.0955 14.9761L13.2403 13.9297H13.3754L13.5216 14.9758ZM12.6044 12.394C12.7653 12.4363 12.9294 12.4634 13.0945 12.4762L12.5469 12.9762C12.5296 12.992 12.5157 13.0101 12.5035 13.0291L12.2848 12.31L12.6044 12.394ZM12.5952 11.8456C12.652 11.7527 12.6864 11.6452 12.6917 11.5316C12.717 11.5377 12.7423 11.5433 12.7678 11.5486C12.7755 11.5502 12.7832 11.5515 12.7909 11.5531C12.8231 11.5595 12.8554 11.5653 12.8879 11.5705C12.8958 11.5717 12.9036 11.5732 12.9116 11.5744C12.9465 11.5796 12.9816 11.5839 13.0167 11.5878C13.0283 11.589 13.0398 11.5904 13.0514 11.5915C13.0854 11.5948 13.1195 11.5973 13.1537 11.5993C13.166 11.6 13.1783 11.6006 13.1907 11.6012C13.2254 11.6027 13.2602 11.6036 13.295 11.6038C13.2995 11.6039 13.304 11.6042 13.3085 11.6042C13.3153 11.6042 13.3219 11.6037 13.3287 11.6036C13.3648 11.6034 13.401 11.6026 13.4371 11.6009C13.4456 11.6005 13.4542 11.5998 13.4628 11.5994C13.4975 11.5974 13.5323 11.5948 13.5669 11.5914C13.5725 11.5909 13.578 11.5905 13.5835 11.5899C13.6226 11.5859 13.6616 11.5808 13.7004 11.575C13.7065 11.5741 13.7126 11.5733 13.7186 11.5724C13.7576 11.5663 13.7965 11.5593 13.8351 11.5515C13.84 11.5505 13.8449 11.5495 13.8497 11.5485C13.8595 11.5465 13.8694 11.5446 13.8792 11.5425C13.8879 11.6563 13.926 11.7633 13.9863 11.855L13.8785 11.8833C13.5056 11.9813 13.1114 11.9813 12.7385 11.8833L12.5952 11.8456ZM13.5225 12.4762C13.6876 12.4635 13.8517 12.4363 14.0126 12.394L14.3322 12.31L14.1136 13.0291C14.1014 13.0101 14.0875 12.992 14.0702 12.9762L13.5225 12.4762ZM15.9528 9.15625C15.9547 9.1309 15.957 9.10562 15.9582 9.08006C15.9603 9.03707 15.9615 8.99407 15.9615 8.95114V8.54242H16.0443C16.0455 8.54242 16.0467 8.54252 16.0478 8.54252C16.0554 8.54259 16.063 8.5434 16.0704 8.54498C16.0709 8.54509 16.0715 8.54523 16.072 8.54537C16.0771 8.54653 16.0816 8.54843 16.0862 8.55008C16.0891 8.55114 16.092 8.55166 16.0948 8.55293C16.0949 8.55293 16.0949 8.55296 16.0949 8.55296C16.1372 8.57205 16.1645 8.61414 16.1645 8.66012V9.08319C16.1645 9.14812 16.1117 9.20093 16.0468 9.20093H15.9497C15.951 9.18606 15.9516 9.17115 15.9528 9.15625ZM10.5703 9.20093C10.5053 9.20096 10.4525 9.14812 10.4525 9.08323V8.66016C10.4525 8.61421 10.4798 8.57216 10.5222 8.55296C10.5291 8.54987 10.5362 8.54769 10.5433 8.54597C10.5445 8.54565 10.5455 8.5453 10.5468 8.54498C10.5543 8.5434 10.5618 8.54259 10.5694 8.54252C10.5705 8.54252 10.5716 8.54245 10.5727 8.54242H10.6555V8.95114C10.6555 8.99407 10.6567 9.03707 10.6588 9.08006C10.66 9.10555 10.6623 9.13072 10.6642 9.156C10.6654 9.17098 10.666 9.18595 10.6674 9.20093H10.5703V9.20093ZM10.9952 7.19762C10.9851 7.20047 10.9753 7.20392 10.9658 7.20789C10.9616 7.20965 10.9577 7.21183 10.9536 7.21379C10.9485 7.21626 10.9432 7.21851 10.9383 7.22128C10.9333 7.22402 10.9288 7.22726 10.9241 7.23028C10.9203 7.23274 10.9163 7.23499 10.9126 7.23763C10.9077 7.24115 10.9032 7.24512 10.8986 7.24895C10.8954 7.25159 10.8921 7.25401 10.8891 7.25679C10.8845 7.26094 10.8804 7.26551 10.8761 7.26997C10.8734 7.27286 10.8705 7.27553 10.8679 7.27852C10.8638 7.28323 10.8601 7.28829 10.8563 7.29332C10.854 7.29645 10.8515 7.2994 10.8493 7.30263C10.8457 7.30784 10.8426 7.31332 10.8394 7.31881C10.8375 7.32218 10.8353 7.32542 10.8335 7.3289C10.8305 7.33449 10.8281 7.34036 10.8255 7.34619C10.8242 7.34929 10.8225 7.3522 10.8213 7.35537C10.8208 7.3566 10.8204 7.35779 10.8199 7.35902C10.8198 7.35941 10.8195 7.3598 10.8194 7.36018C10.8191 7.36089 10.8189 7.36163 10.8186 7.36233C10.8186 7.3624 10.8186 7.36254 10.8185 7.36261C10.8183 7.3631 10.8182 7.36359 10.818 7.36409C10.8043 7.40128 10.7917 7.43872 10.7797 7.47638C10.7795 7.47718 10.7791 7.47796 10.7789 7.47873C10.7787 7.47926 10.7786 7.47979 10.7784 7.48028C10.7313 7.62945 10.6974 7.78206 10.6774 7.93717V7.70517C10.6774 6.47857 11.6753 5.48063 12.902 5.48063H13.715C14.9416 5.48063 15.9395 6.47854 15.9395 7.70517V7.93784C15.9377 7.9237 15.9354 7.90961 15.9334 7.89551C15.9332 7.89435 15.9331 7.89319 15.933 7.89203L15.9294 7.86777C15.9294 7.86731 15.9293 7.86679 15.9292 7.86633C15.9235 7.82998 15.917 7.7938 15.9098 7.7578C15.9097 7.75752 15.9097 7.75724 15.9097 7.75699L15.9038 7.72883C15.9037 7.72824 15.9035 7.72767 15.9034 7.72707C15.8964 7.69406 15.8889 7.66123 15.8806 7.62853C15.8804 7.62769 15.8803 7.62688 15.8801 7.62604L15.8777 7.61609C15.8774 7.615 15.8771 7.61391 15.8768 7.61282C15.8768 7.61268 15.8767 7.61257 15.8767 7.61243C15.8764 7.6112 15.876 7.60993 15.8757 7.60867C15.8741 7.60301 15.8716 7.59788 15.8697 7.59239C15.8669 7.58441 15.8645 7.57632 15.861 7.56873C15.8584 7.56304 15.855 7.55783 15.852 7.55238C15.848 7.54514 15.8443 7.53772 15.8397 7.53094C15.8361 7.52574 15.8319 7.52113 15.828 7.51621C15.8231 7.50991 15.8184 7.50338 15.8129 7.49757C15.8083 7.49276 15.8031 7.48865 15.7982 7.48422C15.7926 7.47912 15.7873 7.47377 15.7813 7.46917C15.7755 7.46474 15.7691 7.46115 15.7629 7.45722C15.7571 7.45352 15.7516 7.44945 15.7456 7.44621C15.7385 7.44245 15.731 7.43967 15.7236 7.43654C15.7179 7.43412 15.7123 7.4312 15.7064 7.4292C15.6984 7.42649 15.6901 7.42487 15.6819 7.42294C15.676 7.42153 15.6703 7.41963 15.6643 7.41865C15.6563 7.41735 15.6481 7.41717 15.6399 7.41661C15.6337 7.41615 15.6277 7.41506 15.6214 7.41506C15.6204 7.41506 15.6194 7.41506 15.6184 7.41506H15.6183L15.6122 7.41513C15.5658 7.41566 15.5204 7.42835 15.4805 7.45201C15.1971 7.62002 14.8217 7.70521 14.3647 7.70521C13.9002 7.70521 13.4301 7.55787 12.9755 7.41538C12.3997 7.23492 11.8064 7.04916 11.2026 7.15118C11.1967 7.1522 11.1908 7.15301 11.1848 7.15406C11.1827 7.15445 11.1807 7.15491 11.1786 7.15526C11.1175 7.16633 11.0564 7.18029 10.9952 7.19762ZM11.2325 9.40311C11.225 9.36891 11.2185 9.33459 11.2127 9.30018C11.2123 9.29786 11.2118 9.29553 11.2115 9.29321C11.2055 9.25676 11.2006 9.22019 11.1965 9.1836C11.1964 9.1823 11.1962 9.18103 11.196 9.17973C11.1922 9.14415 11.1894 9.10854 11.1873 9.07296C11.1871 9.07025 11.1868 9.06758 11.1866 9.06487C11.1846 9.02694 11.1835 8.98901 11.1835 8.95114V8.28247C11.1835 8.28107 11.1835 8.27966 11.1835 8.27836C11.1835 8.27829 11.1835 8.27822 11.1835 8.27815C11.1835 8.25723 11.1841 8.23635 11.1847 8.2155C11.185 8.20573 11.1854 8.19581 11.1858 8.18562C11.1862 8.17838 11.1866 8.17113 11.187 8.16389C11.1871 8.16213 11.1872 8.16038 11.1873 8.15862L11.1886 8.14083C11.1901 8.11854 11.1915 8.09629 11.1937 8.07396C11.1937 8.07393 11.1937 8.07386 11.1937 8.07382C11.1946 8.06387 11.1958 8.05399 11.197 8.04415L11.1984 8.03251C11.2006 8.01275 11.203 7.993 11.2059 7.97324C11.2079 7.95872 11.2103 7.94431 11.2127 7.92986C11.2158 7.91122 11.2191 7.8927 11.2227 7.87399C11.2255 7.85933 11.2285 7.84474 11.2316 7.83026C11.2355 7.81219 11.2397 7.79419 11.2441 7.77633L11.2451 7.77211C11.2482 7.7591 11.2514 7.74609 11.2549 7.73291C11.2597 7.71488 11.265 7.69698 11.2701 7.6793L11.2714 7.67504C11.2825 7.67304 11.2937 7.67181 11.3048 7.67005C11.324 7.66703 11.3432 7.66369 11.3625 7.6614C11.3868 7.65852 11.4112 7.65666 11.4355 7.6549C11.4418 7.65444 11.4481 7.6536 11.4544 7.65321C11.8157 7.63156 12.1934 7.72799 12.5862 7.84748C12.6627 7.87076 12.7397 7.89484 12.8174 7.91917C13.156 8.02531 13.5026 8.1339 13.8633 8.19142C14.0273 8.21757 14.1942 8.23315 14.3646 8.23315C14.4484 8.23315 14.5298 8.23002 14.6096 8.22499C14.668 8.2213 14.7257 8.21659 14.782 8.21019C14.7862 8.20973 14.7905 8.20945 14.7947 8.20896C14.8233 8.20559 14.8512 8.20126 14.8792 8.19718C14.8958 8.19476 14.9129 8.19286 14.9293 8.19019C14.9463 8.18745 14.9626 8.18393 14.9793 8.18094C15.0061 8.17613 15.0332 8.17159 15.0595 8.16611C15.0765 8.16256 15.0928 8.1582 15.1096 8.15436C15.1348 8.1486 15.1603 8.14311 15.185 8.13672C15.2091 8.13042 15.2325 8.12318 15.2561 8.11629C15.2727 8.11147 15.2897 8.10711 15.3059 8.10198C15.3256 8.09579 15.3445 8.08873 15.3638 8.08208C15.3832 8.0754 15.4031 8.06914 15.4222 8.06197L15.4227 8.06588C15.4258 8.09709 15.4281 8.12845 15.4298 8.15985C15.4298 8.15988 15.4298 8.15992 15.4298 8.15992L15.4309 8.18252C15.4309 8.18273 15.4309 8.18295 15.431 8.18319C15.4324 8.21476 15.4334 8.2464 15.4334 8.27808C15.4334 8.27815 15.4334 8.27818 15.4334 8.27825C15.4334 8.27956 15.4334 8.28093 15.4334 8.28237V8.95104C15.4334 8.9889 15.4324 9.02684 15.4303 9.06477C15.4301 9.06748 15.4298 9.07015 15.4297 9.07286C15.4276 9.10847 15.4248 9.14405 15.4209 9.17962C15.4208 9.18092 15.4205 9.18223 15.4204 9.18353C15.4164 9.22009 15.4114 9.25662 15.4055 9.29304C15.4051 9.29543 15.4046 9.29778 15.4042 9.30018C15.3985 9.33456 15.3919 9.36884 15.3845 9.40301C15.222 10.1502 14.6655 10.7521 13.9441 10.9787C13.9379 10.9807 13.9316 10.9824 13.9254 10.9843C13.8999 10.9921 13.8742 10.9995 13.8483 11.0063C13.8391 11.0087 13.8299 11.0109 13.8207 11.0132C13.7975 11.0189 13.7741 11.0244 13.7506 11.0294C13.7399 11.0317 13.7291 11.0338 13.7184 11.0359C13.696 11.0403 13.6736 11.0443 13.651 11.048C13.6395 11.0498 13.628 11.0517 13.6165 11.0534C13.5942 11.0566 13.5717 11.0594 13.5492 11.062C13.5375 11.0633 13.5259 11.0647 13.5142 11.0659C13.4905 11.0681 13.4666 11.0698 13.4427 11.0713C13.4323 11.0719 13.4219 11.0729 13.4115 11.0734C13.3773 11.075 13.343 11.076 13.3084 11.076C13.2732 11.076 13.2382 11.075 13.2033 11.0733C13.1913 11.0727 13.1794 11.0716 13.1674 11.0708C13.1447 11.0693 13.122 11.0678 13.0995 11.0656C13.0847 11.0642 13.07 11.0622 13.0553 11.0604C13.0359 11.0581 13.0165 11.0558 12.9972 11.053C12.9807 11.0506 12.9643 11.0476 12.9479 11.0448C12.9309 11.0419 12.9138 11.039 12.8968 11.0357C12.8788 11.0321 12.8609 11.0281 12.843 11.0241C12.828 11.0207 12.813 11.0174 12.7982 11.0137C12.7789 11.0089 12.7598 11.0037 12.7406 10.9984C12.7274 10.9947 12.7143 10.991 12.7012 10.9871C12.6812 10.9812 12.6613 10.9748 12.6416 10.9682C12.6292 10.9642 12.6169 10.96 12.6047 10.9558C12.5852 10.9489 12.5659 10.9417 12.5466 10.9342C11.8871 10.68 11.3854 10.1061 11.2325 9.40311ZM11.8211 12.6002L12.507 14.856L11.461 13.2359L11.8211 12.6002ZM16.4549 17.0107V14.4802C16.4549 14.3344 16.3367 14.2162 16.1909 14.2162C16.045 14.2162 15.9268 14.3344 15.9268 14.4802V17.0107H10.6519V16.2237C10.6519 16.0779 10.5336 15.9597 10.3879 15.9597C10.2421 15.9597 10.1238 16.0779 10.1238 16.2237V17.0107H9.14512V14.3267V14.2214C9.14512 13.5136 9.61931 12.8797 10.2983 12.6798L11.3434 12.3721L10.9505 13.0658C10.882 13.1867 10.8898 13.3352 10.9695 13.4481L13.0867 16.7273C13.0871 16.7279 13.0876 16.7285 13.088 16.7291C13.0894 16.7312 13.0908 16.7333 13.0922 16.7354C13.0933 16.7369 13.0945 16.7384 13.0956 16.7399C13.099 16.7445 13.1024 16.7491 13.106 16.7534C13.1073 16.7549 13.1086 16.7564 13.1099 16.7579C13.1132 16.7616 13.1164 16.7654 13.1199 16.769C13.1201 16.7691 13.1202 16.7692 13.1203 16.7694C13.1225 16.7715 13.1247 16.7735 13.1269 16.7755C13.1289 16.7774 13.1308 16.7793 13.1328 16.781C13.138 16.7856 13.1433 16.79 13.1489 16.7942C13.1502 16.7952 13.1514 16.7962 13.1527 16.7971C13.1537 16.7979 13.1546 16.7987 13.1556 16.7994C13.1563 16.7999 13.157 16.8003 13.1577 16.8008C13.1649 16.8058 13.1725 16.8104 13.1804 16.8148C13.182 16.8157 13.1836 16.8167 13.1853 16.8176C13.1868 16.8184 13.1884 16.819 13.19 16.8198C13.1924 16.821 13.1948 16.8225 13.1974 16.8237C13.2003 16.825 13.2032 16.8259 13.2061 16.8272C13.2102 16.8289 13.2143 16.8306 13.2185 16.8321C13.2205 16.8328 13.2224 16.8338 13.2244 16.8344C13.2248 16.8345 13.2251 16.8346 13.2255 16.8348C13.2292 16.836 13.2329 16.8368 13.2366 16.8378C13.2403 16.8389 13.2439 16.84 13.2476 16.8409C13.2521 16.842 13.2567 16.8428 13.2613 16.8436C13.2642 16.8442 13.267 16.8446 13.2699 16.8451C13.2725 16.8454 13.2751 16.846 13.2777 16.8463C13.2879 16.8475 13.2981 16.8482 13.3083 16.8482C13.3083 16.8482 13.3084 16.8482 13.3084 16.8482C13.3085 16.8482 13.3085 16.8482 13.3086 16.8482C13.3188 16.8482 13.329 16.8475 13.3392 16.8463C13.3418 16.846 13.3444 16.8454 13.347 16.8451C13.3498 16.8446 13.3527 16.8442 13.3554 16.8437C13.3601 16.8428 13.3647 16.842 13.3693 16.8409C13.373 16.84 13.3766 16.8389 13.3803 16.8379C13.3841 16.8368 13.388 16.836 13.3917 16.8347C13.3919 16.8347 13.3921 16.8346 13.3922 16.8346C13.3943 16.8339 13.3963 16.8329 13.3984 16.8321C13.4026 16.8306 13.4067 16.8289 13.4107 16.8272C13.4136 16.826 13.4166 16.825 13.4195 16.8237C13.4221 16.8225 13.4245 16.821 13.4271 16.8197C13.4285 16.819 13.43 16.8184 13.4314 16.8177C13.4332 16.8168 13.4348 16.8158 13.4365 16.8149C13.4443 16.8105 13.4519 16.8059 13.4592 16.8008C13.4598 16.8003 13.4606 16.7999 13.4613 16.7995C13.4623 16.7987 13.4633 16.7979 13.4644 16.7971C13.4655 16.7963 13.4665 16.7954 13.4676 16.7946C13.4733 16.7903 13.4788 16.7858 13.4841 16.7811C13.4861 16.7793 13.488 16.7774 13.49 16.7756C13.4959 16.77 13.5016 16.7641 13.5069 16.758C13.5083 16.7565 13.5096 16.755 13.5109 16.7535C13.5147 16.749 13.5181 16.7443 13.5215 16.7397C13.5225 16.7383 13.5236 16.7371 13.5245 16.7357C13.526 16.7335 13.5275 16.7314 13.5289 16.7292C13.5293 16.7286 13.5298 16.7281 13.5302 16.7275L15.6474 13.4482C15.7271 13.3354 15.7349 13.1868 15.6664 13.066L15.2735 12.3722L16.3186 12.68C16.9976 12.8799 17.4718 13.5138 17.4718 14.2216V17.0107H16.4549V17.0107Z" fill="#9C9C9C"/>
</g>
<defs>
<clipPath id="clip0_471_43">
<rect width="18" height="18" fill="white"/>
</clipPath>
</defs>
</svg>
