<svg width="18" height="18" viewBox="0 0 18 18" fill="none" xmlns="http://www.w3.org/2000/svg">
<path d="M17.5379 2.70154L15.2994 0.462936C15.001 0.164658 14.6036 0.000137329 14.1805 0C14.1802 0 14.1801 0 14.1798 0C13.7567 0 13.3595 0.164246 13.0614 0.462387L1.64794 11.8757C1.55441 11.9714 1.51596 12.1076 1.48822 12.1929L0.0212697 17.3274C-0.0313275 17.5117 0.0200337 17.71 0.15544 17.8454C0.255828 17.9458 0.390686 18 0.528564 18C0.577041 18 0.625793 17.9934 0.673584 17.9797L5.80517 16.5135C5.82041 16.5092 6.04714 16.4312 6.12528 16.353L17.5386 4.93959C17.837 4.64131 18.0011 4.24388 18.001 3.8205C18.0008 3.39738 17.8363 2.99995 17.5379 2.70154V2.70154ZM1.29692 16.704L2.28212 13.256L4.74499 15.7188L1.29692 16.704ZM5.75216 15.2336L2.76731 12.2488L11.9415 3.07466L14.9263 6.05951L5.75216 15.2336ZM16.7923 4.19348L15.6726 5.3134L12.6876 2.32841L13.8075 1.20863C13.9064 1.10976 14.0386 1.05537 14.1798 1.05537H14.1801C14.3215 1.05537 14.454 1.11003 14.5532 1.20918L16.7918 3.44778C16.9975 3.6535 16.9978 3.98804 16.7923 4.19348Z" fill="#7E7E7E"/>
</svg>
