<svg width="10" height="17" viewBox="0 0 10 17" fill="none" xmlns="http://www.w3.org/2000/svg">
<path d="M6.52779 1.38892H4.86112C4.63085 1.38892 4.44446 1.57531 4.44446 1.80558C4.44446 2.03586 4.63085 2.22225 4.86112 2.22225H6.52779C6.75807 2.22225 6.94446 2.03586 6.94446 1.80558C6.94446 1.57531 6.75807 1.38892 6.52779 1.38892Z" fill="#7E7E7E"/>
<path d="M8.33333 0H1.66667C0.747787 0 0 0.747786 0 1.66667V15C0 15.9189 0.747787 16.6667 1.66667 16.6667H8.33333C9.25221 16.6667 10 15.9189 10 15V1.66667C10 0.747786 9.25221 0 8.33333 0ZM9.16667 15C9.16667 15.4603 8.79362 15.8333 8.33333 15.8333H1.66667C1.20638 15.8333 0.833333 15.4603 0.833333 15V1.66667C0.833333 1.20638 1.20638 0.833333 1.66667 0.833333H8.33333C8.79362 0.833333 9.16667 1.20638 9.16667 1.66667V15Z" fill="#7E7E7E"/>
<path d="M4.99996 15.2778C5.4602 15.2778 5.83329 14.9047 5.83329 14.4444C5.83329 13.9842 5.4602 13.6111 4.99996 13.6111C4.53972 13.6111 4.16663 13.9842 4.16663 14.4444C4.16663 14.9047 4.53972 15.2778 4.99996 15.2778Z" fill="#7E7E7E"/>
<path d="M3.47221 2.22225C3.70233 2.22225 3.88888 2.0357 3.88888 1.80558C3.88888 1.57546 3.70233 1.38892 3.47221 1.38892C3.24209 1.38892 3.05554 1.57546 3.05554 1.80558C3.05554 2.0357 3.24209 2.22225 3.47221 2.22225Z" fill="#7E7E7E"/>
</svg>
