<svg width="59" height="59" viewBox="0 0 59 59" fill="none" xmlns="http://www.w3.org/2000/svg">
<path d="M45.6328 4.60938H38.7188V0H20.2812V4.60938H13.3672C9.55477 4.60938 6.45312 7.71102 6.45312 11.5234V52.0859C6.45312 55.8984 9.55477 59 13.3672 59H45.6328C49.4452 59 52.5469 55.8984 52.5469 52.0859V11.5234C52.5469 7.71102 49.4452 4.60938 45.6328 4.60938ZM24.8906 4.60938H34.1094V9.21875H24.8906V4.60938ZM47.9375 52.0859C47.9375 53.3567 46.9036 54.3906 45.6328 54.3906H13.3672C12.0964 54.3906 11.0625 53.3567 11.0625 52.0859V11.5234C11.0625 10.2526 12.0964 9.21875 13.3672 9.21875H20.2812V13.8281H38.7188V9.21875H45.6328C46.9036 9.21875 47.9375 10.2526 47.9375 11.5234V52.0859Z" fill="#C5002F"/>
<path d="M22.5857 25.5203L19.606 22.5405L16.3467 25.7998L22.5857 32.0388L33.4341 21.1904L30.1748 17.9312L22.5857 25.5203Z" fill="#C5002F"/>
<path d="M34.1094 27.1953H43.3281V31.8047H34.1094V27.1953Z" fill="#C5002F"/>
<path d="M34.1094 41.0234H43.3281V45.6328H34.1094V41.0234Z" fill="#C5002F"/>
<path d="M22.5859 36.4141C18.7735 36.4141 15.6719 39.5157 15.6719 43.3281C15.6719 47.1405 18.7735 50.2422 22.5859 50.2422C26.3984 50.2422 29.5 47.1405 29.5 43.3281C29.5 39.5157 26.3984 36.4141 22.5859 36.4141ZM22.5859 45.6328C21.3151 45.6328 20.2812 44.5989 20.2812 43.3281C20.2812 42.0573 21.3151 41.0234 22.5859 41.0234C23.8567 41.0234 24.8906 42.0573 24.8906 43.3281C24.8906 44.5989 23.8567 45.6328 22.5859 45.6328Z" fill="#C5002F"/>
</svg>
