<svg width="18" height="18" viewBox="0 0 18 18" fill="none" xmlns="http://www.w3.org/2000/svg">
<path d="M18 4.93548V1.45161C17.9991 0.650323 17.3497 0.000943548 16.5484 0H13.0645C12.2632 0.000943548 11.6138 0.650323 11.6129 1.45161V4.93548C11.6142 5.39419 11.833 5.82507 12.2025 6.09677C12.0887 6.18133 11.9878 6.28222 11.9032 6.3961C11.6315 6.02652 11.2006 5.80772 10.7419 5.80645H8.58919L9.44564 4.95C10.0125 4.38311 10.0125 3.46402 9.44564 2.89713L6.98226 0.433742C6.41537 -0.133149 5.49628 -0.133149 4.92939 0.433742L2.466 2.89713C1.89911 3.46402 1.89911 4.38311 2.466 4.95L3.32245 5.80645H1.45161C0.650323 5.80739 0.000943548 6.45677 0 7.25806V10.7419C0.00127016 11.2006 0.220064 11.6315 0.589645 11.9032C0.220064 12.1749 0.00127016 12.6058 0 13.0645V16.5484C0.000943548 17.3497 0.650323 17.9991 1.45161 18H4.93548C5.39419 17.9987 5.82507 17.7799 6.09677 17.4104C6.36848 17.7799 6.79935 17.9987 7.25806 18H10.7419C11.2006 17.9987 11.6315 17.7799 11.9032 17.4104C12.1749 17.7799 12.6058 17.9987 13.0645 18H16.5484C17.3497 17.9991 17.9991 17.3497 18 16.5484V13.0645C17.9987 12.6058 17.7799 12.1749 17.4104 11.9032C17.7799 11.6315 17.9987 11.2006 18 10.7419V7.25806C17.9987 6.79935 17.7799 6.36848 17.4104 6.09677C17.7799 5.82507 17.9987 5.39419 18 4.93548V4.93548ZM10.7419 6.3871C11.223 6.3871 11.6129 6.77704 11.6129 7.25806V10.7419C11.6129 11.223 11.223 11.6129 10.7419 11.6129H7.25806C6.77704 11.6129 6.3871 11.223 6.3871 10.7419V7.76671C6.61126 7.69921 6.81554 7.57804 6.98226 7.41368L8.00855 6.3871H10.7419ZM12.2025 11.9032C12.0887 11.9878 11.9878 12.0886 11.9032 12.2025C11.8187 12.0887 11.7178 11.9878 11.6039 11.9032C11.7178 11.8187 11.8187 11.7178 11.9032 11.6039C11.9878 11.7178 12.0886 11.8187 12.2025 11.9032ZM6.09677 12.2025C6.01222 12.0887 5.91133 11.9878 5.79745 11.9032C5.91133 11.8187 6.01222 11.7178 6.09677 11.6039C6.18133 11.7178 6.28222 11.8187 6.3961 11.9032C6.28222 11.9878 6.18133 12.0886 6.09677 12.2025ZM2.62132 3.92371C2.62074 3.69261 2.71263 3.47088 2.87652 3.30794L5.34019 0.844258C5.68031 0.504254 6.23163 0.504254 6.57174 0.844258L9.03513 3.30794C9.37513 3.64805 9.37513 4.19937 9.03513 4.53948L6.57174 7.00316C6.22698 7.33177 5.68495 7.33177 5.34019 7.00316L2.87652 4.53948C2.71274 4.37647 2.62085 4.15477 2.62132 3.92371V3.92371ZM0.580645 10.7419V7.25806C0.580645 6.77704 0.970585 6.3871 1.45161 6.3871H3.9031L4.92939 7.41368C5.16546 7.64782 5.47541 7.79291 5.80645 7.82419V10.7419C5.80645 11.223 5.41651 11.6129 4.93548 11.6129H1.45161C0.970585 11.6129 0.580645 11.223 0.580645 10.7419ZM4.93548 17.4194H1.45161C0.970585 17.4194 0.580645 17.0294 0.580645 16.5484V13.0645C0.580645 12.5835 0.970585 12.1935 1.45161 12.1935H4.93548C5.41651 12.1935 5.80645 12.5835 5.80645 13.0645V16.5484C5.80645 17.0294 5.41651 17.4194 4.93548 17.4194ZM10.7419 17.4194H7.25806C6.77704 17.4194 6.3871 17.0294 6.3871 16.5484V13.0645C6.3871 12.5835 6.77704 12.1935 7.25806 12.1935H10.7419C11.223 12.1935 11.6129 12.5835 11.6129 13.0645V16.5484C11.6129 17.0294 11.223 17.4194 10.7419 17.4194ZM17.4194 13.0645V16.5484C17.4194 17.0294 17.0294 17.4194 16.5484 17.4194H13.0645C12.5835 17.4194 12.1935 17.0294 12.1935 16.5484V13.0645C12.1935 12.5835 12.5835 12.1935 13.0645 12.1935H16.5484C17.0294 12.1935 17.4194 12.5835 17.4194 13.0645ZM17.4194 7.25806V10.7419C17.4194 11.223 17.0294 11.6129 16.5484 11.6129H13.0645C12.5835 11.6129 12.1935 11.223 12.1935 10.7419V7.25806C12.1935 6.77704 12.5835 6.3871 13.0645 6.3871H16.5484C17.0294 6.3871 17.4194 6.77704 17.4194 7.25806ZM17.4194 4.93548C17.4194 5.41651 17.0294 5.80645 16.5484 5.80645H13.0645C12.5835 5.80645 12.1935 5.41651 12.1935 4.93548V1.45161C12.1935 0.970585 12.5835 0.580645 13.0645 0.580645H16.5484C17.0294 0.580645 17.4194 0.970585 17.4194 1.45161V4.93548Z" fill="#A0A0A0"/>
<path d="M6.98244 4.94992L7.39295 4.5394L5.54506 2.69179C5.42987 2.58288 5.24973 2.58288 5.13454 2.69179L4.72374 3.10259C4.6693 3.15703 4.63867 3.23084 4.63867 3.30785V4.12888H5.21932V3.42805L5.3398 3.30785L6.98244 4.94992Z" fill="#A0A0A0"/>
<path d="M15.6778 1.74194H13.6455V2.32259H15.3874V2.90323H13.9358C13.7755 2.90323 13.6455 3.03323 13.6455 3.19356V4.35485C13.6455 4.51518 13.7755 4.64517 13.9358 4.64517H15.9681V4.06452H14.2262V3.48388H15.6778C15.8381 3.48388 15.9681 3.35389 15.9681 3.19356V2.03227C15.9681 1.87194 15.8381 1.74194 15.6778 1.74194Z" fill="#A0A0A0"/>
<path d="M15.9681 10.1612V8.99995C15.9681 8.83962 15.8381 8.70963 15.6778 8.70963H14.2262V8.12899H15.9681V7.54834H13.9358C13.7755 7.54834 13.6455 7.67833 13.6455 7.83866V8.99995C13.6455 9.16028 13.7755 9.29028 13.9358 9.29028H15.3874V9.87092H13.6455V10.4516H15.6778C15.8381 10.4516 15.9681 10.3216 15.9681 10.1612Z" fill="#A0A0A0"/>
<path d="M4.06448 13.3547H2.32255C2.16222 13.3547 2.03223 13.4847 2.03223 13.6451V15.9676C2.03223 16.128 2.16222 16.258 2.32255 16.258H4.06448C4.22482 16.258 4.35481 16.128 4.35481 15.9676V14.8063C4.35481 14.646 4.22482 14.516 4.06448 14.516H2.61287V13.9354H3.77416V14.2257H4.35481V13.6451C4.35481 13.4847 4.22482 13.3547 4.06448 13.3547ZM3.77416 15.0967V15.6773H2.61287V15.0967H3.77416Z" fill="#A0A0A0"/>
<path d="M3.48355 7.54834H2.32227V8.12899H3.48355C3.64388 8.12899 3.77388 8.25898 3.77388 8.41931C3.77388 8.57964 3.64388 8.70963 3.48355 8.70963H2.90291C2.74258 8.70963 2.61259 8.83962 2.61259 8.99995C2.61259 9.16028 2.74258 9.29028 2.90291 9.29028H3.48355C3.64388 9.29028 3.77388 9.42027 3.77388 9.5806C3.77388 9.74093 3.64388 9.87092 3.48355 9.87092H2.32227V10.4516H3.48355C3.96458 10.4512 4.35427 10.061 4.3539 9.57998C4.35376 9.36594 4.27479 9.15945 4.13213 8.99995C4.45283 8.6414 4.42213 8.09081 4.06358 7.77011C3.90409 7.62745 3.69759 7.54849 3.48355 7.54834Z" fill="#A0A0A0"/>
<path d="M8.12931 9.29023H9.2906V10.4515H9.87125V9.29023H10.4519V8.70959H9.87125V7.5483H9.2906V8.70959H8.4835L8.70415 7.60636L8.13512 7.49023L7.84479 8.94185C7.81271 9.09895 7.91407 9.25231 8.07117 9.28436C8.0903 9.28827 8.10979 9.29023 8.12931 9.29023Z" fill="#A0A0A0"/>
<path d="M9.8709 13.3547H8.12897C7.96864 13.3548 7.83876 13.4849 7.83887 13.6453C7.8389 13.6764 7.84391 13.7073 7.85375 13.7368L8.14407 14.6078L8.69568 14.4243L8.53194 13.9354H9.50887L9.00661 16.195L9.5739 16.321L10.1545 13.7081C10.1893 13.5515 10.0907 13.3964 9.93416 13.3617C9.9134 13.357 9.89217 13.3547 9.8709 13.3547Z" fill="#A0A0A0"/>
<path d="M14.5166 16.258H15.0972C15.5761 16.2601 15.9661 15.8735 15.9682 15.3946C15.9692 15.1771 15.8884 14.9671 15.7417 14.8064C16.0645 14.4525 16.0393 13.904 15.6855 13.5813C15.5247 13.4347 15.3148 13.3538 15.0972 13.3547H14.5166C14.0376 13.3526 13.6477 13.7392 13.6455 14.2181C13.6445 14.4357 13.7254 14.6456 13.872 14.8064C13.5493 15.1602 13.5745 15.7087 13.9283 16.0314C14.089 16.1781 14.299 16.259 14.5166 16.258ZM15.0972 15.6773H14.5166C14.3562 15.6773 14.2262 15.5473 14.2262 15.387C14.2262 15.2267 14.3562 15.0967 14.5166 15.0967H15.0972C15.2575 15.0967 15.3875 15.2267 15.3875 15.387C15.3875 15.5473 15.2575 15.6773 15.0972 15.6773ZM14.5166 13.9354H15.0972C15.2575 13.9354 15.3875 14.0654 15.3875 14.2257C15.3875 14.386 15.2575 14.516 15.0972 14.516H14.5166C14.3562 14.516 14.2262 14.386 14.2262 14.2257C14.2262 14.0654 14.3562 13.9354 14.5166 13.9354Z" fill="#A0A0A0"/>
</svg>
