<svg width="16" height="18" viewBox="0 0 16 18" fill="none" xmlns="http://www.w3.org/2000/svg">
<path d="M14.4994 13.7744C14.2804 13.2638 13.8584 12.8542 13.3416 12.6504C13.3359 12.6482 13.3301 12.6464 13.3244 12.6446C13.1889 12.0173 12.63 11.5458 11.9629 11.5458H10.5357C10.5271 11.5413 10.5181 11.537 10.5088 11.5334L10.1404 11.3881C10.0656 11.3586 10.0173 11.2876 10.0173 11.2072V10.2054C10.9375 9.51617 11.5127 8.53706 11.7274 7.31274C12.424 7.28704 12.9828 6.71265 12.9828 6.00987C12.9828 5.33005 12.4599 4.77036 11.7952 4.71126L12.0165 2.71111C12.0167 2.70953 12.0168 2.70791 12.017 2.70633C12.1025 1.77897 11.5588 0.888596 10.6948 0.541039C10.5242 0.472414 10.3491 0.409238 10.1746 0.353234C10.036 0.308761 9.88749 0.385085 9.84302 0.523778C9.79854 0.662435 9.8749 0.810901 10.0136 0.855373C10.1761 0.907511 10.3391 0.966327 10.498 1.03028C11.1467 1.29124 11.5552 1.95932 11.4921 2.6556L11.2861 4.51727C11.04 4.20262 10.7572 3.68062 10.759 2.94416C10.7859 2.81489 10.7284 2.68042 10.6141 2.6114C10.4921 2.53772 10.3406 2.55399 10.237 2.65194C9.89617 2.97436 9.16987 3.41803 8.13557 2.76732C7.93209 2.63932 7.70631 2.5451 7.46447 2.48723C6.9811 2.3716 6.22886 2.29749 5.39035 2.60082C5.29244 2.63601 5.22406 2.72204 5.21189 2.82487L5.11419 3.63896C5.09233 4.08646 4.72853 4.36993 4.72853 4.36993L4.66872 2.50636C4.65737 1.8483 5.04233 1.25939 5.64977 1.00574L5.78195 0.950542C6.75642 0.543606 7.87397 0.427238 9.01399 0.614024C9.15746 0.637438 9.29327 0.540161 9.31683 0.396441C9.34035 0.252721 9.24296 0.117158 9.09925 0.0936031C7.86181 -0.109144 6.64441 0.0188955 5.57878 0.463906L5.4466 0.519102C4.63779 0.85685 4.12552 1.64133 4.14152 2.51768C4.14152 2.51887 4.14155 2.5201 4.14159 2.52133L4.21201 4.71534C3.56562 4.79213 3.06257 5.34324 3.06257 6.00994C3.06257 6.69739 3.5974 7.26194 4.27276 7.31028C4.48658 8.53506 5.06167 9.51396 5.98242 10.2041V11.2072C5.98242 11.2876 5.93408 11.3586 5.85926 11.3882L5.45925 11.5459H4.19018C3.54734 11.5459 3.00505 11.9837 2.84516 12.5767L2.65802 12.6505C2.14122 12.8543 1.71927 13.264 1.50029 13.7746C1.0044 14.931 0.75293 16.1553 0.75293 17.4135V17.7364C0.75293 17.882 0.870985 18.0001 1.0166 18.0001H14.9831C15.1287 18.0001 15.2468 17.882 15.2468 17.7364V17.4135C15.2467 16.1552 14.9953 14.9308 14.4994 13.7744V13.7744ZM12.4555 6.00987C12.4555 6.39786 12.1695 6.72028 11.7974 6.77755C11.839 6.297 11.83 5.78315 11.7704 5.23872C12.1556 5.28421 12.4555 5.61257 12.4555 6.00987V6.00987ZM3.58984 6.00987C3.58984 5.628 3.86695 5.30984 4.23057 5.24529C4.17186 5.78435 4.16314 6.29306 4.20368 6.76929C3.85338 6.6942 3.58984 6.38229 3.58984 6.00987ZM4.90417 7.72045C4.69098 6.96697 4.64939 6.0849 4.77929 5.09795L5.22258 4.61033C5.45331 4.3565 5.59689 4.04231 5.63778 3.70175L5.71625 3.04777C6.37304 2.84664 6.95695 2.90798 7.34174 3.00006C7.52751 3.0445 7.70009 3.11636 7.85474 3.21363C8.92111 3.88453 9.75653 3.62057 10.2507 3.30655C10.3679 4.38434 10.9947 5.01976 11.2386 5.22944C11.3511 6.18952 11.2981 7.04734 11.0801 7.77993C10.8016 8.71576 10.2485 9.45127 9.43629 9.966C8.56427 10.5186 7.43733 10.5186 6.56531 9.966C5.73593 9.44041 5.17705 8.6849 4.90417 7.72045V7.72045ZM6.50969 11.2072V10.5418C6.97464 10.7852 7.48764 10.9074 8.00075 10.9074C8.51319 10.9074 9.02545 10.7856 9.4899 10.5428V11.2072C9.4899 11.3286 9.52003 11.444 9.57396 11.5458H6.42563C6.47956 11.444 6.50969 11.3286 6.50969 11.2072V11.2072ZM1.28024 17.4134C1.28024 16.227 1.51734 15.0726 1.98492 13.9823C2.14101 13.6183 2.43517 13.3231 2.79703 13.164V15.135C2.79703 15.2806 2.91509 15.3987 3.0607 15.3987C3.20632 15.3987 3.32438 15.2806 3.32438 15.135V12.9389C3.32438 12.4615 3.71275 12.0732 4.19011 12.0732H11.9629C12.4402 12.0732 12.8286 12.4615 12.8286 12.9389V17.4726H3.32438V16.1897C3.32438 16.0441 3.20632 15.926 3.0607 15.926C2.91509 15.926 2.79703 16.0441 2.79703 16.1897V17.4726H1.28024V17.4134ZM14.7194 17.4726H13.356V13.2415C13.6471 13.4101 13.8813 13.6712 14.0147 13.9823C14.4823 15.0726 14.7194 16.227 14.7194 17.4134V17.4726Z" fill="#A6A6A6"/>
<path d="M8.07616 15.9048C8.70026 15.9048 9.20799 15.397 9.20799 14.7729C9.20799 14.1488 8.70026 13.6411 8.07616 13.6411C7.45207 13.6411 6.94434 14.1488 6.94434 14.7729C6.9443 15.397 7.45207 15.9048 8.07616 15.9048ZM8.07616 14.1684C8.40948 14.1684 8.68064 14.4396 8.68064 14.7729C8.68064 15.1062 8.40948 15.3774 8.07616 15.3774C7.74285 15.3774 7.47168 15.1062 7.47168 14.7729C7.47165 14.4396 7.74285 14.1684 8.07616 14.1684Z" fill="#A6A6A6"/>
</svg>
