<svg width="18" height="18" viewBox="0 0 18 18" fill="none" xmlns="http://www.w3.org/2000/svg">
<path d="M16.3035 1.69653C14.0414 -0.565528 10.3608 -0.565493 8.0987 1.69653C6.55373 3.24151 6.01724 5.5189 6.68595 7.58461L0.154512 14.1161C0.0555821 14.215 0 14.3491 0 14.489V17.4726C0 17.7639 0.236145 18 0.527414 18H3.51099C3.65091 18 3.78499 17.9444 3.88396 17.8455L4.62997 17.0995C4.74392 16.9855 4.79953 16.8257 4.7809 16.6656L4.68781 15.8646L5.79818 15.76C6.05032 15.7362 6.25001 15.5366 6.27378 15.2844L6.37851 14.1739L7.17954 14.267C7.3291 14.2845 7.47879 14.2371 7.59122 14.137C7.70358 14.0369 7.76788 13.8936 7.76788 13.7431V12.7609H8.73222C8.87105 12.7609 9.00426 12.7062 9.10301 12.6086L10.4134 11.3133C12.4796 11.9831 14.7581 11.4467 16.3035 9.90126C18.5655 7.63924 18.5655 3.95856 16.3035 1.69653ZM15.5576 9.15542C14.2264 10.4866 12.2295 10.9021 10.4704 10.2141C10.2762 10.1382 10.0557 10.1837 9.90749 10.3302L8.51555 11.7061H7.24043C6.94916 11.7061 6.71302 11.9422 6.71302 12.2335V13.1508L5.96489 13.0639C5.82395 13.0475 5.68241 13.0886 5.57213 13.1778C5.46188 13.2671 5.3922 13.397 5.37887 13.5382L5.26451 14.7508L4.05211 14.865C3.91085 14.8783 3.78095 14.948 3.69165 15.0583C3.60239 15.1685 3.56129 15.3101 3.57768 15.451L3.70361 16.534L3.29249 16.9452H1.05479V14.7075L7.66758 8.09476C7.81573 7.94661 7.86217 7.72481 7.78585 7.52969C7.09777 5.77054 7.51335 3.77374 8.84454 2.44248C10.6954 0.591711 13.7068 0.591711 15.5576 2.44248C17.4083 4.29321 17.4083 7.30466 15.5576 9.15542Z" fill="#7E7E7E"/>
<path d="M14.8117 3.18841C14.1948 2.57146 13.1909 2.57149 12.574 3.18841C11.9571 3.80533 11.9571 4.80915 12.574 5.42607C13.1909 6.043 14.1948 6.04307 14.8117 5.42607C15.4286 4.80915 15.4286 3.80533 14.8117 3.18841ZM14.0658 4.6802C13.8602 4.88583 13.5256 4.88586 13.3199 4.6802C13.1143 4.47457 13.1143 4.13999 13.3199 3.93432C13.5261 3.72817 13.8596 3.72817 14.0658 3.93432C14.272 4.14048 14.2719 4.47404 14.0658 4.6802Z" fill="#7E7E7E"/>
</svg>
