<svg width="52" height="52" viewBox="0 0 52 52" fill="none" xmlns="http://www.w3.org/2000/svg">
<g clip-path="url(#clip0_54_12)">
<path d="M10.5959 34.5661C15.7248 40.6971 21.8988 45.5243 28.9457 48.9399C31.6286 50.2114 35.2167 51.7199 39.2142 51.9785C39.462 51.9892 39.6991 52 39.9469 52C42.6299 52 44.7849 51.0734 46.5412 49.1662C46.552 49.1554 46.5735 49.1339 46.5843 49.1123C47.2092 48.3581 47.9204 47.6792 48.6638 46.9573C49.1703 46.4724 49.6875 45.966 50.1831 45.4488C52.4782 43.0568 52.4782 40.0182 50.1616 37.7016L43.6858 31.2259C42.5868 30.0837 41.2722 29.4803 39.893 29.4803C38.5138 29.4803 37.1885 30.0837 36.0571 31.2151L32.1997 35.0725C31.8441 34.8678 31.4778 34.6846 31.133 34.5122C30.702 34.2967 30.3033 34.092 29.9477 33.8657C26.4351 31.6353 23.2457 28.7261 20.1964 24.9872C18.6556 23.0369 17.6212 21.3991 16.8993 19.729C17.9121 18.8131 18.8603 17.8541 19.7762 16.9167C20.0994 16.5827 20.4334 16.2487 20.7675 15.9146C21.9312 14.7509 22.5561 13.4041 22.5561 12.0356C22.5561 10.6672 21.9419 9.32035 20.7675 8.15665L17.5565 4.94571C17.1794 4.56859 16.8238 4.20224 16.4575 3.82511C15.7463 3.09242 15.0029 2.33817 14.2702 1.65935C13.1603 0.571073 11.8566 0 10.4774 0C9.10896 0 7.79442 0.571073 6.6415 1.67012L2.61166 5.69996C1.14627 7.16536 0.316595 8.94323 0.144196 11.0012C-0.0605285 13.5765 0.41357 16.3133 1.64192 19.6212C3.52753 24.7393 6.37212 29.4911 10.5959 34.5661ZM2.77329 11.2275C2.90259 9.79445 3.45211 8.59843 4.4865 7.56403L8.49479 3.55574C9.11974 2.95234 9.80934 2.63987 10.4774 2.63987C11.1347 2.63987 11.8027 2.95234 12.4169 3.57729C13.1388 4.24534 13.8176 4.94571 14.5503 5.68918C14.9167 6.06631 15.2938 6.44343 15.6709 6.83133L18.8819 10.0423C19.5499 10.7103 19.8947 11.3891 19.8947 12.0572C19.8947 12.7252 19.5499 13.4041 18.8819 14.0721C18.5478 14.4061 18.2138 14.7509 17.8798 15.085C16.8777 16.0978 15.9403 17.0568 14.9059 17.9727C14.8843 17.9942 14.8736 18.005 14.852 18.0265C13.9577 18.9208 14.0978 19.7721 14.3133 20.4186C14.324 20.4509 14.3348 20.4724 14.3456 20.5048C15.1753 22.4981 16.3282 24.3945 18.1276 26.6573C21.3601 30.644 24.765 33.7364 28.5147 36.1177C28.978 36.4194 29.4736 36.6564 29.937 36.8935C30.368 37.109 30.7666 37.3137 31.1222 37.54C31.1653 37.5615 31.1976 37.5831 31.2407 37.6046C31.5963 37.7878 31.9411 37.874 32.2859 37.874C33.1479 37.874 33.7082 37.3245 33.8914 37.1413L37.9212 33.1115C38.5462 32.4865 39.225 32.1525 39.893 32.1525C40.7119 32.1525 41.38 32.6589 41.8002 33.1115L48.2975 39.598C49.5905 40.891 49.5797 42.2918 48.2652 43.6602C47.8126 44.1451 47.3385 44.6084 46.8321 45.0933C46.0779 45.826 45.2913 46.5802 44.5801 47.4314C43.341 48.7675 41.8648 49.3925 39.9577 49.3925C39.7745 49.3925 39.5806 49.3817 39.3974 49.3709C35.8632 49.1446 32.5768 47.7654 30.1094 46.591C23.4073 43.3477 17.5242 38.7468 12.6432 32.9068C8.62409 28.0688 5.91957 23.5649 4.13093 18.7377C3.02111 15.7746 2.60089 13.3933 2.77329 11.2275Z" fill="#C4002E"/>
</g>
<defs>
<clipPath id="clip0_54_12">
<rect width="52" height="52" fill="white"/>
</clipPath>
</defs>
</svg>
