<svg width="43" height="50" viewBox="0 0 43 50" fill="none" xmlns="http://www.w3.org/2000/svg">
<path d="M36.0334 25.3483C35.8549 25.1658 35.6419 25.0208 35.4068 24.9215C35.1717 24.8222 34.9192 24.7707 34.6639 24.77C34.4087 24.7693 34.1559 24.8194 33.9203 24.9174C33.6847 25.0154 33.4709 25.1593 33.2914 25.3408C33.1119 25.5223 32.9704 25.7376 32.875 25.9743C32.7796 26.211 32.7323 26.4644 32.7358 26.7196C32.7393 26.9747 32.7936 27.2267 32.8955 27.4607C32.9973 27.6947 33.1447 27.9061 33.3291 28.0825C34.9607 29.688 36.2551 31.6032 37.1365 33.7157C38.0178 35.8282 38.4684 38.0954 38.4616 40.3844C38.4616 42.7365 31.7195 46.1536 21.1539 46.1536C10.5884 46.1536 3.84624 42.7348 3.84624 40.3806C3.83977 38.1073 4.28427 35.8553 5.15401 33.755C6.02375 31.6547 7.30146 29.7478 8.91317 28.1446C9.09546 27.9669 9.24064 27.7547 9.3403 27.5205C9.43996 27.2862 9.49211 27.0344 9.49373 26.7799C9.49534 26.5253 9.44638 26.2729 9.3497 26.0374C9.25302 25.8019 9.11053 25.5879 8.93051 25.4078C8.75048 25.2278 8.53651 25.0853 8.30098 24.9887C8.06546 24.892 7.81309 24.843 7.5585 24.8446C7.30391 24.8462 7.05218 24.8984 6.8179 24.9981C6.58363 25.0977 6.37147 25.2429 6.19374 25.4252C4.2234 27.3852 2.66144 29.7165 1.59829 32.2843C0.535138 34.8521 -0.00807859 37.6053 9.07916e-05 40.3844C9.07916e-05 46.6298 10.8982 49.9998 21.1539 49.9998C31.4097 49.9998 42.3078 46.6298 42.3078 40.3844C42.3163 37.5865 41.7657 34.8152 40.6882 32.233C39.6107 29.6509 38.0281 27.3102 36.0334 25.3483V25.3483Z" fill="#C5002F"/>
<path d="M21.1539 26.9231C23.8164 26.9231 26.419 26.1336 28.6327 24.6544C30.8465 23.1752 32.5719 21.0728 33.5908 18.613C34.6096 16.1533 34.8762 13.4466 34.3568 10.8353C33.8374 8.22404 32.5553 5.82543 30.6727 3.9428C28.79 2.06017 26.3914 0.778082 23.7801 0.258666C21.1689 -0.260751 18.4622 0.00583266 16.0024 1.0247C13.5426 2.04358 11.4402 3.76897 9.96106 5.98271C8.48189 8.19645 7.69238 10.7991 7.69238 13.4615C7.69651 17.0305 9.11609 20.4521 11.6397 22.9757C14.1634 25.4994 17.585 26.919 21.1539 26.9231ZM21.1539 3.84616C23.0557 3.84616 24.9147 4.41009 26.4959 5.46664C28.0772 6.5232 29.3096 8.02491 30.0374 9.78189C30.7651 11.5389 30.9556 13.4722 30.5845 15.3374C30.2135 17.2026 29.2978 18.9159 27.953 20.2606C26.6083 21.6054 24.895 22.5212 23.0298 22.8922C21.1646 23.2632 19.2313 23.0728 17.4743 22.345C15.7173 21.6172 14.2156 20.3848 13.159 18.8036C12.1025 17.2223 11.5385 15.3633 11.5385 13.4615C11.5415 10.9123 12.5555 8.46834 14.3581 6.66576C16.1607 4.86317 18.6047 3.84916 21.1539 3.84616V3.84616Z" fill="#C5002F"/>
</svg>
