<svg width="18" height="18" viewBox="0 0 18 18" fill="none" xmlns="http://www.w3.org/2000/svg">
<g clip-path="url(#clip0_472_94)">
<path d="M0.340982 9.05094L1.77553 9.61689C1.96509 9.69163 2.17177 9.65215 2.31961 9.52826L3.45564 10.2447L3.65048 10.3817C3.40333 10.7728 3.46664 11.3073 3.84243 11.626C4.0489 11.801 4.31127 11.8757 4.56809 11.8478C4.58317 12.1177 4.70593 12.3582 4.90573 12.5275C5.10207 12.694 5.3584 12.7793 5.63135 12.7495C5.64654 13.0193 5.76923 13.2597 5.96902 13.4291C6.1672 13.5971 6.42401 13.6806 6.6951 13.651C6.70927 13.9052 6.82328 14.1534 7.03232 14.3307C7.43612 14.6731 8.04359 14.6234 8.38597 14.2197L8.61393 13.9521L8.99808 14.2356C9.66225 14.7259 10.601 14.3242 10.6876 13.5093C11.3723 13.7582 12.0994 13.2783 12.11 12.5413C12.7555 12.6626 13.3282 12.1938 13.3642 11.572C14.2014 11.7956 14.9587 10.9495 14.589 10.1222L15.6156 9.46287C15.7626 9.637 16.0068 9.70278 16.2246 9.61685L17.6592 9.05094C17.9353 8.94203 18.0714 8.62875 17.9624 8.35257L17.3068 6.69059C17.2533 6.5551 17.1002 6.48865 16.9647 6.54209C16.8292 6.59553 16.7628 6.74867 16.8162 6.88413L17.4718 8.54607C17.4741 8.55173 17.4713 8.55816 17.4656 8.56041L16.0311 9.12632C16.0254 9.12853 16.019 9.12579 16.0168 9.12013C15.9666 8.99279 14.3564 4.91116 14.214 4.55025C14.2135 4.54898 14.2123 4.54603 14.2141 4.54184C14.216 4.53766 14.2189 4.5365 14.2202 4.53597L15.6548 3.97003C15.656 3.9695 15.6589 3.96834 15.6632 3.97017C15.6673 3.972 15.6685 3.97495 15.669 3.97622L16.3641 5.73803C16.4176 5.87353 16.5707 5.93997 16.7061 5.88653C16.8416 5.8331 16.9081 5.67996 16.8547 5.5445L16.1596 3.78272C16.0507 3.5066 15.7374 3.37054 15.4613 3.47949L14.0267 4.04544C13.7703 4.14655 13.635 4.42161 13.7038 4.68236L12.9348 4.96621C12.6954 5.05456 12.4356 5.08019 12.1835 5.04022L11.4061 4.917C11.2623 4.89425 11.1272 4.99237 11.1045 5.13612C11.0817 5.27995 11.1798 5.41505 11.3236 5.43784L12.101 5.56106C12.4421 5.61509 12.7935 5.58046 13.1174 5.4609L13.8934 5.17444C13.9776 5.38798 15.3068 8.75728 15.3941 8.97838L14.2626 9.7051L14.2434 9.69093C14.2433 9.69086 14.2432 9.69079 14.2432 9.69075C14.1219 9.60128 12.1546 8.1494 12.0623 8.08123C12.0057 8.0395 11.9355 8.02076 11.8547 8.03447C10.7624 8.2202 9.78375 7.8318 9.06378 7.08005C8.83977 6.84616 8.47429 6.83361 8.2316 7.0515C7.53316 7.6788 6.55712 8.29048 5.87421 7.64146C5.80636 7.57702 5.80586 7.45798 5.90891 7.39147C6.77881 6.83188 7.67997 6.04618 8.40517 5.31254C8.58566 5.1299 8.84525 5.045 9.10003 5.08539L10.1009 5.24405C10.245 5.26687 10.3798 5.16871 10.4026 5.02493C10.4253 4.8811 10.3273 4.746 10.1834 4.72322L9.18258 4.56456C8.76056 4.49769 8.32979 4.63873 8.03016 4.94185C7.94628 5.02668 7.84706 5.12519 7.7352 5.23323C7.39756 5.11352 7.04564 5.04201 6.68769 5.0219C5.63989 4.96305 5.54901 4.95194 5.31108 4.96723C5.12433 4.97915 4.93434 4.94741 4.76155 4.87513L4.29686 4.68068C4.36393 4.42143 4.22883 4.14606 3.97353 4.04537L2.53898 3.47949C2.26276 3.37051 1.94952 3.50656 1.8406 3.78272L0.0377606 8.35257C-0.0713992 8.62932 0.0641278 8.94175 0.340982 9.05094V9.05094ZM4.79428 11.1734C4.63977 11.3557 4.3658 11.3783 4.18348 11.2237C3.99996 11.0681 3.97915 10.7946 4.13282 10.6134L4.785 9.8479C4.93585 9.6699 5.21056 9.64058 5.3958 9.79759C5.57847 9.95245 5.60104 10.2257 5.44608 10.4084C5.44601 10.4085 5.44597 10.4085 5.4459 10.4086L4.79428 11.1734ZM5.85754 12.075C5.70268 12.2577 5.42955 12.2803 5.24678 12.1253C5.06326 11.9697 5.04245 11.6962 5.19612 11.515L5.8483 10.7495C6.01026 10.5584 6.31046 10.5417 6.4912 10.7293C6.49239 10.7306 6.49341 10.7319 6.49461 10.7332C6.64346 10.8915 6.65316 11.1404 6.50937 11.31L5.85754 12.075ZM6.92084 12.9766C6.76542 13.1599 6.49201 13.1811 6.31007 13.0269C6.12656 12.8713 6.10571 12.5978 6.25938 12.4166L6.91159 11.651C7.06653 11.4684 7.34152 11.4473 7.5224 11.6008C7.70465 11.7553 7.72718 12.0293 7.57267 12.2116C7.5726 12.2116 7.57257 12.2117 7.57249 12.2118L6.92084 12.9766ZM8.63952 13.1085C8.63843 13.1098 8.63748 13.1113 8.63635 13.1126C8.53117 13.2361 8.24131 13.5763 7.98414 13.8781C7.82963 14.0604 7.55566 14.083 7.37337 13.9284C7.19109 13.7739 7.16855 13.4999 7.32268 13.3181L7.97489 12.5526C8.13028 12.3693 8.40394 12.3482 8.58566 12.5023C8.76446 12.6539 8.79185 12.9243 8.63952 13.1085ZM4.10737 5.17314L4.55796 5.36169C4.80525 5.46515 5.07736 5.51075 5.34479 5.49356C5.54645 5.48059 5.61377 5.4898 6.65801 5.54847C6.87243 5.56053 7.08442 5.59372 7.29146 5.64758C6.77554 6.11347 6.19617 6.58045 5.61584 6.9531C5.24379 7.19195 5.18866 7.71761 5.51094 8.02389C5.95141 8.44242 6.93645 8.92357 8.58394 7.44395C8.61347 7.41745 8.65692 7.4178 8.68283 7.4449C9.48088 8.27789 10.6121 8.74319 11.8336 8.57152C11.972 8.6688 11.704 8.47241 13.9299 10.1152H13.93C14.1682 10.2909 14.2348 10.6367 14.0483 10.8753C13.8711 11.1019 13.551 11.1458 13.3198 10.9751C13.0073 10.7445 13.238 10.92 12.1395 10.0736C12.0241 9.98469 11.8586 10.0062 11.7697 10.1215C11.6808 10.2369 11.7023 10.4024 11.8176 10.4913L12.729 11.1935C12.886 11.4004 12.8673 11.6993 12.6814 11.8847C12.4986 12.0671 12.1978 12.0843 11.9817 11.9249C11.7727 11.7706 11.9463 11.9028 10.9877 11.1648C10.8724 11.0759 10.7068 11.0975 10.618 11.2129C10.5291 11.3283 10.5506 11.4938 10.666 11.5826L11.4741 12.2048C11.6267 12.4022 11.6192 12.6861 11.4526 12.8751C11.2733 13.0783 10.9556 13.1066 10.7293 12.9396C10.3656 12.6712 10.5481 12.8098 9.84777 12.2677C9.73259 12.1786 9.56701 12.1997 9.47785 12.3148C9.38873 12.43 9.40983 12.5956 9.525 12.6847L10.0852 13.1183C10.2127 13.3211 10.1877 13.5868 10.0201 13.7621C9.83718 13.9534 9.53242 13.9746 9.31114 13.8113L8.9567 13.5497L9.03812 13.4542C9.20047 13.2628 9.28428 13.0149 9.26284 12.7541C9.24104 12.4899 9.1155 12.2603 8.92667 12.1001C8.73026 11.9336 8.47372 11.8483 8.20084 11.8779C8.1865 11.6231 8.06967 11.3735 7.86338 11.1985C7.6677 11.0326 7.41928 10.9529 7.16324 10.9738C7.1547 10.9745 7.14616 10.9753 7.13768 10.9763C7.13719 10.9678 7.13691 10.9594 7.13621 10.9509C7.11944 10.7471 7.03998 10.5582 6.90938 10.4059C6.90857 10.405 6.90783 10.404 6.90702 10.4031C6.69925 10.1627 6.38995 10.0413 6.0747 10.0751C6.05987 9.81039 5.93984 9.5676 5.73678 9.3954C5.33266 9.05281 4.72527 9.1028 4.3831 9.50639L3.98573 9.97281L3.75345 9.80954C3.74986 9.80701 3.74621 9.80455 3.74248 9.80223L2.57227 9.0642C3.45698 6.82169 3.12559 7.66168 4.10737 5.17314V5.17314ZM0.528294 8.54614L2.3311 3.97629C2.33282 3.97193 2.33697 3.96929 2.34137 3.96929C2.3427 3.96929 2.34407 3.96954 2.34541 3.97006L3.77996 4.53601C3.78562 4.53822 3.78839 4.54466 3.78618 4.55028C3.69945 4.77015 2.04008 8.97634 1.98334 9.12017C1.98102 9.1259 1.97483 9.1286 1.96906 9.12635L0.534517 8.56041C0.528822 8.55816 0.526009 8.5518 0.528294 8.54614Z" fill="#9C9C9C"/>
</g>
<defs>
<clipPath id="clip0_472_94">
<rect width="18" height="18" fill="white"/>
</clipPath>
</defs>
</svg>
