<svg width="15" height="18" viewBox="0 0 15 18" fill="none" xmlns="http://www.w3.org/2000/svg">
<path d="M14.6936 11.9573C14.264 11.4967 13.5397 11.4715 13.0791 11.9011L12.943 12.028L11.6479 11.1819L11.7379 9.22408C11.8043 7.7765 11.7336 7.31445 11.233 5.92807C10.8455 4.8551 10.317 3.51442 9.89231 2.43715C9.58836 1.66613 9.32587 1.00025 9.24166 0.750172C9.24128 0.749087 9.24094 0.748036 9.24054 0.746917C9.01907 0.110568 8.43731 -0.0920106 7.97716 0.0368596C7.80215 0.0858513 7.63307 0.18753 7.50006 0.337048C7.36705 0.18753 7.19801 0.0858513 7.02296 0.0368596C6.56274 -0.0919428 5.98104 0.110534 5.75955 0.746883C5.75917 0.747968 5.7588 0.749019 5.75843 0.750138C5.69099 0.950377 5.50679 1.42304 5.31777 1.9039C5.24929 2.0782 5.33503 2.27498 5.5093 2.34347C5.6837 2.41209 5.88038 2.32618 5.94887 2.15198C6.17037 1.58839 6.33199 1.17126 6.40047 0.968278C6.4891 0.715725 6.68493 0.646425 6.84015 0.689856C7.0019 0.735152 7.14735 0.911557 7.07127 1.27091L6.2794 4.67619C6.10981 4.7997 5.94477 5.00418 5.8084 5.33119C5.41576 6.27284 5.0856 7.27716 4.90258 8.08645C4.86129 8.26913 4.97588 8.45062 5.15849 8.49195C5.3411 8.53324 5.52266 8.41868 5.56395 8.23604C5.73873 7.46305 6.05594 6.49943 6.43424 5.59218C6.61153 5.16705 6.76447 5.18092 6.82204 5.18604C7.00607 5.20259 7.14237 5.36695 7.12586 5.55241C7.11033 5.72698 7.04245 6.36316 6.97678 6.97842C6.90778 7.62478 6.84262 8.23529 6.82658 8.41576C6.78709 8.8595 6.86507 9.39794 6.94762 9.96797C7.18692 11.6204 7.4828 13.6649 5.27675 15.031L2.5677 12.5044L3.88508 11.6437C3.98554 11.578 4.04382 11.4642 4.03833 11.3443L3.9395 9.19298C3.87698 7.8322 3.93353 7.46353 4.40483 6.15842C4.52716 5.81961 4.66946 5.43778 4.83983 4.99109C4.90655 4.81614 4.81881 4.62021 4.64386 4.55349C4.46891 4.48676 4.27301 4.57454 4.20626 4.74945C4.03446 5.19994 3.89081 5.58547 3.76706 5.9281C3.26643 7.31448 3.19567 7.77653 3.26216 9.22411L3.35207 11.1819L2.05696 12.0281L1.9209 11.9012C1.46028 11.4715 0.73605 11.4967 0.306381 11.9574C-0.123187 12.418 -0.0979621 13.1423 0.362662 13.5719L4.09369 17.0517C4.3135 17.2567 4.59324 17.3581 4.87244 17.3581C5.17836 17.3581 5.48357 17.2363 5.70818 16.9955C5.91629 16.7724 6.02505 16.4815 6.01444 16.1766C6.00596 15.9337 5.92239 15.7052 5.77606 15.5171C6.61794 14.9646 7.18709 14.2821 7.49996 13.4486C7.81283 14.2822 8.38194 14.9646 9.22382 15.5171C9.07752 15.7052 8.99392 15.9337 8.98547 16.1766C8.97486 16.4815 9.08363 16.7724 9.29173 16.9955C9.51638 17.2364 9.82152 17.3581 10.1275 17.3581C10.4066 17.3581 10.6865 17.2567 10.9062 17.0517L14.6373 13.5719V13.5719C15.098 13.1422 15.1232 12.418 14.6936 11.9573V11.9573ZM5.2124 16.5329C5.03779 16.7201 4.74344 16.7303 4.55628 16.5557L0.825252 13.0759C0.638066 12.9014 0.627827 12.607 0.8024 12.4198C0.893671 12.3219 1.01769 12.2724 1.14205 12.2724C1.2555 12.2724 1.36921 12.3137 1.45852 12.397L5.18955 15.8768C5.28024 15.9614 5.33256 16.0762 5.33686 16.2001C5.34117 16.324 5.29699 16.4422 5.2124 16.5329V16.5329ZM7.00957 4.53013L7.50006 2.42091L7.99055 4.53013C7.80069 4.5718 7.63249 4.66649 7.50006 4.79655C7.36766 4.66649 7.19943 4.5718 7.00957 4.53013ZM7.50006 8.50395C7.50843 8.61712 7.50765 8.7406 7.50006 8.8735C7.4925 8.7406 7.49168 8.61712 7.50006 8.50395V8.50395ZM8.05246 9.96794C8.13502 9.3979 8.213 8.85947 8.1735 8.41573C8.15743 8.23526 8.09227 7.62474 8.0233 6.97836C7.95763 6.36313 7.88976 5.72695 7.87423 5.55234C7.85772 5.36689 7.99401 5.20255 8.17804 5.18597C8.23571 5.18089 8.38859 5.16699 8.56584 5.59211C8.94414 6.49939 9.26135 7.46302 9.43613 8.23597C9.47743 8.41861 9.65895 8.53314 9.84159 8.49188C10.0242 8.45055 10.1388 8.26906 10.0975 8.08638C9.91449 7.27709 9.58433 6.27281 9.19165 5.33112C9.05528 5.00404 8.89027 4.7996 8.72065 4.67609L7.92881 1.27091C7.85276 0.911557 7.99818 0.735152 8.15994 0.689856C8.31515 0.646425 8.51105 0.715793 8.59964 0.96838C8.68986 1.23585 8.94221 1.87593 9.26149 2.6858C9.68455 3.75898 10.211 5.09457 10.5952 6.15835C11.0665 7.46346 11.123 7.83213 11.0605 9.19292L10.9617 11.3442C10.9562 11.4641 11.0144 11.578 11.1149 11.6436L12.4323 12.5043L9.72327 15.031C7.51728 13.6649 7.81316 11.6203 8.05246 9.96794V9.96794ZM14.1749 13.0759L10.4438 16.5558C10.2566 16.7303 9.96232 16.7201 9.78772 16.5329C9.70313 16.4422 9.65895 16.324 9.66326 16.2001C9.66756 16.0762 9.71988 15.9614 9.81057 15.8768L13.5416 12.397C13.6309 12.3137 13.7446 12.2724 13.8581 12.2724C13.9824 12.2724 14.1064 12.322 14.1977 12.4198C14.3723 12.607 14.3621 12.9014 14.1749 13.0759V13.0759Z" fill="#7E7E7E"/>
<path d="M4.94082 3.75938C4.98435 3.77807 5.02965 3.78691 5.0742 3.78691C5.20575 3.78691 5.33089 3.70988 5.38598 3.58135L5.38609 3.58112C5.45983 3.40902 5.38008 3.2098 5.20795 3.13605C5.03585 3.06218 4.83646 3.14212 4.76272 3.31422C4.68898 3.48632 4.76869 3.68561 4.94082 3.75938V3.75938Z" fill="#7E7E7E"/>
</svg>
