<svg width="18" height="18" viewBox="0 0 18 18" fill="none" xmlns="http://www.w3.org/2000/svg">
<g clip-path="url(#clip0_26_12)">
<path d="M15.3638 2.63616C11.849 -0.87873 6.15027 -0.878731 2.63612 2.63623C-0.87873 6.15108 -0.878731 11.8497 2.63626 15.3639C6.15027 18.8787 11.849 18.8787 15.3638 15.3638C18.8787 11.8497 18.8787 6.15108 15.3638 2.63616ZM14.3032 14.3031C11.3741 17.2323 6.62527 17.2323 3.69693 14.3032C0.767777 11.3748 0.767777 6.62593 3.69686 3.69686C6.62527 0.767742 11.3741 0.767742 14.3032 3.69686C17.2323 6.62597 17.2323 11.3748 14.3032 14.3031Z" fill="#CB2B51"/>
<path d="M12.7122 5.28778C12.4193 4.99489 11.9444 4.99489 11.6515 5.28778L8.99986 7.93944L6.3482 5.28778C6.05531 4.99489 5.58042 4.99489 5.28754 5.28778C4.99465 5.58067 4.99465 6.05556 5.28754 6.34844L7.9392 9.0001L5.28852 11.6508C4.99563 11.9437 4.99563 12.4186 5.28852 12.7114C5.58141 13.0043 6.0563 13.0043 6.34919 12.7114L8.99986 10.0608L11.6513 12.7122C11.9442 13.0051 12.4191 13.0051 12.712 12.7122C13.0049 12.4193 13.0049 11.9444 12.712 11.6516L10.0605 9.0001L12.7122 6.34844C13.0051 6.05556 13.0051 5.5807 12.7122 5.28778Z" fill="#CB2B51"/>
</g>
<defs>
<clipPath id="clip0_26_12">
<rect width="18" height="18" fill="white"/>
</clipPath>
</defs>
</svg>
