<svg width="12" height="15" viewBox="0 0 12 15" fill="none" xmlns="http://www.w3.org/2000/svg">
<path d="M5.5 2H1.4375C0.989 2 0.625 1.636 0.625 1.1875C0.625 0.739 0.989 0.375 1.4375 0.375H11.1875C11.636 0.375 12 0.739 12 1.1875C12 1.636 11.636 2 11.1875 2H8.75C9.10506 2.47206 9.35937 3.02456 9.48125 3.625H11.1875C11.636 3.625 12 3.989 12 4.4375C12 4.886 11.636 5.25 11.1875 5.25H9.48125C9.10506 7.10413 7.46544 8.5 5.5 8.5H5.02387L10.1369 13.6131C10.4538 13.9299 10.4538 14.4451 10.1369 14.7619C9.82006 15.0788 9.30494 15.0788 8.98806 14.7619L2.48806 8.26194C2.25569 8.02956 2.18581 7.68019 2.31175 7.37631C2.43769 7.07325 2.73425 6.875 3.0625 6.875H5.5C6.56112 6.875 7.46463 6.19656 7.79856 5.25H1.4375C0.989 5.25 0.625 4.886 0.625 4.4375C0.625 3.989 0.989 3.625 1.4375 3.625H7.79856C7.46463 2.67844 6.56112 2 5.5 2V2Z" fill="#C5002F"/>
<path d="M5.5 2H1.4375C0.989 2 0.625 1.636 0.625 1.1875C0.625 0.739 0.989 0.375 1.4375 0.375H11.1875C11.636 0.375 12 0.739 12 1.1875C12 1.636 11.636 2 11.1875 2H8.75C9.10506 2.47206 9.35937 3.02456 9.48125 3.625H11.1875C11.636 3.625 12 3.989 12 4.4375C12 4.886 11.636 5.25 11.1875 5.25H9.48125C9.10506 7.10413 7.46544 8.5 5.5 8.5H5.02387L10.1369 13.6131C10.4538 13.9299 10.4538 14.4451 10.1369 14.7619C9.82006 15.0788 9.30494 15.0788 8.98806 14.7619L2.48806 8.26194C2.25569 8.02956 2.18581 7.68019 2.31175 7.37631C2.43769 7.07325 2.73425 6.875 3.0625 6.875H5.5C6.56112 6.875 7.46463 6.19656 7.79856 5.25H1.4375C0.989 5.25 0.625 4.886 0.625 4.4375C0.625 3.989 0.989 3.625 1.4375 3.625H7.79856C7.46463 2.67844 6.56112 2 5.5 2V2Z" fill="#C5002F" fill-opacity="0.71"/>
</svg>
