<svg width="12" height="15" viewBox="0 0 12 15" fill="none" xmlns="http://www.w3.org/2000/svg">
<path d="M9.16406 5.27344H8.46094V3.51562H10.5703V1.75781C10.5703 0.788498 9.93951 0 9.16406 0H2.10938C1.33392 0 0.703125 0.788498 0.703125 1.75781V10.6055H0V11.4844C0 12.4537 0.630798 13.2422 1.40625 13.2422H2.8125V15H12V7.03125H9.16406V5.27344ZM6.35156 7.03125V6.15234H8.46094V7.03125H6.35156ZM9.86719 1.75781V2.63672H8.46094V1.75781C8.46094 1.27316 8.77634 0.878906 9.16406 0.878906C9.55179 0.878906 9.86719 1.27316 9.86719 1.75781ZM1.40625 1.75781C1.40625 1.27316 1.72165 0.878906 2.10938 0.878563H7.94696C7.82693 1.13766 7.75781 1.43772 7.75781 1.75781V5.27344H5.64844V7.03125H2.8125V10.6055H1.40625V1.75781ZM1.40625 12.3633C1.01852 12.3633 0.703125 11.969 0.703125 11.4844H2.8125V12.3633H1.40625ZM3.51562 14.1211V10.7014L6.35156 11.4056V13.2422H8.46094V11.4056L11.2969 10.7014V14.1211H3.51562ZM7.05469 12.3633V11.4844H7.75781V12.3633H7.05469ZM11.2969 9.8053L8.07477 10.6055H6.73773L3.51562 9.8053V7.91016H11.2969V9.8053Z" fill="#7E7E7E" fill-opacity="0.79"/>
<path d="M2.10938 1.75781H7.05469V2.63672H2.10938V1.75781Z" fill="#7E7E7E" fill-opacity="0.79"/>
<path d="M2.10938 3.51562H7.05469V4.39453H2.10938V3.51562Z" fill="#7E7E7E" fill-opacity="0.79"/>
<path d="M2.10938 5.27344H4.94531V6.15234H2.10938V5.27344Z" fill="#7E7E7E" fill-opacity="0.79"/>
</svg>
