<svg width="52" height="52" viewBox="0 0 52 52" fill="none" xmlns="http://www.w3.org/2000/svg">
<g clip-path="url(#clip0_462_4)">
<path d="M51.3646 48.3015L36.5772 33.514C39.4416 29.9759 41.1662 25.48 41.1662 20.5834C41.1662 9.23437 31.9319 0 20.583 0C9.23416 0 0 9.23427 0 20.5833C0 31.9323 9.23427 41.1666 20.5831 41.1666C25.4797 41.1666 29.9755 39.442 33.5136 36.5776L48.301 51.3651C48.7235 51.7876 49.2781 52 49.8328 52C50.3875 52 50.9422 51.7876 51.3647 51.3651C52.2118 50.518 52.2118 49.1486 51.3646 48.3015ZM20.5831 36.8333C11.6219 36.8333 4.33332 29.5446 4.33332 20.5833C4.33332 11.6219 11.6219 4.33327 20.5831 4.33327C29.5444 4.33327 36.833 11.6219 36.833 20.5833C36.833 29.5446 29.5443 36.8333 20.5831 36.8333Z" fill="#FDF8F9"/>
</g>
<defs>
<clipPath id="clip0_462_4">
<rect width="52" height="52" fill="white"/>
</clipPath>
</defs>
</svg>
