<svg width="18" height="18" viewBox="0 0 18 18" fill="none" xmlns="http://www.w3.org/2000/svg">
<g clip-path="url(#clip0_18_113)">
<path d="M17.881 8.71157L13.7902 4.62072C13.6433 4.44913 13.385 4.42912 13.2134 4.57611C13.0418 4.72306 13.0218 4.98131 13.1688 5.15291C13.1825 5.1689 13.1974 5.18384 13.2134 5.19752L16.6047 8.59292H0.409071C0.183161 8.59292 0 8.77608 0 9.00202C0 9.22797 0.183161 9.4111 0.409071 9.4111H16.6047L13.2134 12.8024C13.0418 12.9493 13.0218 13.2076 13.1688 13.3792C13.3158 13.5508 13.574 13.5708 13.7456 13.4238C13.7616 13.4101 13.7765 13.3952 13.7902 13.3792L17.8811 9.28833C18.0397 9.12883 18.0397 8.87114 17.881 8.71157Z" fill="#C5002F"/>
</g>
<defs>
<clipPath id="clip0_18_113">
<rect width="18" height="18" fill="white"/>
</clipPath>
</defs>
</svg>
