<svg width="20" height="20" viewBox="0 0 20 20" fill="none" xmlns="http://www.w3.org/2000/svg">
<path d="M18.0453 7.33333H17.96C17.8349 7.33223 17.7131 7.29348 17.6103 7.22213C17.5076 7.15078 17.4287 7.05015 17.384 6.93333C17.3369 6.82054 17.3244 6.69628 17.3482 6.57637C17.3719 6.45647 17.4308 6.34634 17.5173 6.26L17.578 6.19933C17.9437 5.83223 18.149 5.33517 18.149 4.817C18.149 4.29883 17.9437 3.80177 17.578 3.43467L16.5707 2.428C16.2039 2.06201 15.7068 1.85648 15.1887 1.85648C14.6705 1.85648 14.1735 2.06201 13.8067 2.428L13.746 2.48867C13.6566 2.57474 13.5441 2.63285 13.4221 2.65587C13.3002 2.67889 13.1742 2.66581 13.0596 2.61824C12.945 2.57067 12.8467 2.49068 12.7769 2.38808C12.7071 2.28548 12.6688 2.16474 12.6667 2.04067V1.95467C12.6661 1.43642 12.46 0.93955 12.0936 0.573093C11.7271 0.206637 11.2302 0.000529455 10.712 0H9.288C8.76975 0.000529455 8.27288 0.206637 7.90643 0.573093C7.53997 0.93955 7.33386 1.43642 7.33333 1.95467V2.04067C7.33008 2.16385 7.2912 2.28344 7.22138 2.38498C7.15156 2.48651 7.05381 2.56563 6.93995 2.61275C6.82609 2.65987 6.70102 2.67298 6.57987 2.65049C6.45872 2.62799 6.34668 2.57086 6.25733 2.486L6.2 2.42533C5.83318 2.05935 5.33617 1.85381 4.818 1.85381C4.29983 1.85381 3.80282 2.05935 3.436 2.42533L2.42533 3.432C2.05963 3.7991 1.8543 4.29616 1.8543 4.81433C1.8543 5.33251 2.05963 5.82956 2.42533 6.19667L2.486 6.25733C2.57337 6.34672 2.63185 6.46031 2.65384 6.58336C2.67583 6.7064 2.66033 6.83321 2.60933 6.94733C2.56359 7.061 2.48498 7.15844 2.38356 7.2272C2.28215 7.29596 2.16253 7.33291 2.04 7.33333H1.95467C1.43642 7.33386 0.93955 7.53997 0.573093 7.90643C0.206637 8.27288 0.000529455 8.76975 0 9.288V10.712C0.000529455 11.2302 0.206637 11.7271 0.573093 12.0936C0.93955 12.46 1.43642 12.6661 1.95467 12.6667H2.04C2.16508 12.6678 2.28693 12.7065 2.38967 12.7779C2.4924 12.8492 2.57127 12.9499 2.616 13.0667C2.66309 13.1795 2.67555 13.3037 2.65181 13.4236C2.62807 13.5435 2.56919 13.6537 2.48267 13.74L2.422 13.8007C2.0563 14.1678 1.85097 14.6648 1.85097 15.183C1.85097 15.7012 2.0563 16.1982 2.422 16.5653L3.42867 17.5713C3.79543 17.9377 4.29261 18.1435 4.811 18.1435C5.32939 18.1435 5.82657 17.9377 6.19333 17.5713L6.254 17.5107C6.34344 17.4234 6.45702 17.365 6.58005 17.343C6.70307 17.321 6.82986 17.3364 6.944 17.3873C7.05767 17.4329 7.15514 17.5114 7.22391 17.6127C7.29268 17.714 7.32962 17.8335 7.33 17.956V18.042C7.32982 18.2992 7.38035 18.5539 7.47869 18.7915C7.57702 19.0291 7.72124 19.2451 7.90309 19.4269C8.08495 19.6088 8.30086 19.753 8.5385 19.8513C8.77613 19.9497 9.03082 20.0002 9.288 20H10.712C11.2302 19.9995 11.7271 19.7934 12.0936 19.4269C12.46 19.0605 12.6661 18.5636 12.6667 18.0453V17.9593C12.6699 17.8362 12.7088 17.7166 12.7786 17.615C12.8484 17.5135 12.9462 17.4344 13.0601 17.3872C13.1739 17.3401 13.299 17.327 13.4201 17.3495C13.5413 17.372 13.6533 17.4291 13.7427 17.514L13.8033 17.5747C14.1702 17.9407 14.6672 18.1462 15.1853 18.1462C15.7035 18.1462 16.2005 17.9407 16.5673 17.5747L17.5747 16.5687C17.9404 16.2016 18.1457 15.7045 18.1457 15.1863C18.1457 14.6682 17.9404 14.1711 17.5747 13.804L17.514 13.7433C17.4266 13.6539 17.3682 13.5404 17.3462 13.4173C17.3242 13.2943 17.3397 13.1675 17.3907 13.0533C17.4363 12.9395 17.5149 12.842 17.6163 12.7731C17.7177 12.7042 17.8374 12.6671 17.96 12.6667H18.0453C18.5636 12.6661 19.0605 12.46 19.4269 12.0936C19.7934 11.7271 19.9995 11.2302 20 10.712V9.288C19.9995 8.76975 19.7934 8.27288 19.4269 7.90643C19.0605 7.53997 18.5636 7.33386 18.0453 7.33333V7.33333ZM18.6667 10.712C18.6665 10.8767 18.601 11.0347 18.4845 11.1512C18.368 11.2676 18.2101 11.3332 18.0453 11.3333H17.96C17.5731 11.3366 17.1958 11.4537 16.875 11.67C16.5542 11.8863 16.3042 12.1923 16.1562 12.5497C16.0081 12.9071 15.9685 13.3002 16.0423 13.68C16.1161 14.0598 16.3001 14.4094 16.5713 14.6853L16.6313 14.746C16.7477 14.8627 16.8131 15.0208 16.8131 15.1857C16.8131 15.3505 16.7477 15.5086 16.6313 15.6253L15.624 16.6313C15.5075 16.7478 15.3494 16.8133 15.1847 16.8133C15.0199 16.8133 14.8619 16.7478 14.7453 16.6313L14.6853 16.5707C14.4093 16.2998 14.0597 16.1161 13.68 16.0424C13.3003 15.9688 12.9074 16.0084 12.5501 16.1564C12.1928 16.3045 11.8869 16.5543 11.6706 16.8749C11.4542 17.1955 11.3369 17.5726 11.3333 17.9593V18.0453C11.3332 18.2101 11.2676 18.368 11.1512 18.4845C11.0347 18.601 10.8767 18.6665 10.712 18.6667H9.288C9.12327 18.6665 8.96533 18.601 8.84885 18.4845C8.73236 18.368 8.66684 18.2101 8.66667 18.0453V17.9593C8.66479 17.5718 8.54852 17.1935 8.33243 16.8718C8.11633 16.5501 7.81006 16.2994 7.45202 16.1512C7.09398 16.0029 6.70013 15.9637 6.31989 16.0385C5.93964 16.1132 5.58994 16.2986 5.31467 16.5713L5.254 16.632C5.13731 16.7482 4.97934 16.8134 4.81467 16.8134C4.64999 16.8134 4.49203 16.7482 4.37533 16.632L3.36867 15.626C3.25228 15.5093 3.18692 15.3512 3.18692 15.1863C3.18692 15.0215 3.25228 14.8634 3.36867 14.7467L3.42933 14.686C3.7008 14.4101 3.88499 14.0603 3.95893 13.6804C4.03286 13.3004 3.99327 12.9071 3.84508 12.5495C3.6969 12.1919 3.44669 11.8859 3.12568 11.6696C2.80466 11.4533 2.42706 11.3364 2.04 11.3333H1.95467C1.78993 11.3332 1.632 11.2676 1.51551 11.1512C1.39903 11.0347 1.33351 10.8767 1.33333 10.712V9.288C1.33351 9.12327 1.39903 8.96533 1.51551 8.84885C1.632 8.73236 1.78993 8.66684 1.95467 8.66667H2.04C2.42687 8.66337 2.80422 8.54628 3.12499 8.32998C3.44576 8.11368 3.69577 7.80774 3.84385 7.45032C3.99192 7.09289 4.03151 6.69978 3.95768 6.32C3.88385 5.94023 3.69987 5.59059 3.42867 5.31467L3.36867 5.254C3.25232 5.13739 3.18697 4.97939 3.18697 4.81467C3.18697 4.64994 3.25232 4.49194 3.36867 4.37533L4.37533 3.368C4.49185 3.25149 4.64989 3.18603 4.81467 3.18603C4.97945 3.18603 5.13748 3.25149 5.254 3.368L5.314 3.42867C5.58996 3.69974 5.93958 3.88363 6.3193 3.95743C6.69903 4.03124 7.09207 3.99169 7.44948 3.84372C7.80689 3.69576 8.11287 3.44591 8.3293 3.12529C8.54574 2.80468 8.66306 2.42748 8.66667 2.04067V1.95467C8.66684 1.78993 8.73236 1.632 8.84885 1.51551C8.96533 1.39903 9.12327 1.33351 9.288 1.33333H10.712C10.8767 1.33351 11.0347 1.39903 11.1512 1.51551C11.2676 1.632 11.3332 1.78993 11.3333 1.95467V2.04067C11.3368 2.42748 11.4539 2.80474 11.6703 3.12541C11.8866 3.44608 12.1926 3.69599 12.55 3.84398C12.9074 3.99197 13.3004 4.03151 13.6802 3.95766C14.0599 3.8838 14.4095 3.69983 14.6853 3.42867L14.746 3.368C14.8625 3.25149 15.0206 3.18603 15.1853 3.18603C15.3501 3.18603 15.5081 3.25149 15.6247 3.368L16.6313 4.37533C16.7477 4.49194 16.813 4.64994 16.813 4.81467C16.813 4.97939 16.7477 5.13739 16.6313 5.254L16.5707 5.31467C16.2994 5.59063 16.1154 5.94033 16.0416 6.32017C15.9678 6.7 16.0075 7.09317 16.1556 7.45062C16.3038 7.80807 16.5539 8.114 16.8748 8.33025C17.1956 8.5465 17.5731 8.6635 17.96 8.66667H18.0453C18.2101 8.66684 18.368 8.73236 18.4845 8.84885C18.601 8.96533 18.6665 9.12327 18.6667 9.288V10.712Z" fill="white"/>
<path d="M9.99968 5.3335C9.0767 5.3335 8.17444 5.60719 7.40702 6.11997C6.63959 6.63275 6.04145 7.36158 5.68824 8.21431C5.33503 9.06703 5.24261 10.0053 5.42268 10.9106C5.60274 11.8158 6.0472 12.6473 6.69984 13.3C7.35249 13.9526 8.18401 14.3971 9.08925 14.5772C9.9945 14.7572 10.9328 14.6648 11.7855 14.3116C12.6383 13.9584 13.3671 13.3603 13.8799 12.5928C14.3926 11.8254 14.6663 10.9231 14.6663 10.0002C14.6649 8.76292 14.1728 7.57675 13.2979 6.70189C12.4231 5.82703 11.2369 5.33491 9.99968 5.3335V5.3335ZM9.99968 13.3335C9.34041 13.3335 8.69594 13.138 8.14778 12.7717C7.59961 12.4055 7.17237 11.8849 6.92008 11.2758C6.66779 10.6667 6.60177 9.99647 6.73039 9.34986C6.85901 8.70326 7.17648 8.10932 7.64265 7.64314C8.10883 7.17697 8.70277 6.8595 9.34938 6.73088C9.99598 6.60226 10.6662 6.66827 11.2753 6.92056C11.8844 7.17286 12.405 7.6001 12.7712 8.14826C13.1375 8.69643 13.333 9.34089 13.333 10.0002C13.332 10.8839 12.9804 11.7311 12.3555 12.356C11.7306 12.9809 10.8834 13.3324 9.99968 13.3335V13.3335Z" fill="white"/>
</svg>
