<svg width="50" height="50" viewBox="0 0 50 50" fill="none" xmlns="http://www.w3.org/2000/svg">
<path d="M37.9891 49.5333H12.0669C9.57802 49.5333 7.56689 47.5111 7.56689 45.0333V9.47778C7.56689 6.98889 9.58912 4.97778 12.0669 4.97778H18.8447C19.1558 4.97778 19.4002 5.22223 19.4002 5.53334C19.4002 5.84445 19.1558 6.08889 18.8447 6.08889H12.0669C10.2002 6.08889 8.67801 7.61112 8.67801 9.47778V45.0222C8.67801 46.8889 10.2002 48.4111 12.0669 48.4111H37.9891C39.8558 48.4111 41.378 46.8889 41.378 45.0222V9.47778C41.378 7.61112 39.8558 6.08889 37.9891 6.08889H31.2113C30.9002 6.08889 30.6558 5.84445 30.6558 5.53334C30.6558 5.22223 30.9002 4.97778 31.2113 4.97778H37.9891C40.478 4.97778 42.4891 7.00001 42.4891 9.47778V45.0222C42.5002 47.5111 40.478 49.5333 37.9891 49.5333Z" fill="#C5002F"/>
<path d="M37.989 45.5779H12.0668C11.7557 45.5779 11.5112 45.3335 11.5112 45.0224V9.47792C11.5112 9.16681 11.7557 8.92236 12.0668 8.92236H18.0668C18.3779 8.92236 18.6223 9.16681 18.6223 9.47792C18.6223 9.78903 18.3779 10.0335 18.0668 10.0335H12.6223V44.4668H37.4335V10.0335H33.8335H31.989C31.6779 10.0335 31.4335 9.78903 31.4335 9.47792C31.4335 9.16681 31.6779 8.92236 31.989 8.92236H33.8335H37.989C38.3001 8.92236 38.5446 9.16681 38.5446 9.47792V45.0224C38.5446 45.3335 38.3001 45.5779 37.989 45.5779Z" fill="#C5002F"/>
<path d="M32.278 11.5445H17.778C17.6113 11.5445 17.4557 11.4668 17.3446 11.3445C17.2335 11.2223 17.2002 11.0445 17.2335 10.889L18.6002 3.9112C18.6557 3.65564 18.878 3.46675 19.1446 3.46675H21.7002C21.9669 1.86675 23.3557 0.644531 25.0335 0.644531C26.7113 0.644531 28.1002 1.86675 28.3669 3.46675H30.9224C31.1891 3.46675 31.4113 3.65564 31.4669 3.9112L32.8224 10.889C32.8558 11.0556 32.8113 11.2223 32.7113 11.3445C32.6002 11.4779 32.4446 11.5445 32.278 11.5445ZM18.4557 10.4334H31.6113L30.4669 4.56675H27.8558C27.5446 4.56675 27.3002 4.32231 27.3002 4.0112C27.3002 2.75564 26.278 1.74453 25.0335 1.74453C23.7891 1.74453 22.7669 2.76675 22.7669 4.0112C22.7669 4.32231 22.5224 4.56675 22.2113 4.56675H19.6002L18.4557 10.4334Z" fill="#C5002F"/>
<path d="M16.8782 15.0335H15.4115C15.1004 15.0335 14.856 14.789 14.856 14.4779C14.856 14.1668 15.1004 13.9224 15.4115 13.9224H16.8782C17.1893 13.9224 17.4337 14.1668 17.4337 14.4779C17.4337 14.789 17.1893 15.0335 16.8782 15.0335Z" fill="#C5002F"/>
<path d="M34.6445 15.0335H19.3778C19.0667 15.0335 18.8223 14.789 18.8223 14.4779C18.8223 14.1668 19.0667 13.9224 19.3778 13.9224H34.6445C34.9556 13.9224 35.2 14.1668 35.2 14.4779C35.2 14.789 34.9556 15.0335 34.6445 15.0335Z" fill="#C5002F"/>
<path d="M16.8782 18.9002H15.4115C15.1004 18.9002 14.856 18.6557 14.856 18.3446C14.856 18.0335 15.1004 17.7891 15.4115 17.7891H16.8782C17.1893 17.7891 17.4337 18.0335 17.4337 18.3446C17.4337 18.6557 17.1893 18.9002 16.8782 18.9002Z" fill="#C5002F"/>
<path d="M34.6445 18.9002H19.3778C19.0667 18.9002 18.8223 18.6557 18.8223 18.3446C18.8223 18.0335 19.0667 17.7891 19.3778 17.7891H34.6445C34.9556 17.7891 35.2 18.0335 35.2 18.3446C35.2 18.6557 34.9556 18.9002 34.6445 18.9002Z" fill="#C5002F"/>
<path d="M16.8782 22.7669H15.4115C15.1004 22.7669 14.856 22.5224 14.856 22.2113C14.856 21.9002 15.1004 21.6558 15.4115 21.6558H16.8782C17.1893 21.6558 17.4337 21.9002 17.4337 22.2113C17.4337 22.5224 17.1893 22.7669 16.8782 22.7669Z" fill="#C5002F"/>
<path d="M34.6445 22.7669H19.3778C19.0667 22.7669 18.8223 22.5224 18.8223 22.2113C18.8223 21.9002 19.0667 21.6558 19.3778 21.6558H34.6445C34.9556 21.6558 35.2 21.9002 35.2 22.2113C35.2 22.5224 34.9556 22.7669 34.6445 22.7669Z" fill="#C5002F"/>
<path d="M16.8782 26.6333H15.4115C15.1004 26.6333 14.856 26.3889 14.856 26.0778C14.856 25.7667 15.1004 25.5222 15.4115 25.5222H16.8782C17.1893 25.5222 17.4337 25.7667 17.4337 26.0778C17.4337 26.3889 17.1893 26.6333 16.8782 26.6333Z" fill="#C5002F"/>
<path d="M34.6445 26.6333H19.3778C19.0667 26.6333 18.8223 26.3889 18.8223 26.0778C18.8223 25.7667 19.0667 25.5222 19.3778 25.5222H34.6445C34.9556 25.5222 35.2 25.7667 35.2 26.0778C35.2 26.3889 34.9556 26.6333 34.6445 26.6333Z" fill="#C5002F"/>
<path d="M16.8782 30.5H15.4115C15.1004 30.5 14.856 30.2556 14.856 29.9445C14.856 29.6334 15.1004 29.3889 15.4115 29.3889H16.8782C17.1893 29.3889 17.4337 29.6334 17.4337 29.9445C17.4337 30.2556 17.1893 30.5 16.8782 30.5Z" fill="#C5002F"/>
<path d="M34.6445 30.5H19.3778C19.0667 30.5 18.8223 30.2556 18.8223 29.9445C18.8223 29.6334 19.0667 29.3889 19.3778 29.3889H34.6445C34.9556 29.3889 35.2 29.6334 35.2 29.9445C35.2 30.2556 34.9556 30.5 34.6445 30.5Z" fill="#C5002F"/>
<path d="M16.8782 34.3667H15.4115C15.1004 34.3667 14.856 34.1223 14.856 33.8112C14.856 33.5001 15.1004 33.2556 15.4115 33.2556H16.8782C17.1893 33.2556 17.4337 33.5001 17.4337 33.8112C17.4337 34.1223 17.1893 34.3667 16.8782 34.3667Z" fill="#C5002F"/>
<path d="M34.6445 34.3667H19.3778C19.0667 34.3667 18.8223 34.1223 18.8223 33.8112C18.8223 33.5001 19.0667 33.2556 19.3778 33.2556H34.6445C34.9556 33.2556 35.2 33.5001 35.2 33.8112C35.2 34.1223 34.9556 34.3667 34.6445 34.3667Z" fill="#C5002F"/>
<path d="M16.8782 38.2334H15.4115C15.1004 38.2334 14.856 37.989 14.856 37.6779C14.856 37.3668 15.1004 37.1223 15.4115 37.1223H16.8782C17.1893 37.1223 17.4337 37.3668 17.4337 37.6779C17.4337 37.989 17.1893 38.2334 16.8782 38.2334Z" fill="#C5002F"/>
<path d="M34.6445 38.2334H19.3778C19.0667 38.2334 18.8223 37.989 18.8223 37.6779C18.8223 37.3668 19.0667 37.1223 19.3778 37.1223H34.6445C34.9556 37.1223 35.2 37.3668 35.2 37.6779C35.2 37.989 34.9556 38.2334 34.6445 38.2334Z" fill="#C5002F"/>
<path d="M16.8782 42.1001H15.4115C15.1004 42.1001 14.856 41.8557 14.856 41.5446C14.856 41.2335 15.1004 40.989 15.4115 40.989H16.8782C17.1893 40.989 17.4337 41.2335 17.4337 41.5446C17.4337 41.8557 17.1893 42.1001 16.8782 42.1001Z" fill="#C5002F"/>
<path d="M34.6445 42.1001H19.3778C19.0667 42.1001 18.8223 41.8557 18.8223 41.5446C18.8223 41.2335 19.0667 40.989 19.3778 40.989H34.6445C34.9556 40.989 35.2 41.2335 35.2 41.5446C35.2 41.8557 34.9556 42.1001 34.6445 42.1001Z" fill="#C5002F"/>
</svg>
