<svg width="18" height="18" viewBox="0 0 18 18" fill="none" xmlns="http://www.w3.org/2000/svg">
<g clip-path="url(#clip0_471_36)">
<path d="M8.12207 8.43018C7.97645 8.43018 7.8584 8.54823 7.8584 8.69385C7.8584 9.31995 8.36774 9.82929 8.99384 9.82929C9.61994 9.82929 10.1293 9.31995 10.1293 8.69385C10.1293 8.54823 10.0112 8.43018 9.86561 8.43018C9.71999 8.43018 9.60194 8.54823 9.60194 8.69385C9.60194 9.02917 9.32916 9.30195 8.99384 9.30195C8.65852 9.30195 8.38574 9.02917 8.38574 8.69385C8.38574 8.54823 8.26769 8.43018 8.12207 8.43018Z" fill="#9C9C9C"/>
<path d="M10.9971 7.97367C11.1427 7.97367 11.2607 7.85561 11.2607 7.71V7.21777H11.3221C11.4677 7.21777 11.5857 7.09972 11.5857 6.9541C11.5857 6.80848 11.4677 6.69043 11.3221 6.69043H10.9971C10.8515 6.69043 10.7334 6.80848 10.7334 6.9541V7.71C10.7334 7.85561 10.8515 7.97367 10.9971 7.97367Z" fill="#9C9C9C"/>
<path d="M6.99002 6.69043H6.66504C6.51942 6.69043 6.40137 6.80848 6.40137 6.9541C6.40137 7.09972 6.51942 7.21777 6.66504 7.21777H6.72635V7.71C6.72635 7.85561 6.84441 7.97367 6.99002 7.97367C7.13564 7.97367 7.25369 7.85561 7.25369 7.71V6.9541C7.25369 6.80848 7.13564 6.69043 6.99002 6.69043Z" fill="#9C9C9C"/>
<path d="M14.0862 14.1957C14.0118 13.4384 13.5887 12.798 12.984 12.4253C13.3373 12.2796 13.6614 12.0484 13.9264 11.745C14.4691 11.1239 14.7223 10.2757 14.6211 9.41797L14.4119 7.64374C14.5251 7.42342 14.5894 7.17398 14.5894 6.90971V6.90145C14.5894 6.48879 14.4295 6.0917 14.1477 5.79364V3.91377C14.1477 3.30715 14.0126 2.72559 13.7462 2.18524C13.6818 2.05464 13.5238 2.00099 13.3931 2.06532C13.2625 2.12973 13.2088 2.28779 13.2732 2.4184C13.5036 2.88559 13.6203 3.38868 13.6203 3.91373V5.63963C13.5111 5.63963 8.66788 5.63963 8.55875 5.63963C7.14087 5.63963 5.98753 4.48576 5.98753 3.0684V2.88148C5.98753 1.58646 7.04053 0.527379 8.34163 0.527379H10.2339C11.1273 0.527379 11.9701 0.872156 12.6072 1.49815C12.7111 1.60024 12.878 1.5988 12.9801 1.49488C13.0821 1.39103 13.0807 1.22407 12.9768 1.12201C12.2405 0.398461 11.2664 0 10.2339 0H8.34163C7.22415 0 6.25391 0.639844 5.77617 1.57205C4.81103 2.03302 4.13205 3.0259 3.99509 4.18767L3.80257 5.82015C3.54329 6.10636 3.38512 6.48573 3.38512 6.90142V6.90968C3.38512 7.18959 3.45695 7.45298 3.58295 7.68262L3.3783 9.41797C3.27712 10.2757 3.53032 11.1239 4.07296 11.745C4.33912 12.0497 4.66471 12.2816 5.01971 12.4272C4.34946 12.8422 3.90182 13.5839 3.90182 14.4284V15.6266C3.90182 15.7722 4.01987 15.8902 4.16549 15.8902C4.31111 15.8902 4.42916 15.7722 4.42916 15.6266V14.4284C4.42916 13.4222 5.24781 12.6036 6.25405 12.6036H7.03642C7.07421 13.6998 8.00764 14.5519 9.0996 14.497C9.11071 14.4964 9.12168 14.4952 9.13275 14.4945C10.1388 14.427 10.9285 13.6032 10.963 12.6036H11.7454C12.6887 12.6036 13.4694 13.3103 13.5614 14.2476V14.2477C13.5673 14.3074 13.5702 14.3682 13.5702 14.4285V17.4727H4.42916V16.857C4.42916 16.7114 4.31111 16.5933 4.16549 16.5933C4.01987 16.5933 3.90182 16.7114 3.90182 16.857V17.7363C3.90182 17.8819 4.01987 18 4.16549 18H13.8339C13.9795 18 14.0976 17.8819 14.0976 17.7363V14.4284C14.0976 14.351 14.0938 14.2729 14.0863 14.1962C14.0862 14.1961 14.0862 14.1958 14.0862 14.1957V14.1957ZM13.7756 6.16697C14.34 6.78132 14.0296 7.778 13.2211 7.96637C13.2434 7.69961 13.2363 6.20227 13.236 6.16697H13.7756ZM12.7082 6.16697C12.7249 7.85239 12.6991 7.96704 12.6607 8.20477C12.3798 9.93516 10.8975 11.2674 9.10005 11.3148C7.16024 11.3645 5.60275 9.98002 5.31485 8.20392C5.25445 7.82958 5.26683 7.73831 5.26683 6.26467C5.2707 5.8898 5.28131 5.86853 5.31728 5.58633C5.38808 5.15897 5.53289 4.75021 5.74759 4.3733C6.21795 5.38738 7.20925 6.07855 8.3397 6.15909C8.50588 6.17077 8.23307 6.16697 12.7082 6.16697V6.16697ZM4.75397 5.84599C4.73365 6.1129 4.72922 7.66012 4.75425 7.9624C3.61445 7.70671 3.65889 6.08034 4.75397 5.84599ZM4.51877 4.24944C4.60891 3.48514 4.97152 2.80948 5.50607 2.36665C5.46015 2.62315 5.45861 2.83954 5.45987 3.01426C5.46001 3.03349 5.46015 3.05156 5.46015 3.0684C5.46015 3.29709 5.48529 3.51998 5.5325 3.73468C5.19205 4.20834 4.95724 4.73699 4.83599 5.29738C4.69062 5.31186 4.55101 5.34607 4.41953 5.39673C4.40694 5.40141 4.39418 5.4058 4.3818 5.41079L4.51877 4.24944ZM5.90245 12.0762C5.36868 12.0762 4.84657 11.829 4.47008 11.398C4.03186 10.8964 3.81948 10.1792 3.90199 9.47971L4.05102 8.21616C4.27131 8.37453 4.5437 8.48472 4.83718 8.51375C5.10947 9.75938 5.93142 10.8018 7.03522 11.3727V12.0762C6.64407 12.0762 6.29747 12.0762 5.90245 12.0762ZM7.56257 12.535C7.56257 12.1429 7.56257 12.1903 7.56257 11.6024C8.49762 11.934 9.54278 11.9171 10.4368 11.594V12.535C10.4368 13.3275 9.79211 13.9721 8.99968 13.9721C8.20726 13.9721 7.56257 13.3275 7.56257 12.535V12.535ZM10.9641 12.0762V11.3602C12.056 10.7866 12.8682 9.75038 13.1385 8.51365C13.4251 8.48517 13.7069 8.37766 13.9462 8.19721L14.0974 9.47971C14.1799 10.1793 13.9675 10.8964 13.5293 11.398C12.8771 12.1445 12.1298 12.0762 11.7453 12.0762H10.9641Z" fill="#9C9C9C"/>
</g>
<defs>
<clipPath id="clip0_471_36">
<rect width="18" height="18" fill="white"/>
</clipPath>
</defs>
</svg>
