<svg width="52" height="52" viewBox="0 0 52 52" fill="none" xmlns="http://www.w3.org/2000/svg">
<path d="M10.2917 52C10.0815 52 9.87133 51.9588 9.66983 51.8765C9.06317 51.6252 8.66667 51.0315 8.66667 50.375V41.1667H5.95833C2.6715 41.1667 0 38.4952 0 35.2083V5.95833C0 2.6715 2.6715 0 5.95833 0H46.0417C49.3285 0 52 2.6715 52 5.95833V35.2083C52 38.4952 49.3285 41.1667 46.0417 41.1667H21.7988L11.4422 51.5233C11.1302 51.8353 10.7142 52 10.2917 52ZM5.95833 3.25C4.4655 3.25 3.25 4.4655 3.25 5.95833V35.2083C3.25 36.7012 4.4655 37.9167 5.95833 37.9167H10.2917C11.1887 37.9167 11.9167 38.6447 11.9167 39.5417V46.4512L19.9767 38.3912C20.2822 38.0857 20.6938 37.9145 21.125 37.9145H46.0417C47.5345 37.9145 48.75 36.699 48.75 35.2062V5.95833C48.75 4.4655 47.5345 3.25 46.0417 3.25H5.95833Z" fill="#C5002F"/>
<path d="M17.875 32.4784H16.7917C14.7008 32.4784 13 30.7775 13 28.6867V18.9367C13 16.8459 14.7008 15.145 16.7917 15.145H17.875C19.9658 15.145 21.6667 16.8459 21.6667 18.9367V28.6867C21.6667 30.7775 19.9658 32.4784 17.875 32.4784ZM16.7917 18.395C16.4927 18.395 16.25 18.6377 16.25 18.9367V28.6867C16.25 28.9857 16.4927 29.2284 16.7917 29.2284H17.875C18.1697 29.2284 18.4167 28.9814 18.4167 28.6867V18.9367C18.4167 18.6377 18.174 18.395 17.875 18.395H16.7917Z" fill="#C5002F"/>
<path d="M31.9581 32.4782H30.8531C24.8731 32.4782 21.3458 30.9723 19.7771 30.0753C18.9993 29.629 18.7284 28.6367 19.1726 27.8588C19.6168 27.081 20.6091 26.8058 21.3891 27.2543C22.4269 27.848 25.4299 29.2303 30.8531 29.2303H31.9581C33.2234 29.2303 34.3653 28.3052 34.5581 27.1265C34.5689 27.0658 34.5819 27.0052 34.5993 26.9467C34.7553 26.275 35.7021 21.4932 35.7519 20.8518C35.7498 19.5215 34.6209 18.3948 33.2364 18.3948H27.8198C27.2196 18.3948 26.6693 18.0633 26.3854 17.5347C26.1038 17.0038 26.1363 16.3625 26.4699 15.8642C26.8036 15.3658 27.2131 14.6703 27.2131 12.7182C27.2131 10.7747 26.4483 9.86465 26.1731 9.75198C26.2663 9.81482 25.8719 10.3153 25.8719 11.7215C25.8719 15.3485 22.3511 17.9398 20.8388 18.8845C20.0739 19.359 19.0729 19.1293 18.5984 18.3688C18.1218 17.6062 18.3536 16.6052 19.1141 16.1285C20.8084 15.0712 22.6198 13.3573 22.6198 11.7215C22.6198 8.12915 24.4701 6.52148 26.3009 6.52148C28.3441 6.52148 30.4609 8.83982 30.4609 12.7182C30.4609 13.6433 30.3461 14.458 30.1836 15.1448H33.2343C36.4128 15.1448 38.9976 17.7297 38.9976 20.9082C38.9976 21.1075 38.9976 21.4433 38.3693 24.676C38.1006 26.0583 37.9186 27.0008 37.7409 27.6443L37.7648 27.6487C37.3163 30.4025 34.8181 32.4782 31.9581 32.4782V32.4782Z" fill="#C5002F"/>
</svg>
