<svg width="18" height="18" viewBox="0 0 18 18" fill="none" xmlns="http://www.w3.org/2000/svg">
<path d="M9 18C13.962 18 18 13.962 18 9C18 4.03801 13.962 0 9 0C4.03796 0 0 4.03801 0 9C0 13.962 4.03801 18 9 18ZM9 1.19998C13.302 1.19998 16.8 4.69797 16.8 9C16.8 13.302 13.302 16.8 9 16.8C4.69797 16.8 1.19998 13.302 1.19998 9C1.19998 4.69797 4.69802 1.19998 9 1.19998Z" fill="#9C9C9C"/>
<path d="M11.6254 11.8681C11.7364 11.9581 11.8684 12.0001 12.0004 12.0001C12.1774 12.0001 12.3514 11.9221 12.4684 11.7751C12.6754 11.5171 12.6333 11.1391 12.3754 10.9321L9.60037 8.71209V4.20009C9.60037 3.87008 9.33038 3.6001 9.00038 3.6001C8.67038 3.6001 8.40039 3.87008 8.40039 4.20009V9.00011C8.40039 9.18312 8.48441 9.35411 8.62539 9.46809L11.6254 11.8681Z" fill="#9C9C9C"/>
</svg>
