<svg width="52" height="52" viewBox="0 0 52 52" fill="none" xmlns="http://www.w3.org/2000/svg">
<g filter="url(#filter0_d_118_402)">
<path d="M26 52C40.3594 52 52 40.3594 52 26C52 11.6406 40.3594 0 26 0C11.6406 0 0 11.6406 0 26C0 40.3594 11.6406 52 26 52Z" fill="#03A9F4"/>
<path d="M42.8419 15.5557C41.5751 16.109 40.235 16.4765 38.8632 16.647C40.3093 15.7895 41.3903 14.4309 41.9011 12.8291C40.5476 13.6325 39.0665 14.1983 37.5221 14.502C36.5758 13.4899 35.3467 12.786 33.9948 12.4818C32.643 12.1777 31.2309 12.2874 29.9422 12.7967C28.6535 13.3059 27.5479 14.1912 26.7692 15.3373C25.9905 16.4835 25.5746 17.8374 25.5758 19.2231C25.571 19.752 25.6249 20.2798 25.7366 20.7967C22.9894 20.6618 20.3016 19.9488 17.8487 18.7044C15.3958 17.46 13.233 15.7121 11.5016 13.5749C10.6117 15.0952 10.3359 16.8981 10.7308 18.6149C11.1257 20.3318 12.1613 21.833 13.6261 22.8117C12.5328 22.7823 11.4627 22.4901 10.5061 21.9599V22.0352C10.5092 23.6288 11.0608 25.1728 12.0682 26.4076C13.0756 27.6424 14.4774 28.4927 16.0379 28.8157C15.4474 28.9709 14.8388 29.0468 14.2282 29.0415C13.7885 29.0496 13.3493 29.0106 12.9179 28.9252C13.365 30.2957 14.2258 31.4941 15.3818 32.3554C16.5378 33.2168 17.9323 33.6988 19.3735 33.7352C16.9312 35.6441 13.9206 36.681 10.8208 36.6807C10.2685 36.6854 9.71652 36.6534 9.16846 36.5849C12.3291 38.6227 16.0132 39.6994 19.7737 39.6844C32.4829 39.6844 39.4311 29.1578 39.4311 20.0338C39.4311 19.7294 39.4311 19.4352 39.4071 19.141C40.7603 18.1644 41.9242 16.9495 42.8419 15.5557V15.5557Z" fill="white"/>
</g>
<defs>
<filter id="filter0_d_118_402" x="-4" y="0" width="60" height="60" filterUnits="userSpaceOnUse" color-interpolation-filters="sRGB">
<feFlood flood-opacity="0" result="BackgroundImageFix"/>
<feColorMatrix in="SourceAlpha" type="matrix" values="0 0 0 0 0 0 0 0 0 0 0 0 0 0 0 0 0 0 127 0" result="hardAlpha"/>
<feOffset dy="4"/>
<feGaussianBlur stdDeviation="2"/>
<feComposite in2="hardAlpha" operator="out"/>
<feColorMatrix type="matrix" values="0 0 0 0 0 0 0 0 0 0 0 0 0 0 0 0 0 0 0.25 0"/>
<feBlend mode="normal" in2="BackgroundImageFix" result="effect1_dropShadow_118_402"/>
<feBlend mode="normal" in="SourceGraphic" in2="effect1_dropShadow_118_402" result="shape"/>
</filter>
</defs>
</svg>
