<svg width="52" height="52" viewBox="0 0 52 52" fill="none" xmlns="http://www.w3.org/2000/svg">
<g clip-path="url(#clip0_30_13)">
<path d="M44.5715 16.714H35.2858C34.26 16.714 33.4286 17.5455 33.4286 18.5712C33.4286 19.5969 34.26 20.4284 35.2858 20.4284H44.5715C45.5972 20.4284 46.4287 21.2598 46.4287 22.2856V46.4286C46.4287 47.4544 45.5972 48.2858 44.5715 48.2858H7.4284C6.40269 48.2858 5.57121 47.4544 5.57121 46.4286V22.2854C5.57121 21.2597 6.40269 20.4283 7.4284 20.4283H16.7142C17.7399 20.4283 18.5713 19.5968 18.5713 18.5711C18.5713 17.5453 17.7399 16.7139 16.7142 16.7139H7.4284C4.35136 16.7139 1.85693 19.2083 1.85693 22.2853V46.4284C1.85693 49.5055 4.35136 51.9999 7.4284 51.9999H44.5715C47.6485 51.9999 50.143 49.5055 50.143 46.4284V22.2854C50.143 19.2084 47.6485 16.714 44.5715 16.714Z" fill="#CE385C"/>
<path d="M36.5988 9.82954L27.313 0.54379C26.5879 -0.181263 25.4122 -0.181263 24.687 0.54379L15.4012 9.82954C14.6886 10.5673 14.7091 11.743 15.4469 12.4555C16.1666 13.1507 17.3076 13.1507 18.0273 12.4555L24.143 6.33986V37.1428C24.143 38.1685 24.9744 39 26.0001 39C27.0259 39 27.8573 38.1685 27.8573 37.1428V6.33997L33.973 12.4556C34.7108 13.1682 35.8865 13.1477 36.599 12.4099C37.2939 11.6902 37.2939 10.5493 36.5988 9.82954Z" fill="#CE385C"/>
</g>
<defs>
<clipPath id="clip0_30_13">
<rect width="52" height="52" fill="white"/>
</clipPath>
</defs>
</svg>
