<svg width="53" height="53" viewBox="0 0 53 53" fill="none" xmlns="http://www.w3.org/2000/svg">
<path d="M48.5444 3.00213C45.429 -0.113016 40.3781 -0.113016 37.2627 3.00213L5.63614 34.6259C5.4194 34.8426 5.2629 35.1112 5.18119 35.4062L1.02221 50.4197C0.851168 51.0353 1.02498 51.6944 1.47647 52.1466C1.92865 52.598 2.58788 52.7718 3.20349 52.6015L18.2183 48.4422C18.5133 48.3605 18.782 48.204 18.9988 47.9873L50.6246 16.3629C53.7352 13.2456 53.7352 8.19936 50.6246 5.08213L48.5444 3.00213ZM9.49874 35.778L35.3826 9.89576L43.7303 18.2428L17.8458 44.125L9.49874 35.778ZM7.83127 39.1237L14.5005 45.793L5.27536 48.3487L7.83127 39.1237ZM48.1178 13.8563L46.2378 15.7362L37.8894 7.38855L39.7701 5.50866C41.5006 3.77832 44.3065 3.77832 46.037 5.50866L48.1178 7.58865C49.8456 9.32106 49.8456 12.1246 48.1178 13.8563V13.8563Z" fill="#C5002F"/>
</svg>
