<svg width="12" height="15" viewBox="0 0 12 15" fill="none" xmlns="http://www.w3.org/2000/svg">
<path d="M10.221 7.19027C10.1704 7.13852 10.11 7.09737 10.0433 7.06921C9.97661 7.04105 9.90498 7.02644 9.83259 7.02625C9.7602 7.02605 9.68849 7.04026 9.62165 7.06806C9.55481 7.09586 9.49417 7.13668 9.44326 7.18815C9.39236 7.23962 9.35221 7.30071 9.32515 7.36785C9.29809 7.435 9.28467 7.50685 9.28567 7.57924C9.28666 7.65162 9.30206 7.72308 9.33095 7.78946C9.35984 7.85583 9.40166 7.9158 9.45396 7.96585C9.91676 8.42124 10.2839 8.96449 10.5339 9.56372C10.7839 10.1629 10.9117 10.8061 10.9098 11.4553C10.9098 12.1225 8.99739 13.0918 6.00041 13.0918C3.00344 13.0918 1.091 12.122 1.091 11.4543C1.08917 10.8094 1.21525 10.1706 1.46196 9.57488C1.70866 8.97912 2.07109 8.43821 2.52826 7.98346C2.57997 7.93305 2.62115 7.87287 2.64942 7.80642C2.67769 7.73996 2.69248 7.66856 2.69294 7.59634C2.6934 7.52413 2.67951 7.45254 2.65209 7.38574C2.62466 7.31893 2.58424 7.25823 2.53318 7.20717C2.48212 7.1561 2.42142 7.11569 2.35461 7.08826C2.28781 7.06084 2.21622 7.04695 2.144 7.04741C2.07179 7.04787 2.00038 7.06266 1.93393 7.09093C1.86748 7.1192 1.8073 7.16038 1.75688 7.21209C1.19799 7.76805 0.75493 8.42935 0.453362 9.15771C0.151794 9.88607 -0.00229153 10.667 2.57534e-05 11.4553C2.57534e-05 13.2269 3.09132 14.1828 6.00041 14.1828C8.90951 14.1828 12.0008 13.2269 12.0008 11.4553C12.0032 10.6617 11.847 9.87559 11.5414 9.14317C11.2358 8.41074 10.7869 7.74678 10.221 7.19027V7.19027Z" fill="#7E7E7E"/>
<path d="M6.00043 7.63686C6.75565 7.63686 7.4939 7.41291 8.12184 6.99333C8.74978 6.57376 9.23919 5.9774 9.5282 5.27968C9.81721 4.58195 9.89283 3.81419 9.74549 3.07349C9.59816 2.33279 9.23449 1.65241 8.70047 1.11839C8.16645 0.584376 7.48607 0.220707 6.74537 0.0733717C6.00467 -0.0739631 5.23691 0.00165446 4.53918 0.290662C3.84146 0.57967 3.2451 1.06909 2.82553 1.69702C2.40595 2.32496 2.18201 3.06321 2.18201 3.81843C2.18318 4.83078 2.58585 5.80133 3.30169 6.51717C4.01753 7.23301 4.98808 7.63569 6.00043 7.63686ZM6.00043 1.09098C6.53987 1.09098 7.0672 1.25094 7.51572 1.55064C7.96425 1.85033 8.31383 2.2763 8.52027 2.77468C8.7267 3.27306 8.78071 3.82145 8.67547 4.35053C8.57024 4.8796 8.31047 5.36558 7.92903 5.74703C7.54759 6.12847 7.06161 6.38823 6.53253 6.49347C6.00346 6.59871 5.45506 6.5447 4.95668 6.33826C4.45831 6.13183 4.03234 5.78224 3.73264 5.33372C3.43295 4.88519 3.27299 4.35787 3.27299 3.81843C3.27384 3.09533 3.56147 2.40208 4.07278 1.89077C4.58409 1.37946 5.27733 1.09183 6.00043 1.09098V1.09098Z" fill="#7E7E7E"/>
</svg>
