<svg width="18" height="18" viewBox="0 0 18 18" fill="none" xmlns="http://www.w3.org/2000/svg">
<path d="M15.8135 17.7353H2.18377C1.6743 17.7339 1.18618 17.5305 0.826422 17.1698C0.466669 16.809 0.264647 16.3203 0.264648 15.8109V5.02939C0.264648 4.51946 0.467034 4.03038 0.827359 3.66956C1.18768 3.30874 1.67649 3.10568 2.18641 3.10498H5.09818C5.16838 3.10498 5.23571 3.13287 5.28535 3.18251C5.33499 3.23215 5.36288 3.29948 5.36288 3.36969C5.36288 3.43989 5.33499 3.50722 5.28535 3.55686C5.23571 3.6065 5.16838 3.63439 5.09818 3.63439H2.18641C1.81689 3.63509 1.46275 3.78238 1.20171 4.04391C0.940669 4.30545 0.794059 4.65987 0.79406 5.02939V15.8109C0.794057 16.1799 0.940303 16.5339 1.20077 16.7954C1.46124 17.0569 1.81471 17.2045 2.18377 17.2059H15.8135C16.183 17.2052 16.5371 17.0579 16.7982 16.7963C17.0592 16.5348 17.2058 16.1804 17.2058 15.8109V5.02939C17.2051 4.65963 17.0579 4.30521 16.7965 4.04375C16.535 3.78229 16.1806 3.63509 15.8108 3.63439H12.8991C12.8289 3.63439 12.7615 3.6065 12.7119 3.55686C12.6622 3.50722 12.6343 3.43989 12.6343 3.36969C12.6343 3.29948 12.6622 3.23215 12.7119 3.18251C12.7615 3.13287 12.8289 3.10498 12.8991 3.10498H15.8108C16.321 3.10568 16.8101 3.30866 17.1708 3.6694C17.5316 4.03015 17.7345 4.51922 17.7352 5.02939V15.8109C17.7345 16.3206 17.5319 16.8092 17.1717 17.1699C16.8116 17.5306 16.3232 17.7339 15.8135 17.7353V17.7353Z" fill="#9C9C9C"/>
<path d="M15.1276 16.4117H2.87172C2.5312 16.4103 2.20506 16.2742 1.96452 16.0332C1.72399 15.7921 1.58859 15.4657 1.58789 15.1252V5.59577C1.59026 5.30227 1.7026 5.02034 1.90274 4.80565C2.10287 4.59096 2.37623 4.45912 2.66884 4.43618C2.96144 4.41323 3.25201 4.50085 3.48316 4.68173C3.71431 4.8626 3.86922 5.12358 3.9173 5.41312C4.10744 6.62482 4.72411 7.72875 5.6562 8.52598C6.58828 9.32321 7.77447 9.7613 9.00099 9.7613C10.2275 9.7613 11.4137 9.32321 12.3458 8.52598C13.2779 7.72875 13.8945 6.62482 14.0847 5.41312C14.129 5.12008 14.2827 4.85471 14.5148 4.67038C14.7469 4.48606 15.0402 4.39646 15.3357 4.4196C15.6311 4.44274 15.9069 4.57691 16.1075 4.79512C16.308 5.01333 16.4185 5.29939 16.4167 5.59577V15.1252C16.416 15.4666 16.2799 15.7938 16.0382 16.035C15.7965 16.2762 15.469 16.4117 15.1276 16.4117V16.4117ZM2.75789 4.96047C2.58775 4.96117 2.42482 5.02925 2.30477 5.14981C2.18471 5.27036 2.1173 5.43357 2.1173 5.60371V15.1331C2.11939 15.3321 2.19971 15.5222 2.34089 15.6624C2.48207 15.8026 2.67276 15.8816 2.87172 15.8822H15.1276C15.3279 15.8815 15.5198 15.8015 15.6612 15.6596C15.8026 15.5177 15.882 15.3255 15.882 15.1252V5.59577C15.8783 5.43584 15.8154 5.28298 15.7055 5.16678C15.5955 5.05058 15.4463 4.97933 15.2869 4.9668C15.1274 4.95428 14.9689 5.00139 14.8422 5.099C14.7155 5.19662 14.6295 5.33779 14.6008 5.49518C14.3891 6.82949 13.7083 8.04449 12.6808 8.92174C11.6534 9.79898 10.3467 10.2809 8.99569 10.2809C7.64469 10.2809 6.338 9.79898 5.31055 8.92174C4.2831 8.04449 3.6023 6.82949 3.39054 5.49518C3.36547 5.34558 3.28812 5.20973 3.17227 5.11181C3.05642 5.0139 2.90958 4.96027 2.75789 4.96047V4.96047Z" fill="#9C9C9C"/>
<path d="M8.99992 8.97347C8.1387 8.97347 7.29682 8.71809 6.58074 8.23962C5.86466 7.76115 5.30654 7.08109 4.97697 6.28542C4.64739 5.48976 4.56116 4.61423 4.72918 3.76956C4.89719 2.92488 5.31191 2.149 5.92089 1.54003C6.52986 0.931052 7.30575 0.516335 8.15042 0.348319C8.99509 0.180303 9.87062 0.266535 10.6663 0.59611C11.4619 0.925685 12.142 1.4838 12.6205 2.19988C13.099 2.91596 13.3543 3.75784 13.3543 4.61906C13.3529 5.77349 12.8937 6.88024 12.0774 7.69655C11.2611 8.51285 10.1544 8.97207 8.99992 8.97347V8.97347ZM8.99992 0.794062C8.24341 0.794062 7.50388 1.01839 6.87487 1.43869C6.24585 1.85899 5.75559 2.45637 5.46608 3.1553C5.17658 3.85422 5.10083 4.6233 5.24842 5.36528C5.39601 6.10726 5.7603 6.78881 6.29524 7.32374C6.83017 7.85868 7.51172 8.22298 8.2537 8.37056C8.99568 8.51815 9.76476 8.4424 10.4637 8.1529C11.1626 7.86339 11.76 7.37313 12.1803 6.74412C12.6006 6.1151 12.8249 5.37557 12.8249 4.61906C12.8242 3.60482 12.421 2.63233 11.7038 1.91515C10.9867 1.19798 10.0142 0.794763 8.99992 0.794062V0.794062Z" fill="#9C9C9C"/>
<path d="M9.00005 2.38224C8.92985 2.38224 8.86252 2.35435 8.81288 2.3047C8.76324 2.25506 8.73535 2.18773 8.73535 2.11753V1.48224C8.73535 1.41203 8.76324 1.3447 8.81288 1.29506C8.86252 1.24542 8.92985 1.21753 9.00005 1.21753C9.07025 1.21753 9.13758 1.24542 9.18722 1.29506C9.23686 1.3447 9.26475 1.41203 9.26475 1.48224V2.11753C9.26475 2.18773 9.23686 2.25506 9.18722 2.3047C9.13758 2.35435 9.07025 2.38224 9.00005 2.38224Z" fill="#9C9C9C"/>
<path d="M7.75276 2.72633C7.70656 2.72605 7.66125 2.71369 7.62131 2.69047C7.58137 2.66725 7.54821 2.63398 7.52511 2.59397L7.20217 2.0328C7.16744 1.97234 7.15796 1.90061 7.17581 1.83321C7.19365 1.7658 7.23737 1.70816 7.29746 1.6728C7.32752 1.65519 7.36075 1.64368 7.39526 1.63894C7.42977 1.6342 7.46488 1.63631 7.49857 1.64517C7.53226 1.65402 7.56387 1.66943 7.59159 1.69053C7.61931 1.71162 7.6426 1.73798 7.66011 1.76809L7.98305 2.32927C8.00055 2.35948 8.01191 2.39286 8.01646 2.42747C8.021 2.46209 8.01866 2.49727 8.00956 2.53098C8.00045 2.56468 7.98477 2.59626 7.96341 2.62388C7.94205 2.6515 7.91544 2.67462 7.88511 2.69192C7.84477 2.71478 7.79913 2.72665 7.75276 2.72633Z" fill="#9C9C9C"/>
<path d="M6.84214 3.63702C6.79577 3.63734 6.75013 3.62547 6.70979 3.6026L6.14862 3.27966C6.1178 3.26216 6.0908 3.23863 6.06924 3.2105C6.04768 3.18236 6.03199 3.15018 6.0231 3.11586C6.01422 3.08154 6.01231 3.04579 6.0175 3.01072C6.02269 2.97566 6.03488 2.94199 6.05333 2.91172C6.08869 2.85162 6.14633 2.80791 6.21373 2.79006C6.28114 2.77222 6.35286 2.7817 6.41332 2.81643L6.97449 3.13937C7.03504 3.17429 7.07932 3.23174 7.09766 3.29918C7.11601 3.36662 7.10694 3.43859 7.07243 3.49937C7.04979 3.54075 7.01651 3.57533 6.97602 3.59953C6.93553 3.62373 6.88931 3.63667 6.84214 3.63702V3.63702Z" fill="#9C9C9C"/>
<path d="M6.50921 4.88366H5.86334C5.79313 4.88366 5.7258 4.85577 5.67616 4.80613C5.62652 4.75649 5.59863 4.68916 5.59863 4.61895C5.59863 4.54875 5.62652 4.48142 5.67616 4.43178C5.7258 4.38214 5.79313 4.35425 5.86334 4.35425H6.50921C6.57942 4.35425 6.64674 4.38214 6.69639 4.43178C6.74603 4.48142 6.77392 4.54875 6.77392 4.61895C6.77392 4.68916 6.74603 4.75649 6.69639 4.80613C6.64674 4.85577 6.57942 4.88366 6.50921 4.88366Z" fill="#9C9C9C"/>
<path d="M6.28153 6.45074C6.22377 6.45015 6.16778 6.43068 6.12211 6.39529C6.07644 6.35991 6.0436 6.31056 6.02861 6.25476C6.01361 6.19897 6.01728 6.13981 6.03905 6.0863C6.06082 6.03278 6.0995 5.98786 6.14918 5.95839L6.71036 5.63545C6.74041 5.61783 6.77365 5.60633 6.80816 5.60158C6.84266 5.59684 6.87777 5.59896 6.91146 5.60781C6.94515 5.61667 6.97676 5.63208 7.00448 5.65318C7.0322 5.67427 7.05549 5.70063 7.073 5.73074C7.10668 5.79127 7.11529 5.8626 7.09698 5.92941C7.07867 5.99622 7.0349 6.05319 6.97506 6.08809L6.41389 6.41103C6.37406 6.43575 6.32839 6.44946 6.28153 6.45074V6.45074Z" fill="#9C9C9C"/>
<path d="M11.7158 6.45074C11.6694 6.45106 11.6238 6.43919 11.5834 6.41632L11.0222 6.08809C10.9921 6.07058 10.9658 6.04729 10.9447 6.01957C10.9236 5.99185 10.9082 5.96024 10.8993 5.92655C10.8905 5.89286 10.8883 5.85775 10.8931 5.82324C10.8978 5.78873 10.9093 5.7555 10.9269 5.72544C10.9623 5.66535 11.02 5.62163 11.0874 5.60378C11.1548 5.58594 11.2265 5.59542 11.287 5.63015L11.8481 5.95309C11.9087 5.98801 11.953 6.04546 11.9713 6.1129C11.9897 6.18035 11.9806 6.25231 11.9461 6.31309C11.9234 6.35447 11.8901 6.38905 11.8497 6.41325C11.8092 6.43745 11.7629 6.45039 11.7158 6.45074Z" fill="#9C9C9C"/>
<path d="M12.1369 4.88366H11.4883C11.4181 4.88366 11.3508 4.85577 11.3012 4.80613C11.2515 4.75649 11.2236 4.68916 11.2236 4.61895C11.2236 4.54875 11.2515 4.48142 11.3012 4.43178C11.3508 4.38214 11.4181 4.35425 11.4883 4.35425H12.1369C12.2071 4.35425 12.2744 4.38214 12.324 4.43178C12.3737 4.48142 12.4016 4.54875 12.4016 4.61895C12.4016 4.68916 12.3737 4.75649 12.324 4.80613C12.2744 4.85577 12.2071 4.88366 12.1369 4.88366Z" fill="#9C9C9C"/>
<path d="M11.1546 3.63702C11.0968 3.63643 11.0408 3.61696 10.9952 3.58157C10.9495 3.54619 10.9167 3.49683 10.9017 3.44104C10.8867 3.38525 10.8903 3.32609 10.9121 3.27257C10.9339 3.21906 10.9725 3.17414 11.0222 3.14467L11.5834 2.82172C11.6135 2.80411 11.6467 2.79261 11.6812 2.78786C11.7157 2.78312 11.7508 2.78524 11.7845 2.79409C11.8182 2.80294 11.8498 2.81836 11.8775 2.83945C11.9053 2.86055 11.9285 2.88691 11.9461 2.91702C11.9636 2.94723 11.9749 2.98061 11.9795 3.01522C11.984 3.04984 11.9817 3.08502 11.9726 3.11872C11.9634 3.15243 11.9478 3.18401 11.9264 3.21163C11.9051 3.23925 11.8784 3.26237 11.8481 3.27967L11.2869 3.60261C11.2466 3.62547 11.201 3.63734 11.1546 3.63702Z" fill="#9C9C9C"/>
<path d="M10.2443 2.72644C10.1977 2.72663 10.1519 2.71453 10.1116 2.69137C10.0712 2.66822 10.0376 2.63482 10.0142 2.59455C9.99089 2.55427 9.97856 2.50855 9.97852 2.462C9.97847 2.41544 9.9907 2.3697 10.014 2.32938L10.3396 1.76821C10.3762 1.71059 10.4337 1.66935 10.5 1.65311C10.5663 1.63687 10.6363 1.64687 10.6954 1.68104C10.7546 1.71521 10.7982 1.77089 10.8172 1.83646C10.8362 1.90203 10.8292 1.97242 10.7975 2.03291L10.4746 2.59409C10.4513 2.63448 10.4177 2.668 10.3772 2.69124C10.3368 2.71448 10.2909 2.72663 10.2443 2.72644Z" fill="#9C9C9C"/>
<path d="M9.0001 5.36811C8.85193 5.36811 8.7071 5.32417 8.58391 5.24186C8.46072 5.15955 8.3647 5.04255 8.308 4.90567C8.2513 4.76878 8.23647 4.61816 8.26537 4.47285C8.29428 4.32753 8.36562 4.19405 8.47039 4.08928C8.57515 3.98452 8.70864 3.91317 8.85395 3.88427C8.99927 3.85536 9.14989 3.8702 9.28677 3.9269C9.42365 3.9836 9.54065 4.07961 9.62297 4.2028C9.70528 4.326 9.74922 4.47083 9.74922 4.61899C9.74922 4.81767 9.67029 5.00821 9.5298 5.1487C9.38932 5.28918 9.19877 5.36811 9.0001 5.36811V5.36811ZM9.0001 4.39929C8.94183 4.39929 8.88594 4.42243 8.84474 4.46364C8.80354 4.50484 8.78039 4.56072 8.78039 4.61899C8.78039 4.67726 8.80354 4.73314 8.84474 4.77435C8.88594 4.81555 8.94183 4.8387 9.0001 4.8387C9.05837 4.8387 9.11425 4.81555 9.15545 4.77435C9.19666 4.73314 9.2198 4.67726 9.2198 4.61899C9.2198 4.56072 9.19666 4.50484 9.15545 4.46364C9.11425 4.42243 9.05837 4.39929 9.0001 4.39929V4.39929Z" fill="#9C9C9C"/>
<path d="M9.34174 4.53969C9.2897 4.53948 9.23888 4.52393 9.19564 4.49499C9.15239 4.46606 9.11863 4.42502 9.09857 4.377C9.07852 4.32899 9.07306 4.27612 9.08288 4.22502C9.09271 4.17392 9.11737 4.12685 9.1538 4.08969L10.0326 3.21087C10.0572 3.18606 10.0865 3.16636 10.1188 3.15293C10.151 3.13949 10.1856 3.13257 10.2206 3.13257C10.2555 3.13257 10.2901 3.13949 10.3224 3.15293C10.3546 3.16636 10.3839 3.18606 10.4085 3.21087C10.4578 3.26046 10.4855 3.32755 10.4855 3.39749C10.4855 3.46742 10.4578 3.53451 10.4085 3.5841L9.52968 4.46293C9.50494 4.48746 9.47561 4.50687 9.44336 4.52004C9.41111 4.53322 9.37657 4.53989 9.34174 4.53969Z" fill="#9C9C9C"/>
</svg>
