<svg width="18" height="18" viewBox="0 0 18 18" fill="none" xmlns="http://www.w3.org/2000/svg">
<path d="M14.9662 3.03379C13.6223 1.69027 11.8643 0.839569 9.97677 0.61937C8.08926 0.399171 6.18267 0.822358 4.56557 1.82044L4.53744 1.83693L5.94847 4.27677C5.28002 4.71036 4.71045 5.27997 4.2769 5.94845L2.32499 4.82145C2.87411 3.94772 3.58801 3.18921 4.42688 2.58818L4.09992 2.13048C3.00518 2.91042 2.11288 3.94091 1.4975 5.13594C0.882132 6.33096 0.561545 7.65585 0.562502 9.00001C0.562504 10.6688 1.05735 12.3001 1.98448 13.6876C2.9116 15.0752 4.22935 16.1566 5.7711 16.7952C7.31285 17.4338 9.00934 17.6009 10.6461 17.2754C12.2828 16.9498 13.7862 16.1462 14.9662 14.9662C15.7497 14.1827 16.3712 13.2526 16.7952 12.2289C17.2192 11.2052 17.4375 10.108 17.4375 9.00001C17.4375 7.89198 17.2192 6.7948 16.7952 5.77111C16.3712 4.74743 15.7497 3.81728 14.9662 3.03379V3.03379ZM14.618 9.28126H16.8695C16.8302 10.4731 16.5189 11.6402 15.9594 12.6932L14.0053 11.565C14.3702 10.8562 14.5791 10.0775 14.618 9.28126V9.28126ZM14.618 8.71876C14.5791 7.9225 14.3702 7.14379 14.0053 6.43498L15.9594 5.30678C16.5189 6.35986 16.8302 7.52693 16.8695 8.71876H14.618ZM15.6772 4.82018L13.7231 5.94845C13.2896 5.28002 12.72 4.71046 12.0516 4.27691L13.1798 2.32282C14.1884 2.95821 15.0417 3.81158 15.6771 4.82018H15.6772ZM9.28125 1.1305C10.4731 1.16986 11.6401 1.48118 12.6932 2.04066L11.5651 3.99471C10.8563 3.62983 10.0775 3.42093 9.28125 3.38205V1.1305ZM5.30793 2.04259C6.36093 1.48362 7.52731 1.17156 8.71875 1.13004V3.38205C7.92248 3.42093 7.14375 3.62983 6.43493 3.99471L5.30793 2.04259ZM9 3.93752C11.7914 3.93752 14.0625 6.20861 14.0625 9.00001C14.0625 11.7914 11.7914 14.0625 9 14.0625C6.2086 14.0625 3.9375 11.7914 3.9375 9.00001C3.9375 6.20861 6.2086 3.93752 9 3.93752ZM8.71875 14.618V16.8695C7.52692 16.8302 6.35986 16.5189 5.30677 15.9594L6.43493 14.0053C7.14375 14.3702 7.92248 14.5791 8.71875 14.618V14.618ZM9.28125 14.618C10.0775 14.5791 10.8563 14.3702 11.5651 14.0053L12.6932 15.9594C11.6401 16.5189 10.4731 16.8302 9.28125 16.8695V14.618ZM3.38203 9.28126C3.42091 10.0775 3.62982 10.8562 3.9947 11.565L2.04065 12.6932C1.48115 11.6402 1.16983 10.4731 1.13049 9.28126H3.38203ZM2.02613 5.33849C2.03151 5.32823 2.03731 5.31821 2.04272 5.30801L3.9947 6.43498C3.62982 7.14379 3.42091 7.9225 3.38203 8.71876H1.13059C1.17245 7.5392 1.47848 6.38406 2.02613 5.33849V5.33849ZM2.32281 13.1798L4.2769 12.0516C4.71045 12.72 5.28001 13.2896 5.94844 13.7231L4.82024 15.6772C3.81164 15.0418 2.95827 14.1885 2.32288 13.1798H2.32281ZM14.5685 14.5685C14.1485 14.9889 13.6827 15.3608 13.1798 15.6772L12.0516 13.7231C12.72 13.2896 13.2896 12.72 13.7231 12.0516L15.6772 13.1798C15.3608 13.6827 14.9889 14.1485 14.5685 14.5685V14.5685Z" fill="#9C9C9C"/>
<path d="M4.50749 9.06463C4.52204 9.1263 4.55699 9.18125 4.60667 9.22058C4.65635 9.2599 4.71786 9.2813 4.78122 9.2813H5.2372C5.33505 9.28123 5.43238 9.29559 5.52604 9.32391C5.62026 9.35249 5.70978 9.39473 5.79175 9.44928C6.01849 9.60108 6.28116 9.69059 6.55341 9.70883L4.99455 10.3546L5.20981 10.8743L6.90684 10.1711L6.88719 10.2105C6.8633 10.2583 6.83019 10.301 6.78976 10.336C6.74934 10.371 6.7024 10.3976 6.65164 10.4144C6.50915 10.4623 6.37968 10.5425 6.27341 10.6488C6.16713 10.7552 6.08694 10.8846 6.03911 11.0272L5.75016 11.8941C5.73011 11.9542 5.73095 12.0193 5.75254 12.0789C5.77412 12.1385 5.8152 12.189 5.8691 12.2223C5.923 12.2557 5.98658 12.2698 6.04952 12.2625C6.11246 12.2551 6.17108 12.2268 6.21588 12.1819L6.53826 11.8596C6.60769 11.7901 6.68701 11.7312 6.77363 11.6849C6.85997 11.6385 6.95274 11.6053 7.04887 11.5863C7.31703 11.5331 7.56646 11.4102 7.77207 11.23L7.12576 12.7902L7.64544 13.0055L8.34825 11.3089L8.36192 11.3499C8.39577 11.4522 8.38789 11.5637 8.33999 11.6602C8.27294 11.7949 8.23804 11.9433 8.23804 12.0937C8.23804 12.2441 8.27294 12.3925 8.33999 12.5272L8.7485 13.3446C8.77686 13.4012 8.8235 13.4466 8.88086 13.4734C8.93822 13.5002 9.00296 13.5069 9.06459 13.4923C9.12622 13.4778 9.18114 13.4429 9.22045 13.3932C9.25977 13.3436 9.28118 13.2821 9.28123 13.2188V12.7628C9.28117 12.665 9.29552 12.5676 9.32384 12.4739C9.35243 12.3797 9.39465 12.2902 9.44917 12.2083C9.60105 11.9814 9.6905 11.7184 9.70852 11.446L10.3545 13.0055L10.8742 12.7902L10.1711 11.0931L10.2104 11.1128C10.2582 11.1367 10.3008 11.1698 10.3358 11.2102C10.3708 11.2506 10.3975 11.2976 10.4143 11.3483C10.4621 11.4908 10.5424 11.6203 10.6487 11.7266C10.755 11.8329 10.8845 11.9131 11.027 11.961L11.8939 12.25C11.954 12.27 12.0192 12.2692 12.0787 12.2476C12.1383 12.226 12.1888 12.1849 12.2222 12.131C12.2555 12.0771 12.2696 12.0136 12.2623 11.9506C12.255 11.8877 12.2266 11.8291 12.1818 11.7843L11.8594 11.4619C11.7899 11.3924 11.731 11.313 11.6847 11.2264C11.6384 11.14 11.6051 11.0473 11.5861 10.9512C11.5329 10.683 11.4101 10.4336 11.2299 10.228L12.7901 10.8743L13.0053 10.3546L11.3087 9.65181L11.3497 9.63817C11.4521 9.6048 11.5634 9.61266 11.6601 9.66007C11.7947 9.72712 11.9431 9.76201 12.0935 9.76201C12.244 9.76201 12.3923 9.72712 12.527 9.66007L13.3444 9.25156C13.401 9.22321 13.4464 9.17659 13.4733 9.11923C13.5001 9.06187 13.5068 8.99713 13.4922 8.93549C13.4777 8.87385 13.4428 8.81893 13.3932 8.7796C13.3435 8.74027 13.2821 8.71885 13.2187 8.7188H12.7628C12.6649 8.71886 12.5676 8.70451 12.4739 8.67619C12.3797 8.64761 12.2902 8.60537 12.2082 8.55082C11.9813 8.39901 11.7185 8.30955 11.4461 8.29144L13.0054 7.64551L12.7901 7.12583L11.0931 7.82896L11.1128 7.78958C11.1367 7.74175 11.1698 7.69912 11.2102 7.66412C11.2506 7.62913 11.2976 7.60247 11.3483 7.58568C11.4908 7.5378 11.6203 7.45756 11.7265 7.35125C11.8328 7.24494 11.913 7.11545 11.9608 6.97294L12.2498 6.10599C12.2698 6.04588 12.269 5.98076 12.2474 5.92118C12.2258 5.8616 12.1848 5.81106 12.1309 5.77775C12.0769 5.74444 12.0134 5.7303 11.9504 5.73764C11.8875 5.74497 11.8289 5.77335 11.7841 5.81816L11.4617 6.14055C11.3923 6.21003 11.3129 6.26888 11.2263 6.3152C11.14 6.36156 11.0472 6.3948 10.9511 6.41382C10.6829 6.46701 10.4335 6.58988 10.2279 6.77005L10.8742 5.20989L10.3545 4.99463L9.6517 6.69123L9.63803 6.65021C9.60418 6.54791 9.61206 6.4364 9.65997 6.33988C9.72702 6.20522 9.76191 6.05684 9.76191 5.90641C9.76191 5.75597 9.72702 5.60759 9.65997 5.47293L9.25145 4.65555C9.22309 4.59893 9.17646 4.55353 9.11909 4.52671C9.06173 4.49989 8.99699 4.49322 8.93536 4.50777C8.87373 4.52232 8.81881 4.55724 8.7795 4.60688C8.74018 4.65652 8.71877 4.71798 8.71873 4.7813V5.23728C8.71878 5.33514 8.70443 5.43248 8.67612 5.52615C8.64753 5.62035 8.6053 5.70986 8.55078 5.79183C8.3989 6.01875 8.30945 6.28166 8.29144 6.55412L7.64544 4.99463L7.12576 5.20989L7.82888 6.90695L7.78958 6.88733C7.74175 6.86344 7.69911 6.83034 7.66412 6.78991C7.62912 6.74949 7.60246 6.70255 7.58567 6.65179C7.53782 6.50926 7.45759 6.37977 7.35128 6.27347C7.24497 6.16717 7.11546 6.08695 6.97293 6.03912L6.10601 5.75014C6.04591 5.73009 5.98079 5.73092 5.92122 5.75251C5.86164 5.77409 5.8111 5.81516 5.77779 5.86905C5.74447 5.92295 5.73033 5.98652 5.73766 6.04945C5.74498 6.11239 5.77335 6.17101 5.81815 6.21582L6.14054 6.5382C6.21005 6.60768 6.26892 6.68705 6.31523 6.77374C6.36157 6.86006 6.39481 6.9528 6.41384 7.04891C6.46702 7.31706 6.58986 7.56647 6.77001 7.77208L5.20988 7.1258L4.99462 7.64548L6.69123 8.34829L6.65027 8.36193C6.5479 8.3953 6.43655 8.38744 6.33987 8.34003C6.20522 8.27298 6.05684 8.23808 5.90641 8.23808C5.75599 8.23808 5.60761 8.27298 5.47295 8.34003L4.65557 8.74854C4.5989 8.77685 4.55344 8.82347 4.52656 8.88084C4.49969 8.9382 4.49297 9.00297 4.50749 9.06463V9.06463ZM10.6875 9.00005C10.6875 9.33381 10.5885 9.66007 10.4031 9.93757C10.2177 10.2151 9.95411 10.4314 9.64575 10.5591C9.3374 10.6868 8.9981 10.7202 8.67076 10.6551C8.34342 10.59 8.04273 10.4293 7.80673 10.1933C7.57073 9.95729 7.41001 9.65661 7.3449 9.32926C7.27979 9.00192 7.3132 8.66262 7.44093 8.35427C7.56865 8.04592 7.78494 7.78237 8.06245 7.59694C8.33996 7.41152 8.66622 7.31255 8.99998 7.31255C9.44738 7.31305 9.87631 7.491 10.1927 7.80736C10.509 8.12372 10.687 8.55265 10.6875 9.00005ZM6.9389 11.0346C6.82168 11.0579 6.70754 11.0946 6.59877 11.1441C6.6478 11.0516 6.73049 10.9814 6.82978 10.9481C7.04831 10.8756 7.23365 10.7273 7.3522 10.53C7.40376 10.5856 7.45815 10.6385 7.51536 10.6886C7.36928 10.8675 7.16544 10.9898 6.9389 11.0346V11.0346ZM8.98113 11.8963C8.9149 11.9957 8.86028 12.1024 8.81832 12.2142C8.78734 12.114 8.79616 12.0057 8.84293 11.9119C8.94548 11.7063 8.97183 11.471 8.91732 11.2478C8.94478 11.2489 8.9722 11.2499 8.99991 11.2499C9.04825 11.2499 9.09606 11.2479 9.14362 11.2449C9.16554 11.4742 9.10819 11.7041 8.98113 11.8963V11.8963ZM10.948 11.1702C10.8756 10.9517 10.7272 10.7663 10.5299 10.6478C10.5855 10.5961 10.6384 10.5417 10.6886 10.4847C10.8674 10.6308 10.9898 10.8346 11.0346 11.0612C11.0578 11.1785 11.0945 11.2926 11.144 11.4014C11.0515 11.3523 10.9813 11.2695 10.948 11.1702ZM12.2142 9.1817C12.114 9.21265 12.0057 9.20384 11.9118 9.15709C11.7059 9.05568 11.471 9.02949 11.2478 9.08305C11.2488 9.05549 11.2499 9.02793 11.2499 9.00012C11.2499 8.95178 11.2478 8.90397 11.2448 8.8564C11.4741 8.83451 11.704 8.89189 11.8962 9.01896C11.9956 9.08518 12.1023 9.13978 12.2142 9.1817V9.1817ZM11.061 6.96545C11.1783 6.94222 11.2924 6.90548 11.4012 6.85598C11.3522 6.94852 11.2695 7.0187 11.1702 7.05204C10.9516 7.12445 10.7663 7.27278 10.6478 7.47012C10.5961 7.41455 10.5417 7.36166 10.4846 7.31146C10.6307 7.1326 10.8345 7.01025 11.061 6.96545V6.96545ZM9.01882 6.10381C9.08505 6.0044 9.13967 5.89773 9.18163 5.78589C9.21261 5.88609 9.20379 5.99437 9.15702 6.08823C9.05447 6.29381 9.02812 6.52909 9.08263 6.75226C9.05517 6.75124 9.02775 6.75016 9.00005 6.75016C8.95171 6.75016 8.90389 6.75223 8.85633 6.75522C8.83441 6.52589 8.89176 6.29597 9.01882 6.10381V6.10381ZM7.052 6.82989C7.12439 7.04842 7.27272 7.23376 7.47008 7.35228C7.41449 7.40398 7.36152 7.45843 7.31138 7.51544C7.13251 7.36933 7.01015 7.16545 6.96537 6.93887C6.94216 6.82165 6.90543 6.70751 6.85593 6.59874C6.9485 6.64781 7.01869 6.73056 7.052 6.82989V6.82989ZM6.08805 8.84308C6.294 8.9444 6.5289 8.97052 6.75208 8.9169C6.75106 8.9445 6.74997 8.97206 6.74997 8.99987C6.74997 9.04818 6.75205 9.09603 6.75507 9.14359C6.52575 9.16546 6.29585 9.10809 6.10369 8.98103C6.00429 8.91479 5.89762 8.86017 5.78578 8.81822C5.88599 8.78738 5.99422 8.79628 6.08805 8.84308V8.84308Z" fill="#9C9C9C"/>
<path d="M9.5625 9.5625H8.4375V10.125H9.5625V9.5625Z" fill="#9C9C9C"/>
<path d="M8.43742 9.28137H8.99992V8.43762C8.99992 8.40068 8.99265 8.36411 8.97851 8.32999C8.96438 8.29586 8.94366 8.26486 8.91755 8.23874C8.794 8.11492 8.63457 8.03319 8.46192 8.00515C8.28926 7.97711 8.11216 8.00419 7.95578 8.08254L7.74902 8.18593L8.0006 8.68902L8.20736 8.58566C8.2429 8.56784 8.28194 8.55809 8.32169 8.5571C8.36144 8.55611 8.40092 8.56391 8.43731 8.57993L8.43742 9.28137Z" fill="#9C9C9C"/>
<path d="M10.125 8.15625H9.5625V8.71875H10.125V8.15625Z" fill="#9C9C9C"/>
<path d="M11.2655 2.24239C11.2543 2.19615 11.2315 2.15352 11.1992 2.11851C11.167 2.08349 11.1264 2.05723 11.0813 2.04217L10.5528 1.866C10.5082 1.85112 10.4605 1.84767 10.4142 1.85598C10.3679 1.86428 10.3244 1.88407 10.2877 1.91353C10.2511 1.943 10.2224 1.98119 10.2043 2.02462C10.1862 2.06805 10.1792 2.11533 10.1841 2.16213L10.2519 2.81252C10.2574 2.86575 10.278 2.91631 10.3112 2.95826C10.3445 3.0002 10.389 3.03179 10.4395 3.04931C10.4901 3.06683 10.5446 3.06955 10.5967 3.05716C10.6488 3.04477 10.6962 3.01779 10.7335 2.97937L11.194 2.50511C11.2272 2.47095 11.2512 2.42893 11.2637 2.38298C11.2762 2.33703 11.2768 2.28865 11.2655 2.24239V2.24239Z" fill="#9C9C9C"/>
<path d="M13.6992 4.81641C14.0099 4.81641 14.2617 4.56457 14.2617 4.25391C14.2617 3.94325 14.0099 3.69141 13.6992 3.69141C13.3886 3.69141 13.1367 3.94325 13.1367 4.25391C13.1367 4.56457 13.3886 4.81641 13.6992 4.81641Z" fill="#9C9C9C"/>
<path d="M15.75 6.75H15.1875C15.0322 6.75 14.9062 6.87592 14.9062 7.03125V7.59375C14.9062 7.74908 15.0322 7.875 15.1875 7.875H15.75C15.9053 7.875 16.0312 7.74908 16.0312 7.59375V7.03125C16.0312 6.87592 15.9053 6.75 15.75 6.75Z" fill="#9C9C9C"/>
<path d="M15.5567 11.3027C15.9099 11.3027 16.1963 11.0509 16.1963 10.7402C16.1963 10.4296 15.9099 10.1777 15.5567 10.1777C15.2034 10.1777 14.917 10.4296 14.917 10.7402C14.917 11.0509 15.2034 11.3027 15.5567 11.3027Z" fill="#9C9C9C"/>
<path d="M13.793 14.3858C14.1036 14.3858 14.3555 14.0994 14.3555 13.7461C14.3555 13.3928 14.1036 13.1064 13.793 13.1064C13.4823 13.1064 13.2305 13.3928 13.2305 13.7461C13.2305 14.0994 13.4823 14.3858 13.793 14.3858Z" fill="#9C9C9C"/>
<path d="M10.6289 14.8828C10.458 14.883 10.2942 14.951 10.1734 15.0718C10.0525 15.1926 9.98456 15.3565 9.98438 15.5274V15.9375C9.98438 16.0121 10.014 16.0836 10.0668 16.1364C10.1195 16.1891 10.191 16.2187 10.2656 16.2187H10.9922C11.0668 16.2187 11.1383 16.1891 11.191 16.1364C11.2438 16.0836 11.2734 16.0121 11.2734 15.9375V15.5274C11.2732 15.3565 11.2053 15.1927 11.0844 15.0718C10.9636 14.951 10.7998 14.883 10.6289 14.8828V14.8828ZM10.7109 15.6562H10.5469V15.5274C10.5469 15.5056 10.5555 15.4848 10.5709 15.4694C10.5863 15.454 10.6071 15.4453 10.6289 15.4453C10.6506 15.4453 10.6715 15.454 10.6869 15.4694C10.7023 15.4848 10.7109 15.5056 10.7109 15.5274L10.7109 15.6562Z" fill="#9C9C9C"/>
<path d="M6.56836 16.078H7.97461V15.5155H7.7887C7.81917 15.4323 7.82909 15.3429 7.81764 15.255C7.80619 15.1671 7.7737 15.0833 7.72293 15.0107C7.67216 14.938 7.60461 14.8787 7.52601 14.8377C7.44742 14.7968 7.3601 14.7754 7.27147 14.7754C7.18284 14.7754 7.09552 14.7968 7.01692 14.8377C6.93832 14.8787 6.87077 14.938 6.82 15.0107C6.76923 15.0833 6.73674 15.1671 6.72529 15.255C6.71384 15.3429 6.72377 15.4323 6.75423 15.5155H6.56836V16.078Z" fill="#9C9C9C"/>
<path d="M4.1719 13.0547C4.00101 13.0549 3.83718 13.1229 3.71635 13.2437C3.59551 13.3645 3.52754 13.5284 3.52734 13.6992V14.1094C3.52734 14.184 3.55698 14.2555 3.60972 14.3082C3.66246 14.361 3.734 14.3906 3.80859 14.3906H4.53517C4.60976 14.3906 4.6813 14.361 4.73404 14.3082C4.78679 14.2555 4.81642 14.184 4.81642 14.1094V13.6992C4.81622 13.5284 4.74826 13.3645 4.62743 13.2437C4.5066 13.1229 4.34278 13.0549 4.1719 13.0547ZM4.25392 13.8281H4.08984V13.6992C4.08962 13.6883 4.09157 13.6775 4.09559 13.6673C4.09962 13.6572 4.10562 13.6479 4.11326 13.6401C4.1209 13.6323 4.13002 13.6261 4.14009 13.6219C4.15015 13.6177 4.16096 13.6155 4.17188 13.6155C4.1828 13.6155 4.19361 13.6177 4.20367 13.6219C4.21374 13.6261 4.22286 13.6323 4.2305 13.6401C4.23814 13.6479 4.24415 13.6572 4.24817 13.6673C4.25219 13.6775 4.25414 13.6883 4.25392 13.6992V13.8281Z" fill="#9C9C9C"/>
<path d="M2.03906 7.93351H2.76564C2.84023 7.93351 2.91177 7.90388 2.96451 7.85113C3.01726 7.79839 3.04689 7.72685 3.04689 7.65226V7.24209C3.04563 7.07197 2.97717 6.90925 2.85643 6.7894C2.73569 6.66955 2.57247 6.60229 2.40235 6.60229C2.23223 6.60229 2.069 6.66955 1.94827 6.7894C1.82753 6.90925 1.75907 7.07197 1.75781 7.24209V7.65226C1.75781 7.72685 1.78744 7.79839 1.84019 7.85113C1.89293 7.90388 1.96447 7.93351 2.03906 7.93351ZM2.32031 7.24209C2.32076 7.22063 2.3296 7.20019 2.34493 7.18517C2.36027 7.17015 2.38088 7.16173 2.40235 7.16173C2.42382 7.16173 2.44443 7.17015 2.45977 7.18517C2.4751 7.20019 2.48394 7.22063 2.48439 7.24209V7.37101H2.32031V7.24209Z" fill="#9C9C9C"/>
<path d="M1.80078 11.0246L2.25373 11.3582L2.74754 10.6875H3.09365V10.125C3.09365 10.0504 3.06402 9.97887 3.01128 9.92613C2.95853 9.87338 2.88699 9.84375 2.8124 9.84375H2.2499V10.4062H2.25609L1.80078 11.0246Z" fill="#9C9C9C"/>
<path d="M4.61719 3.79688H3.77344C3.61811 3.79688 3.49219 3.92279 3.49219 4.07812V4.35938C3.49219 4.51471 3.61811 4.64062 3.77344 4.64062H4.61719C4.77252 4.64062 4.89844 4.51471 4.89844 4.35938V4.07812C4.89844 3.92279 4.77252 3.79688 4.61719 3.79688Z" fill="#9C9C9C"/>
<path d="M7.74276 2.81977C7.70458 2.73894 7.68513 2.65054 7.68586 2.56115C7.68659 2.47176 7.70748 2.38369 7.74698 2.3035L7.75282 2.29158C7.7738 2.2487 7.78352 2.20118 7.78106 2.1535C7.77861 2.10583 7.76406 2.05956 7.73878 2.01906C7.71351 1.97856 7.67834 1.94516 7.63659 1.92201C7.59484 1.89886 7.54789 1.88671 7.50015 1.88672H6.94141C6.89331 1.88672 6.84601 1.89906 6.80403 1.92256C6.76206 1.94606 6.72682 1.97993 6.70167 2.02094C6.67652 2.06195 6.66231 2.10872 6.6604 2.15679C6.65849 2.20485 6.66894 2.2526 6.69075 2.29548C6.73243 2.37791 6.75452 2.46886 6.7553 2.56123C6.75608 2.6536 6.73553 2.7449 6.69525 2.82803L6.68871 2.84139C6.66776 2.88427 6.65806 2.93177 6.66053 2.97943C6.66301 3.02709 6.67757 3.07333 6.70284 3.11381C6.72812 3.15429 6.76328 3.18768 6.80501 3.21082C6.84675 3.23396 6.89369 3.24611 6.94141 3.24611H7.50015C7.54751 3.24611 7.5941 3.23416 7.63561 3.21136C7.67711 3.18856 7.71219 3.15565 7.73759 3.11568C7.76298 3.07571 7.77788 3.02997 7.78088 2.98271C7.78389 2.93545 7.77491 2.88819 7.75479 2.84532L7.74276 2.81977Z" fill="#9C9C9C"/>
</svg>
